<?xml version="1.0" encoding="UTF-8"?>
<svg id="Ebene_1" xmlns="http://www.w3.org/2000/svg" version="1.1" viewBox="0 0 96.5 75.5">
  <!-- Generator: Adobe Illustrator 29.0.1, SVG Export Plug-In . SVG Version: 2.1.0 Build 192)  -->
  <defs>
    <style>
      .st0 {
        fill: #1a08f5;
      }
    </style>
  </defs>
  <g id="Ebene_11" data-name="Ebene_1">
    <g id="NjDdfZ">
      <g id="Gruppe_2">
        <path id="Pfad_22" class="st0" d="M42.1,21.7h0c0,0,.2,0,.2-.2h0c.5-.3,1-.6,1.6-.8h.2c.2.2.2,0,.3,0l.3-.3c.3-.2.7-.3,1.1-.3h.8c0,0-.2,0-.2.2h.9c.3,0,.5,0,.5-.3h.3c0-.2,0-.3.2-.3.6,0,1.2.1,1.7.3.1,0,.2,0,.3.2v.2h-.2c-.2,0-.3,0-.3-.2h0c.3.2.6.2.9.3.4.3.9.6,1.4.8.7.3,1.4.6,2,1.1.3.1.6.3.8.6.5.3.8.5,1.3.8.2.2.3.2.5.3.3.3.8.5,1.1.8.2.2.3.3.3.5l.3.3h0v-.5c.3.2.5.3.8.5h0c-.2-.2-.3-.5-.5-.6.2-.2.3.2.5.2-.2-.2-.5-.3-.6-.5h0c.2.2.5.2.6.3.3.3.8.3,1.1.6,0,0,.2,0,.3,0h.6c.3,0,.5.2.8.2h.5c.1-.1.3-.2.5-.2h-.9c.2,0,.3-.2.5-.2-.7,0-1.4,0-2-.2-.7-.2-1.3-.5-1.7-1.1h.3c.7.2,1.3.4,2,.5.3,0,.5,0,.6-.2v-.2c0,0,.2,0,.2.2h0c0,0,0,.2.1.2h0c.2,0,.5.2.6.2s.2,0,.2-.2h0c-.2,0-.4,0-.6-.2v-.2h.2c.2,0,.5-.2.6,0s.5,0,.8,0h0v.2c.2,0,.3.2.5.2h.3c.3-.2.5-.2.6-.3h.3c-.5.2-.8.5-1.3.6h0c.5-.3,1.1-.5,1.6-.8v.2h-.2v.2l1.4-.9h-.2l.9-.5h0v.2c.2-.2.3-.2.5-.3.5-.2.9-.5,1.3-.9.2-.2.5-.3.8-.5h.3l-.3.3h0c.2,0,.2-.2.3-.2h.3c-.2.2-.3.2-.5.3h0c.2,0,.2-.2.3-.2s.2-.2.3-.2h.6c.2,0,.3-.2.6-.2h0l-.2.2c.3,0,.6-.3,1.1-.3h-.3c-.1,0-.2,0-.3.2,1.6-.1,3.3,0,4.9.6,0-.2-.2-.2-.2-.3.4,0,.9,0,1.3.2-.2-.2-.3-.2-.5-.3h0c.2,0,.4,0,.6.2-.3-.2-.6-.2-.9-.5.2,0,.4,0,.5.2.2,0,.3.2.6.2s.2-.2.3-.2c.3,0,.2-.2.3-.3h-.2c0,0,0,.2.1.2h0c-.1,0-.2,0-.3-.2,0-.2-.2-.2-.3-.3s-.3,0-.5,0l-1.4-.5v-.2c.3,0,.6-.2,1.1-.2s.8.3,1.3.5c.2-.2.3-.5.3-.8s-.2-.6-.5-.8c-.2-.2-.4-.3-.6-.3-.3-.2-.5-.2-.8-.3-.2-.2-.4-.3-.6-.3-.3,0-.5-.2-.8-.5-.2-.2-.3-.3-.5-.3-.3-.2-.8-.3-1.1-.5-.5-.1-1-.2-1.6-.2.2,0,.4,0,.5.2h-.8c-.8,0-1.6.2-2.4.5-.9.2-1.7.6-2.5.9-.1.2-.4.3-.6.3-.5.3-1.1.6-1.6.9-.9.6-1.8,1-2.8,1.4-1.7.5-3.5.2-5-.8-1.1-.8-2-1.6-3.1-2.4-.4-.3-.8-.6-1.3-.8-.2-.2-.5-.2-.6-.5-.4-.3-.8-.6-1.3-.8-.5-.3-1.1-.5-1.7-.6-.2,0-.4,0-.5-.2h0c.2,0,.3.2.5.2-.6-.2-1.3-.2-1.7-.3-.7-.1-1.4-.2-2-.2h-.9c-.6.2-1.1.3-1.7.5-1.5.4-2.9,1.1-4.2,2-.3.3-.7.6-1.1.8h-.6c-.2.2-.5.2-.6.3-.3.2-.5.5-.8.6s-.8.5-1.1.6c-.2.2-.3.2-.5.3l-1.4.5c-.4.2-.8.3-1.3.3-.5.2-1.1.2-1.6.3-.4.1-.7.2-1.1.2-.6,0-1.4-.2-2-.2-.3,0-.7-.1-.9-.3h.2c-.2,0-.2-.2-.3-.2-.6-.1-1.1-.3-1.6-.6-1-.5-1.9-1.1-2.8-1.7-.6-.3-1.1-.7-1.6-1.1-.2-.2-.3-.2-.5-.3h0c.2.2.3.2.5.3h0c-.2,0-.3-.2-.5-.2-.6-.4-1.2-.8-1.7-1.3-.3-.2-.6-.5-.9-.6-.1-.1-.3-.2-.5-.2-.1,0-.2,0-.3-.2-.2-.2-.2-.3-.5-.2h0c-.3-.2-.5-.2-.6-.3-.2,0-.4,0-.6-.2h0c0,0,.2,0,.2-.2h0c-.2-.2-.8-.2-.9-.2h.3l-.9.5c.1.1.2.2.2.3l-.5.5v.2c.2.2,0,.3-.2.5l-.2.2h.3l-.2.2c.1,0,.2,0,.3-.2.2-.1.4,0,.5.2-.2,0-.2.2-.3.3-.2,0-.2.2-.3.3.2,0,.3,0,.5.3,0,.2,0,.3-.2.5-.2.3-.3.5-.6.5,0,.3.3.2.5.2-.2.2-.4.4-.5.6,0,0,.2,0,.2-.2h.3l-.2.2c-.2.1-.4.3-.6.5h.5c.1,0,.2,0,.3-.2v.2c-.2,0-.2.2-.3.2,0,0,.2,0,.2.2h0l-.2.2c.3-.2.6-.2.9-.3.4-.2.8-.2,1.1,0,.2.2.5.2.6.3s.3.3.5.3c.4.2.7.4.9.6l.2.2c0,.2.2.3.3.2h0c.3.3.6.5.8.8v-.2h.2c.3.3.8.5,1.1.8l.2.2h-.2c.9.5,1.9,1.1,2.8,1.6h0l-.2-.2h0c.2.2.3.2.5.3,0,.1,0,.2.2.2h.2c.2.2.5.2.5.3s.2.2.3.2h0l.2.2c0-.2.2-.2.3-.2s.2.2.3.2c.6.1,1.2.3,1.7.6.3,0,.5.2.8,0l-.2-.2h.5c0,0,0-.2-.1-.2h0c.2,0,.3-.2.3-.3.5.2,1.1,0,1.6.2-.2.2-.5,0-.8.2.2,0,.2.2.3.2h1.1c.2-.2.3-.2.5-.3.2,0,.2-.2.3-.2,0,0,.1-.2.2-.3h0c0,0,.2,0,.2-.2h-1.3c-.4,0-.8,0-1.3,0-.2,0-.4,0-.5-.2,0,0,0-.2-.1-.2h0l.2-.2h1.3c.2.3.3.2.3,0,.2,0,.5-.2.6-.2.3,0,.8-.2,1.1-.2.5,0,.8-.2,1.3-.2.4,0,.9-.1,1.3-.3.2-.2.6-.4.9-.3.3-.2.8-.2,1.1-.3.6-.2,1.2-.5,1.7-.8l.9-.5c.3-.2.5-.3.8-.5s.5-.3.8-.5h0l-.2.2c-.1.2-.4.3-.6.3s-.2.2,0,.3c-.2.2-.5.5-.8.6h.3c-.2.2-.3.3-.5.3h0c.4-.2.7-.4.9-.6h0c.2,0,.2-.2.3-.2v.3c2.1,1.1,2.4.5,2.8.2h0ZM36.2,24.2h0c-.3,0-.5,0-.8.2-.2,0-.4,0-.6.2h-.2c-.2.2-.5.2-.8.3-.2,0-.5.2-.6.2h-.2c.3.3.6-.2.8.2v.2c.4,0,.8-.2,1.1-.5h-.2c.2-.3.6-.2.8-.3h.2c.2,0,.3-.2.5-.3h0ZM55.1,23.2h0c0,.2.1.3.3.3.2.2.5.3.6.5l.2.2c.1.4.4.7.8.8l.2-.2c.2,0,.2-.3,0-.3-.3-.2-.5-.6-.8-.8-.3-.2-.6-.4-.8-.6-.3.3-.3.2-.5.2h0ZM70.2,22.4c-.6.5-1.4.6-1.7,1.3.6-.2.9-.6,1.4-.9h0c-.2,0-.2.2-.3.2.2-.2.6,0,.6-.5h0ZM25.1,26.1l-.3-.3c0-.2-.2-.2-.2-.3-.2-.3-.5-.3-.8-.2.5.3.8.5,1.3.8h0ZM42.8,21.5l-.3.3h.2v.2c.5-.3,1-.6,1.6-.8h0l-1.4.5c-.2,0,0-.2,0-.2h0ZM66.9,24.7c.3,0,.9-.5.8-.6-.4,0-.6.3-.8.6ZM13.3,18.2c-.2-.2-.3,0-.5,0v.2h0c.2,0,.3-.2.5-.2ZM62.2,26.2c-.5-.2-.9-.2-1.3-.3.4.3.8.4,1.3.3h0ZM12.8,17.4c-.2-.2-.3,0-.5.3.2-.2.3-.2.5-.3h0ZM63,25.1c.3,0,.5,0,.8-.2v-.2c-.2.3-.5.2-.8.3h0ZM27.9,26.9h0c-.3-.2-.6-.2-.8-.3h0c.2.2.5.2.8.3ZM30.3,26.9h0c-.1-.1-.3-.2-.5-.2v.2h.5ZM50.9,21.5h0c-.2-.2-.3-.2-.6-.3h0c.2.2.5.2.6.3Z"/>
        <path id="Pfad_23" class="st0" d="M40.5,22.6c-.4.2-.7.4-.9.6h0c.2-.2.3-.3.5-.3h-.3c.2-.3.5-.5.8-.6-.2-.2,0-.2,0-.3.1-.2.4-.3.6-.3s.2,0,.2-.2h0c-.3.1-.6.3-.8.5-.3.2-.5.3-.8.5l-.9.5c-.6.3-1.1.5-1.7.8-.3.2-.8.2-1.1.3s-.6.2-.9.3c-.4.3-.8.4-1.3.3-.5,0-.8.2-1.3.2-.4,0-.8,0-1.1.2-.2,0-.5.2-.6.2s-.3.2-.3,0h-1.3c0,0-.2,0-.2.2s0,.2.2.2c.1.1.3.2.5.2.5,0,.9.2,1.3,0h1.3c0,0-.2,0-.2.2h0c0,.2-.2.2-.2.3-.2,0-.2.2-.3.2s-.3,0-.5.3h-1.1c-.2,0-.2-.2-.3-.2.2-.2.5,0,.8-.2-.5-.1-1-.2-1.6-.2,0,.2,0,.3-.3.3,0,0,0,.2.1.2h-.5c0,0,.2,0,.2.2h0c-.3.2-.6,0-.8,0-.6-.1-1.2-.3-1.7-.6-.2,0-.2-.2-.3-.2s-.2-.2-.3.2l-.2-.2h0c-.2,0-.3,0-.3-.2s-.3-.2-.5-.3h-.2c-.2,0-.3-.2-.2-.2-.2-.2-.3-.2-.5-.3h0l.2.2h0c-.9-.5-1.9-1.1-2.8-1.6h.2l-.2-.2c-.3-.3-.8-.5-1.1-.8h-.2v.2c-.3-.3-.6-.5-.8-.8h0c-.2.2-.3,0-.3-.2l-.2-.2c-.3-.2-.6-.5-.9-.6-.2,0-.3-.2-.5-.3s-.5-.2-.6-.3c-.4-.2-.8-.2-1.1,0-.3.2-.6.2-.9.3l.2-.2c0,0-.2,0-.2-.2h0c.2,0,.2-.2.3-.2v-.2c-.1,0-.2,0-.3.2h-.5c.2-.2.3-.5.6-.5l.2-.2h-.3l-.2.2c.2-.2.3-.5.5-.6-.2,0-.5.2-.5-.2.3,0,.5-.2.6-.5.1-.1.2-.3.2-.5,0-.3-.3-.3-.5-.3l.3-.3c.2,0,.2-.2.3-.3-.1-.2-.3-.3-.5-.2-.2,0-.2.2-.3.2l.2-.2c-.1-.1-.2-.1-.3,0l.2-.2c.2-.2.3-.2.2-.5v-.2l.5-.5c.2-.2.2-.3-.2-.3l.9-.5h-.3c.2-.2.8,0,.9.2,0,0-.2,0-.2.2h0c.2,0,.4,0,.6.2.2,0,.5.2.6.3h0c.2,0,.4,0,.5.2,0,0,.2.1.3.2.2,0,.3.2.5.2.4.2.7.4.9.6.6.5,1.1.8,1.7,1.3.1.1.3.2.5.2h0c-.2-.2-.3-.2-.5-.3h0c.2.2.3.2.5.3.5.3,1.1.8,1.6,1.1.9.6,1.9,1.2,2.8,1.7.5.3,1,.5,1.6.6.1,0,.2,0,.3.2h-.2c.3.2.6.2.9.3.7.1,1.4.2,2,.2.4,0,.8,0,1.1-.2.5-.2,1-.3,1.6-.3.4-.2.8-.3,1.3-.3l1.4-.5c.2,0,.3-.2.5-.3.3-.2.8-.5,1.1-.6s.5-.5.8-.6c.2-.2.5-.2.6-.3h.6c.3-.3.7-.6,1.1-.8,1.3-.9,2.7-1.6,4.2-2,.5-.2,1.1-.3,1.7-.5h.9c.7,0,1.4,0,2,.2.6.2,1.1.2,1.7.3-.2,0-.3-.2-.5-.2h0c.2,0,.4,0,.5.2.6.1,1.2.3,1.7.6.4.2.9.5,1.3.8.2.2.5.3.6.5.5.3.8.5,1.3.8,1.1.8,2,1.6,3.1,2.4,1.4,1.1,3.3,1.4,5,.8,1-.3,1.9-.8,2.8-1.4.5-.3,1.1-.6,1.6-.9.1-.2.4-.3.6-.3.8-.4,1.6-.7,2.5-.9.8-.2,1.6-.4,2.4-.5h.8c-.2,0-.4,0-.5-.2.5,0,1.1,0,1.6.2.4.1.8.3,1.1.5.2.2.3.2.5.3.2.2.5.3.8.5.2,0,.5.1.6.3.3.2.5.2.8.3.2.2.5.2.6.3.3.2.3.5.5.8,0,.3,0,.6-.3.8-.5-.2-.8-.5-1.3-.5s-.6.2-1.1.2v.2l1.4.5h.5c.2,0,.3.2.3.3,0,.2.2.2.3.2h0c0,0,0-.2-.1-.2h.2c0,.2,0,.3-.3.3s-.2.2-.3.2c-.2,0-.4,0-.6-.2-.2,0-.3-.2-.5-.2.3.3.6.2.9.5-.2,0-.4,0-.6-.2h0c.2,0,.3.2.5.3-.4,0-.9,0-1.3-.2,0,.2.2.2.2.3-1.6-.5-3.2-.7-4.9-.6.1,0,.2,0,.3-.2h.3c-.4,0-.8.2-1.1.3l.2-.2h0c-.2,0-.3.2-.6.2s-.5.2-.6,0c-.2,0-.2.2-.3.2s-.2.2-.3.2h0c.2-.2.3-.2.5-.3h-.3c-.2,0-.2.2-.3.2h0l.3-.3h-.3c-.3.1-.6.3-.8.5-.3.5-.9.6-1.3.9-.2.2-.3.2-.5.3v-.2h0l-.9.5h.2l-1.4.9v-.2h.2v-.2c-.5.3-1.1.5-1.6.8h0c.5-.2.8-.5,1.3-.6h-.3c-.3.2-.5.3-.6.3h-.3c-.2,0-.3-.2-.5-.2v-.2h-.8c-.3-.2-.5,0-.6,0h-.2v.2c.2,0,.4,0,.6.2,0,0-.2,0-.2.2h0c-.2,0-.3-.2-.6-.2,0,0,0-.2-.1-.2h0c0,0-.2,0-.2-.2h0v.2c-.2.2-.3.2-.6.2-.7,0-1.4-.2-2-.5h-.3c.5.5,1.1.9,1.7,1.1.7.2,1.4.3,2,.2-.2,0-.3.2-.5.2h.9c-.2,0-.4,0-.5.2-.2.2-.3,0-.5,0-.3,0-.5-.2-.8-.2h-.6c-.2.2-.3.2-.3,0-.3-.3-.8-.3-1.1-.6-.2-.2-.5-.2-.6-.3h0c.2.2.5.3.6.5-.2.2-.3-.3-.5-.2.2.2.3.5.5.6h0c-.3-.2-.5-.3-.8-.5v.5h0l-.3-.3c-.2-.2-.3-.3-.3-.5-.3-.3-.8-.5-1.1-.8-.2-.2-.3-.2-.5-.3-.5-.3-.8-.5-1.3-.8-.3-.1-.6-.3-.8-.6-.6-.5-1.3-.8-2-1.1-.5,0-1-.4-1.4-.8-.3-.2-.6-.3-.9-.3h0c.2,0,.3,0,.3.2h.2v-.2c-.1,0-.2,0-.3-.2-.5-.3-1.1-.4-1.7-.3-.1,0-.2.1-.2.3h-.3c0,.3-.2.5-.5.3h-.9c0,0,.2,0,.2-.2h-.8c-.4,0-.8.1-1.1.3-.2,0-.2.2-.3.3s-.2.2-.3,0h-.2c-.5.3-1.1.5-1.6.8-.1,0-.2,0-.3.2l.2-.2h0c-.1,0-.2,0-.3.2.2-.2.2-.3.3-.5h0c.2-.2.3-.5.6-.6-.6.2-.9.8-1.4,1.3,0,0,.2,0,.2.2h0l-.3.3h0c0,0,.2,0,.2-.2h0c.2-.2.3-.2.5-.3-.5.3-.6.8-1.3,1.1v-.3c-1.3-1.3-1.4-1.3-1.6-1.3l.2-.2h0c-.2.2-.3.2-.5.3h0c.2,0,.3,0,.3-.2h-.1ZM34.7,20.7c0,0,0,.2-.1.2h0c.2,0,.3,0,.2-.2.3,0,.6-.1.8-.3.3-.1.6-.3.8-.5,0,0,0-.2.1-.2h-.2c0,0-.2,0-.2.2h0c-.2.2-.4.3-.6.3-.2.2-.5.4-.8.5-.2-.2-.5,0-.6.2h0c.2,0,.4,0,.6-.2h0ZM41.9,17.3c.6-.1,1.2-.5,1.6-.9-.3.2-.5.2-.8.3-.2-.3-.3,0-.5,0,0-.2-.2-.2-.2,0-.6.3-1.1.6-1.7.9-.2.2-.5.2-.8.3-.4.2-.8.4-1.1.6-.2,0-.2.2-.3.2h.3c-.3.4-.7.8-1.1,1.1h0c.1,0,.2,0,.3-.2-.5.5-.8.6-.9.5.2-.2.3-.2.5-.3-.6.2-1.1.5-1.4.9h.2c-.1.1-.2.2-.2.3,0,.1-.2.2,0,.2,0,0,0,.2,0,.3h0c0,.1,0,.2-.2.3.4,0,.8-.2,1.1-.5.4-.3.9-.6,1.4-.8.1-.1.3-.2.5-.2.2-.2.5-.3.6-.5l.5-.5h0c-.4.2-.7.4-.9.6.3-.6.8-.8,1.3-1.1,0,.1,0,.2-.2.3h0l.2-.2v.2c.2,0,.3-.2.3-.3,0-.2.2-.2.2-.3.2-.2.3-.3.5-.3h0c-.2,0-.2.2-.3.2,0,0,0-.2-.1-.2h0c-.3.2-.6.4-.8.6-.1.3-.5.5-.8.5.1-.2.4-.3.6-.3h0c-.1,0-.2,0-.3.2h0c.3-.2.6-.5.9-.6v-.2c-.2.2-.3.2-.6.3v-.2c.3-.2.5-.5.8-.6.5-.1.9-.4,1.3-.8h.2c.3-.2.2,0,.2,0h0ZM24.6,24.2h-.3c-.5-.1-1-.3-1.4-.6-.7-.4-1.4-.8-2-1.3h-.2c-.2.2-.2,0-.3,0s-.2-.2-.3-.2h0c0,0,0,.2.1.2h0c.8.5,1.4.9,2.2,1.4,1.4.8,2.9,1.4,4.4,1.9h.3c-.2-.3-.6-.3-.9-.5h.3l-.3-.3c-.5-.2-.9-.5-1.4-.6,0,0-.2,0-.2-.2h0l-.3-.3h0c.2.3.3.3.3.5h0ZM27.4,22.3h0c.1.1.2.2.3.2h.8c.3.2.6.2.9,0,.3,0,.6-.2.8,0h.2c.2,0,.5-.2.6-.2h0c.1-.2.4-.3.6-.3-1.6.2-2.8.2-4.2.3h0ZM66.6,23.1c-.2.1-.4.2-.6.2-.3.2-.7.3-1.1.3-.5,0-.8.2-1.3.2v.2h.3c.1.1.3.2.5.2.4-.1.9-.3,1.3-.5.5,0,.8,0,.9-.5h0ZM33.6,21.2h0c-.5,0-1,0-1.4.3h.3c-.2.2-.5,0-.3.3.3-.2.8-.2,1.1-.3-.1,0-.2,0-.2-.2.2,0,.4,0,.5-.2h0ZM28.2,22c.3.2,2.4.3,2.7,0-.9,0-1.8,0-2.7,0ZM29,21.7c-.5-.3-1.1-.4-1.7-.3.5.2,1.1.3,1.7.3h0ZM44.4,19.6c-.5,0-.9.3-1.3.6.4-.2.9-.4,1.3-.6h0ZM26.3,25.4c.3.3.6.5.9.3-.3,0-.7,0-.9-.3h0ZM14.2,19c.1-.1.2-.2.3-.2-.2,0-.2-.2-.3-.2s-.2,0-.2.2h0c0,0,.2,0,.2.2h0ZM33.7,21.4c.3,0,.8-.2.8-.3-.3,0-.6.1-.8.3h0ZM17.9,15.5h0c.2.3.5.5.6.6v-.2c-.2-.2-.4-.3-.6-.5h0ZM63.4,23.9c-.3-.2-.5,0-.8,0h0c.3.2.6,0,.8,0h0ZM26.5,21.2h0c-.1-.2-.4-.3-.6-.3v.2c.2,0,.4,0,.6.2h0ZM43.8,16.3c0,0,.2,0,.3,0h0v-.2c-.1,0-.2,0-.3.2ZM22.9,24h0c-.2-.2-.3-.3-.5-.3h0c0,.2.2.3.5.3h0ZM61.5,24.3c-.2,0-.3-.2-.5,0v.2c.1-.1.3-.2.5-.2h0ZM31.2,21.8h0c-.2-.2-.3,0-.5,0v.2c.1-.1.3-.2.5-.2h0ZM21,22.9h0c0,.2.1.3.3.3h0c-.2-.2-.2-.3-.3-.3h0Z"/>
        <path id="Pfad_24" class="st0" d="M36.2,24.2c-.2.2-.5.3-.6.5h-.2c-.2.2-.5.2-.8.3h.2c-.3.3-.8.3-1.1.5v-.2c-.2-.2-.5.2-.8-.2h.2c.2,0,.4,0,.6-.2.2-.2.5-.2.8-.3h.2c.2,0,.4,0,.6-.2.3-.2.6-.2.9-.3h0Z"/>
        <path id="Pfad_25" class="st0" d="M55.1,23.2c.2,0,.2.2.3.2.3.2.5.5.8.6s.5.6.8.8c.2,0,.2.3,0,.3l-.2.2c-.2-.3-.6-.5-.8-.8,0,0,0-.2-.1-.2h0c-.2-.2-.5-.3-.6-.5,0-.3,0-.5-.2-.6h0Z"/>
        <path id="Pfad_26" class="st0" d="M70.2,22.5c0,.5-.3.3-.5.5.2,0,.2-.2.3-.2h0c-.4.4-.9.7-1.4.9.2-.6.9-.8,1.6-1.3h0Z"/>
        <path id="Pfad_27" class="st0" d="M25.1,26.1c-.4-.3-.8-.5-1.3-.6.3-.2.6-.2.8.2,0,.2.2.2.2.3.2,0,.3,0,.3.2Z"/>
        <path id="Pfad_28" class="st0" d="M42.8,21.5v.2l1.4-.5h0c-.5.3-1.1.5-1.6.8v-.2h-.2c0-.2.1-.3.3-.3h0Z"/>
        <path id="Pfad_29" class="st0" d="M66.9,24.7c.2-.3.5-.5.8-.6,0,.2-.5.5-.8.6Z"/>
        <path id="Pfad_30" class="st0" d="M13.3,18.2c-.2.2-.3.2-.5.3h0v-.2c0-.3.3-.3.5-.2h0Z"/>
        <path id="Pfad_31" class="st0" d="M62.2,26.2c-.4,0-.9,0-1.3-.3.4.2.8.3,1.3.3Z"/>
        <path id="Pfad_32" class="st0" d="M12.8,17.4c-.2.2-.3.3-.5.3.2-.3.3-.5.5-.3Z"/>
        <path id="Pfad_33" class="st0" d="M63,25.1c.3-.2.6,0,.8-.3v.2c-.2.1-.5.2-.8.2h0Z"/>
        <path id="Pfad_34" class="st0" d="M27.9,26.9c-.3,0-.5,0-.8-.2h0c.2-.2.5,0,.8.2Z"/>
        <path id="Pfad_35" class="st0" d="M30.3,26.9h-.5v-.2c.2,0,.4,0,.5.2Z"/>
        <path id="Pfad_36" class="st0" d="M40.5,22.6c-.1,0-.2,0-.3.2h0c.2-.2.3-.2.5-.3h0c0,.1,0,.2-.2.2h0Z"/>
        <path id="Pfad_37" class="st0" d="M50.9,21.5c-.2-.2-.5-.2-.6-.3h0c.2,0,.5.2.6.3Z"/>
        <path id="Pfad_38" class="st0" d="M41.9,17.3c0,0,0-.2.1-.2h-.2c-.4.3-.8.6-1.3.8-.3.1-.6.3-.8.6v.2c.2-.2.3-.2.6-.3v.2c-.3.2-.6.5-.9.6h0c.1,0,.2,0,.3-.2h0c-.2.2-.3.2-.6.3.3,0,.6-.2.8-.5.2-.2.5-.3.8-.6,0,.1,0,.2.2.2.2,0,.2-.2.3-.2h0c-.2.2-.3.2-.5.3s-.2.2-.2.3c0,.2-.1.3-.3.3v-.2l-.2.2h0c0-.1,0-.2.2-.3-.5.3-.9.7-1.3,1.1.4-.2.7-.4.9-.6h0l-.5.5c-.2.2-.5.3-.6.5-.1.1-.3.2-.5.2-.5.3-.9.5-1.4.8-.3.2-.7.4-1.1.5,0-.1,0-.2.2-.3,0-.2.2-.2,0-.3v-.2c0-.2.2-.2.2-.3h-.2c.3-.5.8-.8,1.4-.9,0,.2-.3.2-.5.3.2.2.5,0,.9-.5-.2,0-.2.2-.3.2h0c.4-.3.8-.7,1.1-1.1h-.3c.2,0,.2-.2.3-.2.4-.2.7-.4,1.1-.6.2-.2.5-.2.8-.3.6-.3,1.1-.6,1.7-.9.2,0,.2-.2.2,0,.2,0,.3-.3.5,0,.3-.2.5-.2.8-.3-.5.5-1.2.9-1.9,1.1h0Z"/>
        <path id="Pfad_39" class="st0" d="M24.6,24.2c0,0,0-.2-.1-.2h0l.3.3c0,0,0,.2.1.2h0c.5.2.9.5,1.4.6.2,0,.3.2.3.3h-.3c.3.2.6.2.9.5h-.3c-1.5-.5-3-1.2-4.4-1.9-.8-.5-1.4-.9-2.2-1.4,0,0-.2,0-.2-.2h0c.2,0,.2.2.3.2s.2.2.3,0h.2c.7.4,1.3.9,2,1.3.4.3.9.5,1.4.6,0-.2,0-.3.2-.3h0Z"/>
        <path id="Pfad_40" class="st0" d="M27.4,22.3c1.4,0,2.7-.2,4.1-.2-.2.2-.4.3-.6.3h0c-.2,0-.3.2-.6.2h-.2c-.2-.2-.6-.2-.8,0h-.9c-.2-.2-.5,0-.8,0,0-.2,0-.3-.2-.3h0Z"/>
        <path id="Pfad_41" class="st0" d="M42.1,21.7c-.2.2-.3.2-.5.3,0,0-.2,0-.2.2h0c0-.2.2-.2.3-.3,0,0-.2,0-.2-.2h0c.5-.5.8-1.1,1.4-1.3-.1.3-.4.5-.6.6h0c-.3.3-.3.5-.3.6,0-.1,0-.2.2-.2h0l-.2.2h0Z"/>
        <path id="Pfad_42" class="st0" d="M66.6,23.1c-.2.3-.5.3-.8.5-.4.1-.9.3-1.3.5-.2,0-.3.2-.5-.2h-.3v-.2c.5,0,.8-.2,1.3-.2s.8-.1,1.1-.3c.2,0,.4,0,.5-.2h0Z"/>
        <path id="Pfad_43" class="st0" d="M33.6,21.2c-.2.2-.3.2-.5.3,0,0,.2,0,.2.2h0c-.3.2-.7.4-1.1.3-.2-.3.2-.2.3-.3h-.3c.3-.5.8-.5,1.4-.5h0Z"/>
        <path id="Pfad_44" class="st0" d="M28.2,22h2.7c-.9.2-1.8.2-2.7,0Z"/>
        <path id="Pfad_45" class="st0" d="M34.7,20.7c.3-.2.5-.3.8-.3.2-.2.4-.3.6-.3,0,0,.2,0,.2-.2h.2c0,0,0,.2-.1.2h0c-.3.1-.6.3-.8.5-.2,0-.5.1-.8.2.2.2,0,.2-.2.2,0,0,.2,0,.2-.2h0Z"/>
        <path id="Pfad_46" class="st0" d="M29,21.7c-.6,0-1.2,0-1.7-.3.6,0,1.2,0,1.7.3Z"/>
        <path id="Pfad_47" class="st0" d="M44.4,19.6c-.4.3-.8.5-1.3.6.4-.3.8-.6,1.3-.6Z"/>
        <path id="Pfad_48" class="st0" d="M26.3,25.4c.3.2.6.2.9.3-.4.2-.8,0-.9-.3Z"/>
        <path id="Pfad_49" class="st0" d="M14.2,19c0-.2-.2-.2-.2-.3l.2-.2c.2,0,.2.2.3.2l-.3.3Z"/>
        <path id="Pfad_50" class="st0" d="M33.7,21.4c.3-.2.5-.2.8-.3,0,.2-.6.3-.8.3Z"/>
        <path id="Pfad_51" class="st0" d="M17.9,15.5c.3.2.5.3.8.5v.2c-.3-.2-.6-.4-.8-.6h0Z"/>
        <path id="Pfad_52" class="st0" d="M34.7,20.7c-.2.2-.5.2-.6.3h0c.1-.2.4-.3.6-.3Z"/>
        <path id="Pfad_53" class="st0" d="M63.4,23.9h-.8c.3,0,.6-.2.8,0Z"/>
        <path id="Pfad_54" class="st0" d="M26.5,21.2c-.2-.2-.5-.2-.6-.3v-.2c.3.2.5.2.6.5Z"/>
        <path id="Pfad_55" class="st0" d="M43.8,16.3h0c0,0,.2-.2.3-.2v.2c0,0-.2,0-.3,0h0Z"/>
        <path id="Pfad_56" class="st0" d="M22.9,24c-.2-.2-.3-.2-.5-.3h0c.2.2.3.2.5.3Z"/>
        <path id="Pfad_57" class="st0" d="M61.5,24.3h-.5v-.2c.2,0,.3.2.5.2Z"/>
        <path id="Pfad_58" class="st0" d="M31.2,21.8h-.5v-.2c.2,0,.4,0,.5.2Z"/>
        <path id="Pfad_59" class="st0" d="M21,22.9l.3.3h0c-.2-.2-.3-.2-.3-.3Z"/>
      </g>
    </g>
    <g id="Gruppe_3">
      <path id="Pfad_60" class="st0" d="M52.1-6.1c.2,0,.5,0,.5.2,0,0-.2.1-.3.2.2-.2-.2-.2-.2-.3h0ZM53.5-6.4l-.2-.2c-.2,0,0,.2.2.2h0Z"/>
    </g>
    <g id="Gruppe_4">
      <path id="Pfad_63" class="st0" d="M32.1-5.2v.2h0v-.2ZM32.5-4.6c.2,0,.2.2,0,0ZM33.3-5.2h0ZM33.8-5.5c-.2,0-.2.2,0,0ZM33.8-5.7c0,.2.2.2,0,0l.2.2c.2,0,0-.2-.2-.2Z"/>
    </g>
  </g>
  <g id="Ebene_12" data-name="Ebene_1">
    <g id="NjDdfZ1" data-name="NjDdfZ">
      <g id="Gruppe_21" data-name="Gruppe_2">
        <path id="Pfad_221" data-name="Pfad_22" class="st0" d="M41.5,42.1h0c0,0,.2,0,.2-.2h0c.5-.3,1-.6,1.6-.8h.2c.2.2.2,0,.3,0l.3-.3c.3-.2.7-.3,1.1-.3h.8c0,0-.2,0-.2.2h.9c.3,0,.5,0,.5-.3h.3c0-.2,0-.3.2-.3.6,0,1.2.1,1.7.3.1,0,.2,0,.3.2v.2h-.2c-.2,0-.3,0-.3-.2h0c.3.2.6.2.9.3.4.3.9.6,1.4.8.7.3,1.4.6,2,1.1.3.1.6.3.8.6.5.3.8.5,1.3.8.2.2.3.2.5.3.3.3.8.5,1.1.8.2.2.3.3.3.5l.3.3h0v-.5c.3.2.5.3.8.5h0c-.2-.2-.3-.5-.5-.6.2-.2.3.2.5.2-.2-.2-.5-.3-.6-.5h0c.2.2.5.2.6.3.3.3.8.3,1.1.6,0,0,.2,0,.3,0h.6c.3,0,.5.2.8.2h.5c.1-.1.3-.2.5-.2h-.9c.2,0,.3-.2.5-.2-.7,0-1.4,0-2-.2-.7-.2-1.3-.5-1.7-1.1h.3c.7.2,1.3.4,2,.5.3,0,.5,0,.6-.2v-.2c0,0,.2,0,.2.2h0c0,0,0,.2.1.2h0c.2,0,.5.2.6.2s.2,0,.2-.2h0c-.2,0-.4,0-.6-.2v-.2h.2c.2,0,.5-.2.6,0s.5,0,.8,0h0v.2c.2,0,.3.2.5.2h.3c.3-.2.5-.2.6-.3h.3c-.5.2-.8.5-1.3.6h0c.5-.3,1.1-.5,1.6-.8v.2h-.2v.2l1.4-.9h-.2l.9-.5h0v.2c.2-.2.3-.2.5-.3.5-.2.9-.5,1.3-.9.2-.2.5-.3.8-.5h.3l-.3.3h0c.2,0,.2-.2.3-.2h.3c-.2.2-.3.2-.5.3h0c.2,0,.2-.2.3-.2s.2-.2.3-.2h.6c.2,0,.3-.2.6-.2h0l-.2.2c.3,0,.6-.3,1.1-.3h-.3c-.1,0-.2,0-.3.2,1.6-.1,3.3,0,4.9.6,0-.2-.2-.2-.2-.3.4,0,.9,0,1.3.2-.2-.2-.3-.2-.5-.3h0c.2,0,.4,0,.6.2-.3-.2-.6-.2-.9-.5.2,0,.4,0,.5.2.2,0,.3.2.6.2s.2-.2.3-.2c.3,0,.2-.2.3-.3h-.2c0,0,0,.2.1.2h0c-.1,0-.2,0-.3-.2,0-.2-.2-.2-.3-.3s-.3,0-.5,0l-1.4-.5v-.2c.3,0,.6-.2,1.1-.2s.8.3,1.3.5c.2-.2.3-.5.3-.8s-.2-.6-.5-.8c-.2-.2-.4-.3-.6-.3-.3-.2-.5-.2-.8-.3-.2-.2-.4-.3-.6-.3-.3,0-.5-.2-.8-.5-.2-.2-.3-.3-.5-.3-.3-.2-.8-.3-1.1-.5-.5-.1-1-.2-1.6-.2.2,0,.4,0,.5.2h-.8c-.8,0-1.6.2-2.4.5-.9.2-1.7.6-2.5.9-.1.2-.4.3-.6.3-.5.3-1.1.6-1.6.9-.9.6-1.8,1-2.8,1.4-1.7.5-3.5.2-5-.8-1.1-.8-2-1.6-3.1-2.4-.4-.3-.8-.6-1.3-.8-.2-.2-.5-.2-.6-.5-.4-.3-.8-.6-1.3-.8-.5-.3-1.1-.5-1.7-.6-.2,0-.4,0-.5-.2h0c.2,0,.3.2.5.2-.6-.2-1.3-.2-1.7-.3-.7-.1-1.4-.2-2-.2h-.9c-.6.2-1.1.3-1.7.5-1.5.4-2.9,1.1-4.2,2-.3.3-.7.6-1.1.8h-.6c-.2.2-.5.2-.6.3-.3.2-.5.5-.8.6s-.8.5-1.1.6c-.2.2-.3.2-.5.3l-1.4.5c-.4.2-.8.3-1.3.3-.5.2-1.1.2-1.6.3-.4.1-.7.2-1.1.2-.6,0-1.4-.2-2-.2-.3,0-.7-.1-.9-.3h.2c-.2,0-.2-.2-.3-.2-.6-.1-1.1-.3-1.6-.6-1-.5-1.9-1.1-2.8-1.7-.6-.3-1.1-.7-1.6-1.1-.2-.2-.3-.2-.5-.3h0c.2.2.3.2.5.3h0c-.2,0-.3-.2-.5-.2-.6-.4-1.2-.8-1.7-1.3-.3-.2-.6-.5-.9-.6-.1-.1-.3-.2-.5-.2-.1,0-.2,0-.3-.2-.2-.2-.2-.3-.5-.2h0c-.3-.2-.5-.2-.6-.3-.2,0-.4,0-.6-.2h0c0,0,.2,0,.2-.2h0c-.2-.2-.8-.2-.9-.2h.3l-.9.5c.1.1.2.2.2.3l-.5.5v.2c.2.2,0,.3-.2.5l-.2.2h.3l-.2.2c.1,0,.2,0,.3-.2.2-.1.4,0,.5.2-.2,0-.2.2-.3.3-.2,0-.2.2-.3.3.2,0,.3,0,.5.3,0,.2,0,.3-.2.5-.2.3-.3.5-.6.5,0,.3.3.2.5.2-.2.2-.4.4-.5.6,0,0,.2,0,.2-.2h.3l-.2.2c-.2.1-.4.3-.6.5h.5c.1,0,.2,0,.3-.2v.2c-.2,0-.2.2-.3.2,0,0,.2,0,.2.2h0l-.2.2c.3-.2.6-.2.9-.3.4-.2.8-.2,1.1,0,.2.2.5.2.6.3s.3.3.5.3c.4.2.7.4.9.6l.2.2c0,.2.2.3.3.2h0c.3.3.6.5.8.8v-.2h.2c.3.3.8.5,1.1.8l.2.2h-.2c.9.5,1.9,1.1,2.8,1.6h0l-.2-.2h0c.2.2.3.2.5.3,0,.1,0,.2.2.2h.2c.2.2.5.2.5.3s.2.2.3.2h0l.2.2c0-.2.2-.2.3-.2s.2.2.3.2c.6.1,1.2.3,1.7.6.3,0,.5.2.8,0l-.2-.2h.5c0,0,0-.2-.1-.2h0c.2,0,.3-.2.3-.3.5.2,1.1,0,1.6.2-.2.2-.5,0-.8.2.2,0,.2.2.3.2h1.1c.2-.2.3-.2.5-.3.2,0,.2-.2.3-.2,0,0,.1-.2.2-.3h0c0,0,.2,0,.2-.2h-1.3c-.4,0-.8,0-1.3,0-.2,0-.4,0-.5-.2,0,0,0-.2-.1-.2h0l.2-.2h1.3c.2.3.3.2.3,0,.2,0,.5-.2.6-.2.3,0,.8-.2,1.1-.2.5,0,.8-.2,1.3-.2.4,0,.9-.1,1.3-.3.2-.2.6-.4.9-.3.3-.2.8-.2,1.1-.3.6-.2,1.2-.5,1.7-.8l.9-.5c.3-.2.5-.3.8-.5s.5-.3.8-.5h0l-.2.2c-.1.2-.4.3-.6.3s-.2.2,0,.3c-.2.2-.5.5-.8.6h.3c-.2.2-.3.3-.5.3h0c.4-.2.7-.4.9-.6h0c.2,0,.2-.2.3-.2v.3c2.1,1.1,2.4.5,2.8.2h0ZM35.7,44.6h0c-.3,0-.5,0-.8.2-.2,0-.4,0-.6.2h-.2c-.2.2-.5.2-.8.3-.2,0-.5.2-.6.2h-.2c.3.3.6-.2.8.2v.2c.4,0,.8-.2,1.1-.5h-.2c.2-.3.6-.2.8-.3h.2c.2,0,.3-.2.5-.3h0ZM54.5,43.7h0c0,.2.1.3.3.3.2.2.5.3.6.5l.2.2c.1.4.4.7.8.8l.2-.2c.2,0,.2-.3,0-.3-.3-.2-.5-.6-.8-.8-.3-.2-.6-.4-.8-.6-.3.3-.3.2-.5.2h0ZM69.6,42.9c-.6.5-1.4.6-1.7,1.3.6-.2.9-.6,1.4-.9h0c-.2,0-.2.2-.3.2.2-.2.6,0,.6-.5h0ZM24.5,46.5l-.3-.3c0-.2-.2-.2-.2-.3-.2-.3-.5-.3-.8-.2.5.3.8.5,1.3.8h0ZM42.3,41.9l-.3.3h.2v.2c.5-.3,1-.6,1.6-.8h0l-1.4.5c-.2,0,0-.2,0-.2h0ZM66.3,45.1c.3,0,.9-.5.8-.6-.4,0-.6.3-.8.6ZM12.7,38.6c-.2-.2-.3,0-.5,0v.2h0c.2,0,.3-.2.5-.2ZM61.6,46.6c-.5-.2-.9-.2-1.3-.3.4.3.8.4,1.3.3h0ZM12.3,37.8c-.2-.2-.3,0-.5.3.2-.2.3-.2.5-.3h0ZM62.4,45.5c.3,0,.5,0,.8-.2v-.2c-.2.3-.5.2-.8.3h0ZM27.4,47.3h0c-.3-.2-.6-.2-.8-.3h0c.2.2.5.2.8.3ZM29.7,47.3h0c-.1-.1-.3-.2-.5-.2v.2h.5ZM50.3,41.9h0c-.2-.2-.3-.2-.6-.3h0c.2.2.5.2.6.3Z"/>
        <path id="Pfad_231" data-name="Pfad_23" class="st0" d="M39.9,43c-.4.2-.7.4-.9.6h0c.2-.2.3-.3.5-.3h-.3c.2-.3.5-.5.8-.6-.2-.2,0-.2,0-.3.1-.2.4-.3.6-.3s.2,0,.2-.2h0c-.3.1-.6.3-.8.5-.3.2-.5.3-.8.5l-.9.5c-.6.3-1.1.5-1.7.8-.3.2-.8.2-1.1.3s-.6.2-.9.3c-.4.3-.8.4-1.3.3-.5,0-.8.2-1.3.2-.4,0-.8,0-1.1.2-.2,0-.5.2-.6.2s-.3.2-.3,0h-1.3c0,0-.2,0-.2.2s0,.2.2.2c.1.1.3.2.5.2.5,0,.9.2,1.3,0h1.3c0,0-.2,0-.2.2h0c0,.2-.2.2-.2.3-.2,0-.2.2-.3.2s-.3,0-.5.3h-1.1c-.2,0-.2-.2-.3-.2.2-.2.5,0,.8-.2-.5-.1-1-.2-1.6-.2,0,.2,0,.3-.3.3,0,0,0,.2.1.2h-.5c0,0,.2,0,.2.2h0c-.3.2-.6,0-.8,0-.6-.1-1.2-.3-1.7-.6-.2,0-.2-.2-.3-.2s-.2-.2-.3.2l-.2-.2h0c-.2,0-.3,0-.3-.2s-.3-.2-.5-.3h-.2c-.2,0-.3-.2-.2-.2-.2-.2-.3-.2-.5-.3h0l.2.2h0c-.9-.5-1.9-1.1-2.8-1.6h.2l-.2-.2c-.3-.3-.8-.5-1.1-.8h-.2v.2c-.3-.3-.6-.5-.8-.8h0c-.2.2-.3,0-.3-.2l-.2-.2c-.3-.2-.6-.5-.9-.6-.2,0-.3-.2-.5-.3s-.5-.2-.6-.3c-.4-.2-.8-.2-1.1,0-.3.2-.6.2-.9.3l.2-.2c0,0-.2,0-.2-.2h0c.2,0,.2-.2.3-.2v-.2c-.1,0-.2,0-.3.2h-.5c.2-.2.3-.5.6-.5l.2-.2h-.3l-.2.2c.2-.2.3-.5.5-.6-.2,0-.5.2-.5-.2.3,0,.5-.2.6-.5.1-.1.2-.3.2-.5,0-.3-.3-.3-.5-.3l.3-.3c.2,0,.2-.2.3-.3-.1-.2-.3-.3-.5-.2-.2,0-.2.2-.3.2l.2-.2c-.1-.1-.2-.1-.3,0l.2-.2c.2-.2.3-.2.2-.5v-.2l.5-.5c.2-.2.2-.3-.2-.3l.9-.5h-.3c.2-.2.8,0,.9.2,0,0-.2,0-.2.2h0c.2,0,.4,0,.6.2.2,0,.5.2.6.3h0c.2,0,.4,0,.5.2,0,0,.2.1.3.2.2,0,.3.2.5.2.4.2.7.4.9.6.6.5,1.1.8,1.7,1.3.1.1.3.2.5.2h0c-.2-.2-.3-.2-.5-.3h0c.2.2.3.2.5.3.5.3,1.1.8,1.6,1.1.9.6,1.9,1.2,2.8,1.7.5.3,1,.5,1.6.6.1,0,.2,0,.3.2h-.2c.3.2.6.2.9.3.7.1,1.4.2,2,.2.4,0,.8,0,1.1-.2.5-.2,1-.3,1.6-.3.4-.2.8-.3,1.3-.3l1.4-.5c.2,0,.3-.2.5-.3.3-.2.8-.5,1.1-.6s.5-.5.8-.6c.2-.2.5-.2.6-.3h.6c.3-.3.7-.6,1.1-.8,1.3-.9,2.7-1.6,4.2-2,.5-.2,1.1-.3,1.7-.5h.9c.7,0,1.4,0,2,.2.6.2,1.1.2,1.7.3-.2,0-.3-.2-.5-.2h0c.2,0,.4,0,.5.2.6.1,1.2.3,1.7.6.4.2.9.5,1.3.8.2.2.5.3.6.5.5.3.8.5,1.3.8,1.1.8,2,1.6,3.1,2.4,1.4,1.1,3.3,1.4,5,.8,1-.3,1.9-.8,2.8-1.4.5-.3,1.1-.6,1.6-.9.1-.2.4-.3.6-.3.8-.4,1.6-.7,2.5-.9.8-.2,1.6-.4,2.4-.5h.8c-.2,0-.4,0-.5-.2.5,0,1.1,0,1.6.2.4.1.8.3,1.1.5.2.2.3.2.5.3.2.2.5.3.8.5.2,0,.5.1.6.3.3.2.5.2.8.3.2.2.5.2.6.3.3.2.3.5.5.8,0,.3,0,.6-.3.8-.5-.2-.8-.5-1.3-.5s-.6.2-1.1.2v.2l1.4.5h.5c.2,0,.3.2.3.3,0,.2.2.2.3.2h0c0,0,0-.2-.1-.2h.2c0,.2,0,.3-.3.3s-.2.2-.3.2c-.2,0-.4,0-.6-.2-.2,0-.3-.2-.5-.2.3.3.6.2.9.5-.2,0-.4,0-.6-.2h0c.2,0,.3.2.5.3-.4,0-.9,0-1.3-.2,0,.2.2.2.2.3-1.6-.5-3.2-.7-4.9-.6.1,0,.2,0,.3-.2h.3c-.4,0-.8.2-1.1.3l.2-.2h0c-.2,0-.3.2-.6.2s-.5.2-.6,0c-.2,0-.2.2-.3.2s-.2.2-.3.2h0c.2-.2.3-.2.5-.3h-.3c-.2,0-.2.2-.3.2h0l.3-.3h-.3c-.3.1-.6.3-.8.5-.3.5-.9.6-1.3.9-.2.2-.3.2-.5.3v-.2h0l-.9.5h.2l-1.4.9v-.2h.2v-.2c-.5.3-1.1.5-1.6.8h0c.5-.2.8-.5,1.3-.6h-.3c-.3.2-.5.3-.6.3h-.3c-.2,0-.3-.2-.5-.2v-.2h-.8c-.3-.2-.5,0-.6,0h-.2v.2c.2,0,.4,0,.6.2,0,0-.2,0-.2.2h0c-.2,0-.3-.2-.6-.2,0,0,0-.2-.1-.2h0c0,0-.2,0-.2-.2h0v.2c-.2.2-.3.2-.6.2-.7,0-1.4-.2-2-.5h-.3c.5.5,1.1.9,1.7,1.1.7.2,1.4.3,2,.2-.2,0-.3.2-.5.2h.9c-.2,0-.4,0-.5.2-.2.2-.3,0-.5,0-.3,0-.5-.2-.8-.2h-.6c-.2.2-.3.2-.3,0-.3-.3-.8-.3-1.1-.6-.2-.2-.5-.2-.6-.3h0c.2.2.5.3.6.5-.2.2-.3-.3-.5-.2.2.2.3.5.5.6h0c-.3-.2-.5-.3-.8-.5v.5h0l-.3-.3c-.2-.2-.3-.3-.3-.5-.3-.3-.8-.5-1.1-.8-.2-.2-.3-.2-.5-.3-.5-.3-.8-.5-1.3-.8-.3-.1-.6-.3-.8-.6-.6-.5-1.3-.8-2-1.1-.5,0-1-.4-1.4-.8-.3-.2-.6-.3-.9-.3h0c.2,0,.3,0,.3.2h.2v-.2c-.1,0-.2,0-.3-.2-.5-.3-1.1-.4-1.7-.3-.1,0-.2.1-.2.3h-.3c0,.3-.2.5-.5.3h-.9c0,0,.2,0,.2-.2h-.8c-.4,0-.8.1-1.1.3-.2,0-.2.2-.3.3s-.2.2-.3,0h-.2c-.5.3-1.1.5-1.6.8-.1,0-.2,0-.3.2l.2-.2h0c-.1,0-.2,0-.3.2.2-.2.2-.3.3-.5h0c.2-.2.3-.5.6-.6-.6.2-.9.8-1.4,1.3,0,0,.2,0,.2.2h0l-.3.3h0c0,0,.2,0,.2-.2h0c.2-.2.3-.2.5-.3-.5.3-.6.8-1.3,1.1v-.3c-1.3-1.3-1.4-1.3-1.6-1.3l.2-.2h0c-.2.2-.3.2-.5.3h0c.2,0,.3,0,.3-.2h-.1ZM34.1,41.1c0,0,0,.2-.1.2h0c.2,0,.3,0,.2-.2.3,0,.6-.1.8-.3.3-.1.6-.3.8-.5,0,0,0-.2.1-.2h-.2c0,0-.2,0-.2.2h0c-.2.2-.4.3-.6.3-.2.2-.5.4-.8.5-.2-.2-.5,0-.6.2h0c.2,0,.4,0,.6-.2h0ZM41.3,37.7c.6-.1,1.2-.5,1.6-.9-.3.2-.5.2-.8.3-.2-.3-.3,0-.5,0,0-.2-.2-.2-.2,0-.6.3-1.1.6-1.7.9-.2.2-.5.2-.8.3-.4.2-.8.4-1.1.6-.2,0-.2.2-.3.2h.3c-.3.4-.7.8-1.1,1.1h0c.1,0,.2,0,.3-.2-.5.5-.8.6-.9.5.2-.2.3-.2.5-.3-.6.2-1.1.5-1.4.9h.2c-.1.1-.2.2-.2.3,0,.1-.2.2,0,.2,0,0,0,.2,0,.3h0c0,.1,0,.2-.2.3.4,0,.8-.2,1.1-.5.4-.3.9-.6,1.4-.8.1-.1.3-.2.5-.2.2-.2.5-.3.6-.5l.5-.5h0c-.4.2-.7.4-.9.6.3-.6.8-.8,1.3-1.1,0,.1,0,.2-.2.3h0l.2-.2v.2c.2,0,.3-.2.3-.3,0-.2.2-.2.2-.3.2-.2.3-.3.5-.3h0c-.2,0-.2.2-.3.2,0,0,0-.2-.1-.2h0c-.3.2-.6.4-.8.6-.1.3-.5.5-.8.5.1-.2.4-.3.6-.3h0c-.1,0-.2,0-.3.2h0c.3-.2.6-.5.9-.6v-.2c-.2.2-.3.2-.6.3v-.2c.3-.2.5-.5.8-.6.5-.1.9-.4,1.3-.8h.2c.3-.2.2,0,.2,0h0ZM24.1,44.6h-.3c-.5-.1-1-.3-1.4-.6-.7-.4-1.4-.8-2-1.3h-.2c-.2.2-.2,0-.3,0s-.2-.2-.3-.2h0c0,0,0,.2.1.2h0c.8.5,1.4.9,2.2,1.4,1.4.8,2.9,1.4,4.4,1.9h.3c-.2-.3-.6-.3-.9-.5h.3l-.3-.3c-.5-.2-.9-.5-1.4-.6,0,0-.2,0-.2-.2h0l-.3-.3h0c.2.3.3.3.3.5h0ZM26.9,42.7h0c.1.1.2.2.3.2h.8c.3.2.6.2.9,0,.3,0,.6-.2.8,0h.2c.2,0,.5-.2.6-.2h0c.1-.2.4-.3.6-.3-1.6.2-2.8.2-4.2.3h0ZM66,43.5c-.2.1-.4.2-.6.2-.3.2-.7.3-1.1.3-.5,0-.8.2-1.3.2v.2h.3c.1.1.3.2.5.2.4-.1.9-.3,1.3-.5.5,0,.8,0,.9-.5h0ZM33,41.6h0c-.5,0-1,0-1.4.3h.3c-.2.2-.5,0-.3.3.3-.2.8-.2,1.1-.3-.1,0-.2,0-.2-.2.2,0,.4,0,.5-.2h0ZM27.7,42.4c.3.2,2.4.3,2.7,0-.9,0-1.8,0-2.7,0ZM28.5,42.1c-.5-.3-1.1-.4-1.7-.3.5.2,1.1.3,1.7.3h0ZM43.9,40c-.5,0-.9.3-1.3.6.4-.2.9-.4,1.3-.6h0ZM25.8,45.9c.3.3.6.5.9.3-.3,0-.7,0-.9-.3h0ZM13.7,39.4c.1-.1.2-.2.3-.2-.2,0-.2-.2-.3-.2s-.2,0-.2.2h0c0,0,.2,0,.2.2h0ZM33.2,41.8c.3,0,.8-.2.8-.3-.3,0-.6.1-.8.3h0ZM17.3,36h0c.2.3.5.5.6.6v-.2c-.2-.2-.4-.3-.6-.5h0ZM62.9,44.3c-.3-.2-.5,0-.8,0h0c.3.2.6,0,.8,0h0ZM25.9,41.6h0c-.1-.2-.4-.3-.6-.3v.2c.2,0,.4,0,.6.2h0ZM43.2,36.7c0,0,.2,0,.3,0h0v-.2c-.1,0-.2,0-.3.2ZM22.3,44.4h0c-.2-.2-.3-.3-.5-.3h0c0,.2.2.3.5.3h0ZM61,44.8c-.2,0-.3-.2-.5,0v.2c.1-.1.3-.2.5-.2h0ZM30.7,42.2h0c-.2-.2-.3,0-.5,0v.2c.1-.1.3-.2.5-.2h0ZM20.4,43.3h0c0,.2.1.3.3.3h0c-.2-.2-.2-.3-.3-.3h0Z"/>
        <path id="Pfad_241" data-name="Pfad_24" class="st0" d="M35.7,44.6c-.2.2-.5.3-.6.5h-.2c-.2.2-.5.2-.8.3h.2c-.3.3-.8.3-1.1.5v-.2c-.2-.2-.5.2-.8-.2h.2c.2,0,.4,0,.6-.2.2-.2.5-.2.8-.3h.2c.2,0,.4,0,.6-.2.3-.2.6-.2.9-.3h0Z"/>
        <path id="Pfad_251" data-name="Pfad_25" class="st0" d="M54.5,43.7c.2,0,.2.2.3.2.3.2.5.5.8.6s.5.6.8.8c.2,0,.2.3,0,.3l-.2.2c-.2-.3-.6-.5-.8-.8,0,0,0-.2-.1-.2h0c-.2-.2-.5-.3-.6-.5,0-.3,0-.5-.2-.6h0Z"/>
        <path id="Pfad_261" data-name="Pfad_26" class="st0" d="M69.6,42.9c0,.5-.3.3-.5.5.2,0,.2-.2.3-.2h0c-.4.4-.9.7-1.4.9.2-.6.9-.8,1.6-1.3h0Z"/>
        <path id="Pfad_271" data-name="Pfad_27" class="st0" d="M24.5,46.5c-.4-.3-.8-.5-1.3-.6.3-.2.6-.2.8.2,0,.2.2.2.2.3.2,0,.3,0,.3.2Z"/>
        <path id="Pfad_281" data-name="Pfad_28" class="st0" d="M42.3,41.9v.2l1.4-.5h0c-.5.3-1.1.5-1.6.8v-.2h-.2c0-.2.1-.3.3-.3h0Z"/>
        <path id="Pfad_291" data-name="Pfad_29" class="st0" d="M66.3,45.1c.2-.3.5-.5.8-.6,0,.2-.5.5-.8.6Z"/>
        <path id="Pfad_301" data-name="Pfad_30" class="st0" d="M12.7,38.6c-.2.2-.3.2-.5.3h0v-.2c0-.3.3-.3.5-.2h0Z"/>
        <path id="Pfad_311" data-name="Pfad_31" class="st0" d="M61.6,46.6c-.4,0-.9,0-1.3-.3.4.2.8.3,1.3.3Z"/>
        <path id="Pfad_321" data-name="Pfad_32" class="st0" d="M12.3,37.8c-.2.2-.3.3-.5.3.2-.3.3-.5.5-.3Z"/>
        <path id="Pfad_331" data-name="Pfad_33" class="st0" d="M62.4,45.5c.3-.2.6,0,.8-.3v.2c-.2.1-.5.2-.8.2h0Z"/>
        <path id="Pfad_341" data-name="Pfad_34" class="st0" d="M27.4,47.3c-.3,0-.5,0-.8-.2h0c.2-.2.5,0,.8.2Z"/>
        <path id="Pfad_351" data-name="Pfad_35" class="st0" d="M29.7,47.3h-.5v-.2c.2,0,.4,0,.5.2Z"/>
        <path id="Pfad_361" data-name="Pfad_36" class="st0" d="M39.9,43c-.1,0-.2,0-.3.2h0c.2-.2.3-.2.5-.3h0c0,.1,0,.2-.2.2h0Z"/>
        <path id="Pfad_371" data-name="Pfad_37" class="st0" d="M50.3,41.9c-.2-.2-.5-.2-.6-.3h0c.2,0,.5.2.6.3Z"/>
        <path id="Pfad_381" data-name="Pfad_38" class="st0" d="M41.3,37.7c0,0,0-.2.1-.2h-.2c-.4.3-.8.6-1.3.8-.3.1-.6.3-.8.6v.2c.2-.2.3-.2.6-.3v.2c-.3.2-.6.5-.9.6h0c.1,0,.2,0,.3-.2h0c-.2.2-.3.2-.6.3.3,0,.6-.2.8-.5.2-.2.5-.3.8-.6,0,.1,0,.2.2.2.2,0,.2-.2.3-.2h0c-.2.2-.3.2-.5.3s-.2.2-.2.3c0,.2-.1.3-.3.3v-.2l-.2.2h0c0-.1,0-.2.2-.3-.5.3-.9.7-1.3,1.1.4-.2.7-.4.9-.6h0l-.5.5c-.2.2-.5.3-.6.5-.1.1-.3.2-.5.2-.5.3-.9.5-1.4.8-.3.2-.7.4-1.1.5,0-.1,0-.2.2-.3,0-.2.2-.2,0-.3v-.2c0-.2.2-.2.2-.3h-.2c.3-.5.8-.8,1.4-.9,0,.2-.3.2-.5.3.2.2.5,0,.9-.5-.2,0-.2.2-.3.2h0c.4-.3.8-.7,1.1-1.1h-.3c.2,0,.2-.2.3-.2.4-.2.7-.4,1.1-.6.2-.2.5-.2.8-.3.6-.3,1.1-.6,1.7-.9.2,0,.2-.2.2,0,.2,0,.3-.3.5,0,.3-.2.5-.2.8-.3-.5.5-1.2.9-1.9,1.1h0Z"/>
        <path id="Pfad_391" data-name="Pfad_39" class="st0" d="M24.1,44.6c0,0,0-.2-.1-.2h0l.3.3c0,0,0,.2.1.2h0c.5.2.9.5,1.4.6.2,0,.3.2.3.3h-.3c.3.2.6.2.9.5h-.3c-1.5-.5-3-1.2-4.4-1.9-.8-.5-1.4-.9-2.2-1.4,0,0-.2,0-.2-.2h0c.2,0,.2.2.3.2s.2.2.3,0h.2c.7.4,1.3.9,2,1.3.4.3.9.5,1.4.6,0-.2,0-.3.2-.3h0Z"/>
        <path id="Pfad_401" data-name="Pfad_40" class="st0" d="M26.9,42.7c1.4,0,2.7-.2,4.1-.2-.2.2-.4.3-.6.3h0c-.2,0-.3.2-.6.2h-.2c-.2-.2-.6-.2-.8,0h-.9c-.2-.2-.5,0-.8,0,0-.2,0-.3-.2-.3h0Z"/>
        <path id="Pfad_411" data-name="Pfad_41" class="st0" d="M41.5,42.1c-.2.2-.3.2-.5.3,0,0-.2,0-.2.2h0c0-.2.2-.2.3-.3,0,0-.2,0-.2-.2h0c.5-.5.8-1.1,1.4-1.3-.1.3-.4.5-.6.6h0c-.3.3-.3.5-.3.6,0-.1,0-.2.2-.2h0l-.2.2h0Z"/>
        <path id="Pfad_421" data-name="Pfad_42" class="st0" d="M66,43.5c-.2.3-.5.3-.8.5-.4.1-.9.3-1.3.5-.2,0-.3.2-.5-.2h-.3v-.2c.5,0,.8-.2,1.3-.2s.8-.1,1.1-.3c.2,0,.4,0,.5-.2h0Z"/>
        <path id="Pfad_431" data-name="Pfad_43" class="st0" d="M33,41.6c-.2.2-.3.2-.5.3,0,0,.2,0,.2.2h0c-.3.2-.7.4-1.1.3-.2-.3.2-.2.3-.3h-.3c.3-.5.8-.5,1.4-.5h0Z"/>
        <path id="Pfad_441" data-name="Pfad_44" class="st0" d="M27.7,42.4h2.7c-.9.2-1.8.2-2.7,0Z"/>
        <path id="Pfad_451" data-name="Pfad_45" class="st0" d="M34.1,41.1c.3-.2.5-.3.8-.3.2-.2.4-.3.6-.3,0,0,.2,0,.2-.2h.2c0,0,0,.2-.1.2h0c-.3.1-.6.3-.8.5-.2,0-.5.1-.8.2.2.2,0,.2-.2.2,0,0,.2,0,.2-.2h0Z"/>
        <path id="Pfad_461" data-name="Pfad_46" class="st0" d="M28.5,42.1c-.6,0-1.2,0-1.7-.3.6,0,1.2,0,1.7.3Z"/>
        <path id="Pfad_471" data-name="Pfad_47" class="st0" d="M43.9,40c-.4.3-.8.5-1.3.6.4-.3.8-.6,1.3-.6Z"/>
        <path id="Pfad_481" data-name="Pfad_48" class="st0" d="M25.8,45.9c.3.2.6.2.9.3-.4.2-.8,0-.9-.3Z"/>
        <path id="Pfad_491" data-name="Pfad_49" class="st0" d="M13.7,39.4c0-.2-.2-.2-.2-.3l.2-.2c.2,0,.2.2.3.2l-.3.3Z"/>
        <path id="Pfad_501" data-name="Pfad_50" class="st0" d="M33.2,41.8c.3-.2.5-.2.8-.3,0,.2-.6.3-.8.3Z"/>
        <path id="Pfad_511" data-name="Pfad_51" class="st0" d="M17.3,36c.3.2.5.3.8.5v.2c-.3-.2-.6-.4-.8-.6h0Z"/>
        <path id="Pfad_521" data-name="Pfad_52" class="st0" d="M34.1,41.1c-.2.2-.5.2-.6.3h0c.1-.2.4-.3.6-.3Z"/>
        <path id="Pfad_531" data-name="Pfad_53" class="st0" d="M62.9,44.3h-.8c.3,0,.6-.2.8,0Z"/>
        <path id="Pfad_541" data-name="Pfad_54" class="st0" d="M25.9,41.6c-.2-.2-.5-.2-.6-.3v-.2c.3.2.5.2.6.5Z"/>
        <path id="Pfad_551" data-name="Pfad_55" class="st0" d="M43.2,36.7h0c0,0,.2-.2.3-.2v.2c0,0-.2,0-.3,0h0Z"/>
        <path id="Pfad_561" data-name="Pfad_56" class="st0" d="M22.3,44.4c-.2-.2-.3-.2-.5-.3h0c.2.2.3.2.5.3Z"/>
        <path id="Pfad_571" data-name="Pfad_57" class="st0" d="M61,44.8h-.5v-.2c.2,0,.3.2.5.2Z"/>
        <path id="Pfad_581" data-name="Pfad_58" class="st0" d="M30.7,42.2h-.5v-.2c.2,0,.4,0,.5.2Z"/>
        <path id="Pfad_591" data-name="Pfad_59" class="st0" d="M20.4,43.3l.3.3h0c-.2-.2-.3-.2-.3-.3Z"/>
      </g>
    </g>
    <g id="Gruppe_31" data-name="Gruppe_3">
      <path id="Pfad_601" data-name="Pfad_60" class="st0" d="M51.5,14.4c.2,0,.5,0,.5.2,0,0-.2.1-.3.2.2-.2-.2-.2-.2-.3h0ZM52.9,14l-.2-.2c-.2,0,0,.2.2.2h0Z"/>
    </g>
    <g id="Gruppe_41" data-name="Gruppe_4">
      <path id="Pfad_631" data-name="Pfad_63" class="st0" d="M31.5,15.2v.2h0v-.2ZM32,15.8c.2,0,.2.2,0,0ZM32.7,15.2h0ZM33.2,14.9c-.2,0-.2.2,0,0ZM33.2,14.7c0,.2.2.2,0,0l.2.2c.2,0,0-.2-.2-.2Z"/>
    </g>
  </g>
  <g id="Ebene_13" data-name="Ebene_1">
    <g id="NjDdfZ2" data-name="NjDdfZ">
      <g id="Gruppe_22" data-name="Gruppe_2">
        <path id="Pfad_222" data-name="Pfad_22" class="st0" d="M42.1,62.8h0c0,0,.2,0,.2-.2h0c.5-.3,1-.6,1.6-.8h.2c.2.2.2,0,.3,0l.3-.3c.3-.2.7-.3,1.1-.3h.8c0,0-.2,0-.2.2h.9c.3,0,.5,0,.5-.3h.3c0-.2,0-.3.2-.3.6,0,1.2.1,1.7.3.1,0,.2,0,.3.2v.2h-.2c-.2,0-.3,0-.3-.2h0c.3.2.6.2.9.3.4.3.9.6,1.4.8.7.3,1.4.6,2,1.1.3.1.6.3.8.6.5.3.8.5,1.3.8.2.2.3.2.5.3.3.3.8.5,1.1.8.2.2.3.3.3.5l.3.3h0v-.5c.3.2.5.3.8.5h0c-.2-.2-.3-.5-.5-.6.2-.2.3.2.5.2-.2-.2-.5-.3-.6-.5h0c.2.2.5.2.6.3.3.3.8.3,1.1.6,0,0,.2,0,.3,0h.6c.3,0,.5.2.8.2h.5c.1-.1.3-.2.5-.2h-.9c.2,0,.3-.2.5-.2-.7,0-1.4,0-2-.2-.7-.2-1.3-.5-1.7-1.1h.3c.7.2,1.3.4,2,.5.3,0,.5,0,.6-.2v-.2c0,0,.2,0,.2.2h0c0,0,0,.2.1.2h0c.2,0,.5.2.6.2s.2,0,.2-.2h0c-.2,0-.4,0-.6-.2v-.2h.2c.2,0,.5-.2.6,0s.5,0,.8,0h0v.2c.2,0,.3.2.5.2h.3c.3-.2.5-.2.6-.3h.3c-.5.2-.8.5-1.3.6h0c.5-.3,1.1-.5,1.6-.8v.2h-.2v.2l1.4-.9h-.2l.9-.5h0v.2c.2-.2.3-.2.5-.3.5-.2.9-.5,1.3-.9.2-.2.5-.3.8-.5h.3l-.3.3h0c.2,0,.2-.2.3-.2h.3c-.2.2-.3.2-.5.3h0c.2,0,.2-.2.3-.2s.2-.2.3-.2h.6c.2,0,.3-.2.6-.2h0l-.2.2c.3,0,.6-.3,1.1-.3h-.3c-.1,0-.2,0-.3.2,1.6-.1,3.3,0,4.9.6,0-.2-.2-.2-.2-.3.4,0,.9,0,1.3.2-.2-.2-.3-.2-.5-.3h0c.2,0,.4,0,.6.2-.3-.2-.6-.2-.9-.5.2,0,.4,0,.5.2.2,0,.3.2.6.2s.2-.2.3-.2c.3,0,.2-.2.3-.3h-.2c0,0,0,.2.1.2h0c-.1,0-.2,0-.3-.2,0-.2-.2-.2-.3-.3s-.3,0-.5,0l-1.4-.5v-.2c.3,0,.6-.2,1.1-.2s.8.3,1.3.5c.2-.2.3-.5.3-.8s-.2-.6-.5-.8c-.2-.2-.4-.3-.6-.3-.3-.2-.5-.2-.8-.3-.2-.2-.4-.3-.6-.3-.3,0-.5-.2-.8-.5-.2-.2-.3-.3-.5-.3-.3-.2-.8-.3-1.1-.5-.5-.1-1-.2-1.6-.2.2,0,.4,0,.5.2h-.8c-.8,0-1.6.2-2.4.5-.9.2-1.7.6-2.5.9-.1.2-.4.3-.6.3-.5.3-1.1.6-1.6.9-.9.6-1.8,1-2.8,1.4-1.7.5-3.5.2-5-.8-1.1-.8-2-1.6-3.1-2.4-.4-.3-.8-.6-1.3-.8-.2-.2-.5-.2-.6-.5-.4-.3-.8-.6-1.3-.8-.5-.3-1.1-.5-1.7-.6-.2,0-.4,0-.5-.2h0c.2,0,.3.2.5.2-.6-.2-1.3-.2-1.7-.3-.7-.1-1.4-.2-2-.2h-.9c-.6.2-1.1.3-1.7.5-1.5.4-2.9,1.1-4.2,2-.3.3-.7.6-1.1.8h-.6c-.2.2-.5.2-.6.3-.3.2-.5.5-.8.6s-.8.5-1.1.6c-.2.2-.3.2-.5.3l-1.4.5c-.4.2-.8.3-1.3.3-.5.2-1.1.2-1.6.3-.4.1-.7.2-1.1.2-.6,0-1.4-.2-2-.2-.3,0-.7-.1-.9-.3h.2c-.2,0-.2-.2-.3-.2-.6-.1-1.1-.3-1.6-.6-1-.5-1.9-1.1-2.8-1.7-.6-.3-1.1-.7-1.6-1.1-.2-.2-.3-.2-.5-.3h0c.2.2.3.2.5.3h0c-.2,0-.3-.2-.5-.2-.6-.4-1.2-.8-1.7-1.3-.3-.2-.6-.5-.9-.6-.1-.1-.3-.2-.5-.2-.1,0-.2,0-.3-.2-.2-.2-.2-.3-.5-.2h0c-.3-.2-.5-.2-.6-.3-.2,0-.4,0-.6-.2h0c0,0,.2,0,.2-.2h0c-.2-.2-.8-.2-.9-.2h.3l-.9.5c.1.1.2.2.2.3l-.5.5v.2c.2.2,0,.3-.2.5l-.2.2h.3l-.2.2c.1,0,.2,0,.3-.2.2-.1.4,0,.5.2-.2,0-.2.2-.3.3-.2,0-.2.2-.3.3.2,0,.3,0,.5.3,0,.2,0,.3-.2.5-.2.3-.3.5-.6.5,0,.3.3.2.5.2-.2.2-.4.4-.5.6,0,0,.2,0,.2-.2h.3l-.2.2c-.2.1-.4.3-.6.5h.5c.1,0,.2,0,.3-.2v.2c-.2,0-.2.2-.3.2,0,0,.2,0,.2.2h0l-.2.2c.3-.2.6-.2.9-.3.4-.2.8-.2,1.1,0,.2.2.5.2.6.3s.3.3.5.3c.4.2.7.4.9.6l.2.2c0,.2.2.3.3.2h0c.3.3.6.5.8.8v-.2h.2c.3.3.8.5,1.1.8l.2.2h-.2c.9.5,1.9,1.1,2.8,1.6h0l-.2-.2h0c.2.2.3.2.5.3,0,.1,0,.2.2.2h.2c.2.2.5.2.5.3s.2.2.3.2h0l.2.2c0-.2.2-.2.3-.2s.2.2.3.2c.6.1,1.2.3,1.7.6.3,0,.5.2.8,0l-.2-.2h.5c0,0,0-.2-.1-.2h0c.2,0,.3-.2.3-.3.5.2,1.1,0,1.6.2-.2.2-.5,0-.8.2.2,0,.2.2.3.2h1.1c.2-.2.3-.2.5-.3.2,0,.2-.2.3-.2,0,0,.1-.2.2-.3h0c0,0,.2,0,.2-.2h-1.3c-.4,0-.8,0-1.3,0-.2,0-.4,0-.5-.2,0,0,0-.2-.1-.2h0l.2-.2h1.3c.2.3.3.2.3,0,.2,0,.5-.2.6-.2.3,0,.8-.2,1.1-.2.5,0,.8-.2,1.3-.2.4,0,.9-.1,1.3-.3.2-.2.6-.4.9-.3.3-.2.8-.2,1.1-.3.6-.2,1.2-.5,1.7-.8l.9-.5c.3-.2.5-.3.8-.5s.5-.3.8-.5h0l-.2.2c-.1.2-.4.3-.6.3s-.2.2,0,.3c-.2.2-.5.5-.8.6h.3c-.2.2-.3.3-.5.3h0c.4-.2.7-.4.9-.6h0c.2,0,.2-.2.3-.2v.3c2.1,1.1,2.4.5,2.8.2h0ZM36.2,65.3h0c-.3,0-.5,0-.8.2-.2,0-.4,0-.6.2h-.2c-.2.2-.5.2-.8.3-.2,0-.5.2-.6.2h-.2c.3.3.6-.2.8.2v.2c.4,0,.8-.2,1.1-.5h-.2c.2-.3.6-.2.8-.3h.2c.2,0,.3-.2.5-.3h0ZM55.1,64.4h0c0,.2.1.3.3.3.2.2.5.3.6.5l.2.2c.1.4.4.7.8.8l.2-.2c.2,0,.2-.3,0-.3-.3-.2-.5-.6-.8-.8-.3-.2-.6-.4-.8-.6-.3.3-.3.2-.5.2h0ZM70.2,63.6c-.6.5-1.4.6-1.7,1.3.6-.2.9-.6,1.4-.9h0c-.2,0-.2.2-.3.2.2-.2.6,0,.6-.5h0ZM25.1,67.2l-.3-.3c0-.2-.2-.2-.2-.3-.2-.3-.5-.3-.8-.2.5.3.8.5,1.3.8h0ZM42.8,62.6l-.3.3h.2v.2c.5-.3,1-.6,1.6-.8h0l-1.4.5c-.2,0,0-.2,0-.2h0ZM66.9,65.8c.3,0,.9-.5.8-.6-.4,0-.6.3-.8.6ZM13.3,59.3c-.2-.2-.3,0-.5,0v.2h0c.2,0,.3-.2.5-.2ZM62.2,67.4c-.5-.2-.9-.2-1.3-.3.4.3.8.4,1.3.3h0ZM12.8,58.6c-.2-.2-.3,0-.5.3.2-.2.3-.2.5-.3h0ZM63,66.3c.3,0,.5,0,.8-.2v-.2c-.2.3-.5.2-.8.3h0ZM27.9,68h0c-.3-.2-.6-.2-.8-.3h0c.2.2.5.2.8.3ZM30.3,68h0c-.1-.1-.3-.2-.5-.2v.2h.5ZM50.9,62.6h0c-.2-.2-.3-.2-.6-.3h0c.2.2.5.2.6.3Z"/>
        <path id="Pfad_232" data-name="Pfad_23" class="st0" d="M40.5,63.7c-.4.2-.7.4-.9.6h0c.2-.2.3-.3.5-.3h-.3c.2-.3.5-.5.8-.6-.2-.2,0-.2,0-.3.1-.2.4-.3.6-.3s.2,0,.2-.2h0c-.3.1-.6.3-.8.5-.3.2-.5.3-.8.5l-.9.5c-.6.3-1.1.5-1.7.8-.3.2-.8.2-1.1.3s-.6.2-.9.3c-.4.3-.8.4-1.3.3-.5,0-.8.2-1.3.2-.4,0-.8,0-1.1.2-.2,0-.5.2-.6.2s-.3.2-.3,0h-1.3c0,0-.2,0-.2.2s0,.2.2.2c.1.1.3.2.5.2.5,0,.9.2,1.3,0h1.3c0,0-.2,0-.2.2h0c0,.2-.2.2-.2.3-.2,0-.2.2-.3.2s-.3,0-.5.3h-1.1c-.2,0-.2-.2-.3-.2.2-.2.5,0,.8-.2-.5-.1-1-.2-1.6-.2,0,.2,0,.3-.3.3,0,0,0,.2.1.2h-.5c0,0,.2,0,.2.2h0c-.3.2-.6,0-.8,0-.6-.1-1.2-.3-1.7-.6-.2,0-.2-.2-.3-.2s-.2-.2-.3.2l-.2-.2h0c-.2,0-.3,0-.3-.2s-.3-.2-.5-.3h-.2c-.2,0-.3-.2-.2-.2-.2-.2-.3-.2-.5-.3h0l.2.2h0c-.9-.5-1.9-1.1-2.8-1.6h.2l-.2-.2c-.3-.3-.8-.5-1.1-.8h-.2v.2c-.3-.3-.6-.5-.8-.8h0c-.2.2-.3,0-.3-.2l-.2-.2c-.3-.2-.6-.5-.9-.6-.2,0-.3-.2-.5-.3s-.5-.2-.6-.3c-.4-.2-.8-.2-1.1,0-.3.2-.6.2-.9.3l.2-.2c0,0-.2,0-.2-.2h0c.2,0,.2-.2.3-.2v-.2c-.1,0-.2,0-.3.2h-.5c.2-.2.3-.5.6-.5l.2-.2h-.3l-.2.2c.2-.2.3-.5.5-.6-.2,0-.5.2-.5-.2.3,0,.5-.2.6-.5.1-.1.2-.3.2-.5,0-.3-.3-.3-.5-.3l.3-.3c.2,0,.2-.2.3-.3-.1-.2-.3-.3-.5-.2-.2,0-.2.2-.3.2l.2-.2c-.1-.1-.2-.1-.3,0l.2-.2c.2-.2.3-.2.2-.5v-.2l.5-.5c.2-.2.2-.3-.2-.3l.9-.5h-.3c.2-.2.8,0,.9.2,0,0-.2,0-.2.2h0c.2,0,.4,0,.6.2.2,0,.5.2.6.3h0c.2,0,.4,0,.5.2,0,0,.2.1.3.2.2,0,.3.2.5.2.4.2.7.4.9.6.6.5,1.1.8,1.7,1.3.1.1.3.2.5.2h0c-.2-.2-.3-.2-.5-.3h0c.2.2.3.2.5.3.5.3,1.1.8,1.6,1.1.9.6,1.9,1.2,2.8,1.7.5.3,1,.5,1.6.6.1,0,.2,0,.3.2h-.2c.3.2.6.2.9.3.7.1,1.4.2,2,.2.4,0,.8,0,1.1-.2.5-.2,1-.3,1.6-.3.4-.2.8-.3,1.3-.3l1.4-.5c.2,0,.3-.2.5-.3.3-.2.8-.5,1.1-.6s.5-.5.8-.6c.2-.2.5-.2.6-.3h.6c.3-.3.7-.6,1.1-.8,1.3-.9,2.7-1.6,4.2-2,.5-.2,1.1-.3,1.7-.5h.9c.7,0,1.4,0,2,.2.6.2,1.1.2,1.7.3-.2,0-.3-.2-.5-.2h0c.2,0,.4,0,.5.2.6.1,1.2.3,1.7.6.4.2.9.5,1.3.8.2.2.5.3.6.5.5.3.8.5,1.3.8,1.1.8,2,1.6,3.1,2.4,1.4,1.1,3.3,1.4,5,.8,1-.3,1.9-.8,2.8-1.4.5-.3,1.1-.6,1.6-.9.1-.2.4-.3.6-.3.8-.4,1.6-.7,2.5-.9.8-.2,1.6-.4,2.4-.5h.8c-.2,0-.4,0-.5-.2.5,0,1.1,0,1.6.2.4.1.8.3,1.1.5.2.2.3.2.5.3.2.2.5.3.8.5.2,0,.5.1.6.3.3.2.5.2.8.3.2.2.5.2.6.3.3.2.3.5.5.8,0,.3,0,.6-.3.8-.5-.2-.8-.5-1.3-.5s-.6.2-1.1.2v.2l1.4.5h.5c.2,0,.3.2.3.3,0,.2.2.2.3.2h0c0,0,0-.2-.1-.2h.2c0,.2,0,.3-.3.3s-.2.2-.3.2c-.2,0-.4,0-.6-.2-.2,0-.3-.2-.5-.2.3.3.6.2.9.5-.2,0-.4,0-.6-.2h0c.2,0,.3.2.5.3-.4,0-.9,0-1.3-.2,0,.2.2.2.2.3-1.6-.5-3.2-.7-4.9-.6.1,0,.2,0,.3-.2h.3c-.4,0-.8.2-1.1.3l.2-.2h0c-.2,0-.3.2-.6.2s-.5.2-.6,0c-.2,0-.2.2-.3.2s-.2.2-.3.2h0c.2-.2.3-.2.5-.3h-.3c-.2,0-.2.2-.3.2h0l.3-.3h-.3c-.3.1-.6.3-.8.5-.3.5-.9.6-1.3.9-.2.2-.3.2-.5.3v-.2h0l-.9.5h.2l-1.4.9v-.2h.2v-.2c-.5.3-1.1.5-1.6.8h0c.5-.2.8-.5,1.3-.6h-.3c-.3.2-.5.3-.6.3h-.3c-.2,0-.3-.2-.5-.2v-.2h-.8c-.3-.2-.5,0-.6,0h-.2v.2c.2,0,.4,0,.6.2,0,0-.2,0-.2.2h0c-.2,0-.3-.2-.6-.2,0,0,0-.2-.1-.2h0c0,0-.2,0-.2-.2h0v.2c-.2.2-.3.2-.6.2-.7,0-1.4-.2-2-.5h-.3c.5.5,1.1.9,1.7,1.1.7.2,1.4.3,2,.2-.2,0-.3.2-.5.2h.9c-.2,0-.4,0-.5.2-.2.2-.3,0-.5,0-.3,0-.5-.2-.8-.2h-.6c-.2.2-.3.2-.3,0-.3-.3-.8-.3-1.1-.6-.2-.2-.5-.2-.6-.3h0c.2.2.5.3.6.5-.2.2-.3-.3-.5-.2.2.2.3.5.5.6h0c-.3-.2-.5-.3-.8-.5v.5h0l-.3-.3c-.2-.2-.3-.3-.3-.5-.3-.3-.8-.5-1.1-.8-.2-.2-.3-.2-.5-.3-.5-.3-.8-.5-1.3-.8-.3-.1-.6-.3-.8-.6-.6-.5-1.3-.8-2-1.1-.5,0-1-.4-1.4-.8-.3-.2-.6-.3-.9-.3h0c.2,0,.3,0,.3.2h.2v-.2c-.1,0-.2,0-.3-.2-.5-.3-1.1-.4-1.7-.3-.1,0-.2.1-.2.3h-.3c0,.3-.2.5-.5.3h-.9c0,0,.2,0,.2-.2h-.8c-.4,0-.8.1-1.1.3-.2,0-.2.2-.3.3s-.2.2-.3,0h-.2c-.5.3-1.1.5-1.6.8-.1,0-.2,0-.3.2l.2-.2h0c-.1,0-.2,0-.3.2.2-.2.2-.3.3-.5h0c.2-.2.3-.5.6-.6-.6.2-.9.8-1.4,1.3,0,0,.2,0,.2.2h0l-.3.3h0c0,0,.2,0,.2-.2h0c.2-.2.3-.2.5-.3-.5.3-.6.8-1.3,1.1v-.3c-1.3-1.3-1.4-1.3-1.6-1.3l.2-.2h0c-.2.2-.3.2-.5.3h0c.2,0,.3,0,.3-.2h-.1ZM34.7,61.9c0,0,0,.2-.1.2h0c.2,0,.3,0,.2-.2.3,0,.6-.1.8-.3.3-.1.6-.3.8-.5,0,0,0-.2.1-.2h-.2c0,0-.2,0-.2.2h0c-.2.2-.4.3-.6.3-.2.2-.5.4-.8.5-.2-.2-.5,0-.6.2h0c.2,0,.4,0,.6-.2h0ZM41.9,58.4c.6-.1,1.2-.5,1.6-.9-.3.2-.5.2-.8.3-.2-.3-.3,0-.5,0,0-.2-.2-.2-.2,0-.6.3-1.1.6-1.7.9-.2.2-.5.2-.8.3-.4.2-.8.4-1.1.6-.2,0-.2.2-.3.2h.3c-.3.4-.7.8-1.1,1.1h0c.1,0,.2,0,.3-.2-.5.5-.8.6-.9.5.2-.2.3-.2.5-.3-.6.2-1.1.5-1.4.9h.2c-.1.1-.2.2-.2.3,0,.1-.2.2,0,.2,0,0,0,.2,0,.3h0c0,.1,0,.2-.2.3.4,0,.8-.2,1.1-.5.4-.3.9-.6,1.4-.8.1-.1.3-.2.5-.2.2-.2.5-.3.6-.5l.5-.5h0c-.4.2-.7.4-.9.6.3-.6.8-.8,1.3-1.1,0,.1,0,.2-.2.3h0l.2-.2v.2c.2,0,.3-.2.3-.3,0-.2.2-.2.2-.3.2-.2.3-.3.5-.3h0c-.2,0-.2.2-.3.2,0,0,0-.2-.1-.2h0c-.3.2-.6.4-.8.6-.1.3-.5.5-.8.5.1-.2.4-.3.6-.3h0c-.1,0-.2,0-.3.2h0c.3-.2.6-.5.9-.6v-.2c-.2.2-.3.2-.6.3v-.2c.3-.2.5-.5.8-.6.5-.1.9-.4,1.3-.8h.2c.3-.2.2,0,.2,0h0ZM24.6,65.3h-.3c-.5-.1-1-.3-1.4-.6-.7-.4-1.4-.8-2-1.3h-.2c-.2.2-.2,0-.3,0s-.2-.2-.3-.2h0c0,0,0,.2.1.2h0c.8.5,1.4.9,2.2,1.4,1.4.8,2.9,1.4,4.4,1.9h.3c-.2-.3-.6-.3-.9-.5h.3l-.3-.3c-.5-.2-.9-.5-1.4-.6,0,0-.2,0-.2-.2h0l-.3-.3h0c.2.3.3.3.3.5h0ZM27.4,63.4h0c.1.1.2.2.3.2h.8c.3.2.6.2.9,0,.3,0,.6-.2.8,0h.2c.2,0,.5-.2.6-.2h0c.1-.2.4-.3.6-.3-1.6.2-2.8.2-4.2.3h0ZM66.6,64.2c-.2.1-.4.2-.6.2-.3.2-.7.3-1.1.3-.5,0-.8.2-1.3.2v.2h.3c.1.1.3.2.5.2.4-.1.9-.3,1.3-.5.5,0,.8,0,.9-.5h0ZM33.6,62.3h0c-.5,0-1,0-1.4.3h.3c-.2.2-.5,0-.3.3.3-.2.8-.2,1.1-.3-.1,0-.2,0-.2-.2.2,0,.4,0,.5-.2h0ZM28.2,63.1c.3.2,2.4.3,2.7,0-.9,0-1.8,0-2.7,0ZM29,62.8c-.5-.3-1.1-.4-1.7-.3.5.2,1.1.3,1.7.3h0ZM44.4,60.8c-.5,0-.9.3-1.3.6.4-.2.9-.4,1.3-.6h0ZM26.3,66.6c.3.3.6.5.9.3-.3,0-.7,0-.9-.3h0ZM14.2,60.1c.1-.1.2-.2.3-.2-.2,0-.2-.2-.3-.2s-.2,0-.2.2h0c0,0,.2,0,.2.2h0ZM33.7,62.5c.3,0,.8-.2.8-.3-.3,0-.6.1-.8.3h0ZM17.9,56.7h0c.2.3.5.5.6.6v-.2c-.2-.2-.4-.3-.6-.5h0ZM63.4,65c-.3-.2-.5,0-.8,0h0c.3.2.6,0,.8,0h0ZM26.5,62.3h0c-.1-.2-.4-.3-.6-.3v.2c.2,0,.4,0,.6.2h0ZM43.8,57.5c0,0,.2,0,.3,0h0v-.2c-.1,0-.2,0-.3.2ZM22.9,65.2h0c-.2-.2-.3-.3-.5-.3h0c0,.2.2.3.5.3h0ZM61.5,65.5c-.2,0-.3-.2-.5,0v.2c.1-.1.3-.2.5-.2h0ZM31.2,63h0c-.2-.2-.3,0-.5,0v.2c.1-.1.3-.2.5-.2h0ZM21,64.1h0c0,.2.1.3.3.3h0c-.2-.2-.2-.3-.3-.3h0Z"/>
        <path id="Pfad_242" data-name="Pfad_24" class="st0" d="M36.2,65.3c-.2.2-.5.3-.6.5h-.2c-.2.2-.5.2-.8.3h.2c-.3.3-.8.3-1.1.5v-.2c-.2-.2-.5.2-.8-.2h.2c.2,0,.4,0,.6-.2.2-.2.5-.2.8-.3h.2c.2,0,.4,0,.6-.2.3-.2.6-.2.9-.3h0Z"/>
        <path id="Pfad_252" data-name="Pfad_25" class="st0" d="M55.1,64.4c.2,0,.2.2.3.2.3.2.5.5.8.6s.5.6.8.8c.2,0,.2.3,0,.3l-.2.2c-.2-.3-.6-.5-.8-.8,0,0,0-.2-.1-.2h0c-.2-.2-.5-.3-.6-.5,0-.3,0-.5-.2-.6h0Z"/>
        <path id="Pfad_262" data-name="Pfad_26" class="st0" d="M70.2,63.6c0,.5-.3.3-.5.5.2,0,.2-.2.3-.2h0c-.4.4-.9.7-1.4.9.2-.6.9-.8,1.6-1.3h0Z"/>
        <path id="Pfad_272" data-name="Pfad_27" class="st0" d="M25.1,67.2c-.4-.3-.8-.5-1.3-.6.3-.2.6-.2.8.2,0,.2.2.2.2.3.2,0,.3,0,.3.2Z"/>
        <path id="Pfad_282" data-name="Pfad_28" class="st0" d="M42.8,62.6v.2l1.4-.5h0c-.5.3-1.1.5-1.6.8v-.2h-.2c0-.2.1-.3.3-.3h0Z"/>
        <path id="Pfad_292" data-name="Pfad_29" class="st0" d="M66.9,65.8c.2-.3.5-.5.8-.6,0,.2-.5.5-.8.6Z"/>
        <path id="Pfad_302" data-name="Pfad_30" class="st0" d="M13.3,59.3c-.2.2-.3.2-.5.3h0v-.2c0-.3.3-.3.5-.2h0Z"/>
        <path id="Pfad_312" data-name="Pfad_31" class="st0" d="M62.2,67.4c-.4,0-.9,0-1.3-.3.4.2.8.3,1.3.3Z"/>
        <path id="Pfad_322" data-name="Pfad_32" class="st0" d="M12.8,58.6c-.2.2-.3.3-.5.3.2-.3.3-.5.5-.3Z"/>
        <path id="Pfad_332" data-name="Pfad_33" class="st0" d="M63,66.3c.3-.2.6,0,.8-.3v.2c-.2.1-.5.2-.8.2h0Z"/>
        <path id="Pfad_342" data-name="Pfad_34" class="st0" d="M27.9,68c-.3,0-.5,0-.8-.2h0c.2-.2.5,0,.8.2Z"/>
        <path id="Pfad_352" data-name="Pfad_35" class="st0" d="M30.3,68h-.5v-.2c.2,0,.4,0,.5.2Z"/>
        <path id="Pfad_362" data-name="Pfad_36" class="st0" d="M40.5,63.7c-.1,0-.2,0-.3.2h0c.2-.2.3-.2.5-.3h0c0,.1,0,.2-.2.2h0Z"/>
        <path id="Pfad_372" data-name="Pfad_37" class="st0" d="M50.9,62.6c-.2-.2-.5-.2-.6-.3h0c.2,0,.5.2.6.3Z"/>
        <path id="Pfad_382" data-name="Pfad_38" class="st0" d="M41.9,58.4c0,0,0-.2.1-.2h-.2c-.4.3-.8.6-1.3.8-.3.1-.6.3-.8.6v.2c.2-.2.3-.2.6-.3v.2c-.3.2-.6.5-.9.6h0c.1,0,.2,0,.3-.2h0c-.2.2-.3.2-.6.3.3,0,.6-.2.8-.5.2-.2.5-.3.8-.6,0,.1,0,.2.2.2.2,0,.2-.2.3-.2h0c-.2.2-.3.2-.5.3s-.2.2-.2.3c0,.2-.1.3-.3.3v-.2l-.2.2h0c0-.1,0-.2.2-.3-.5.3-.9.7-1.3,1.1.4-.2.7-.4.9-.6h0l-.5.5c-.2.2-.5.3-.6.5-.1.1-.3.2-.5.2-.5.3-.9.5-1.4.8-.3.2-.7.4-1.1.5,0-.1,0-.2.2-.3,0-.2.2-.2,0-.3v-.2c0-.2.2-.2.2-.3h-.2c.3-.5.8-.8,1.4-.9,0,.2-.3.2-.5.3.2.2.5,0,.9-.5-.2,0-.2.2-.3.2h0c.4-.3.8-.7,1.1-1.1h-.3c.2,0,.2-.2.3-.2.4-.2.7-.4,1.1-.6.2-.2.5-.2.8-.3.6-.3,1.1-.6,1.7-.9.2,0,.2-.2.2,0,.2,0,.3-.3.5,0,.3-.2.5-.2.8-.3-.5.5-1.2.9-1.9,1.1h0Z"/>
        <path id="Pfad_392" data-name="Pfad_39" class="st0" d="M24.6,65.3c0,0,0-.2-.1-.2h0l.3.3c0,0,0,.2.1.2h0c.5.2.9.5,1.4.6.2,0,.3.2.3.3h-.3c.3.2.6.2.9.5h-.3c-1.5-.5-3-1.2-4.4-1.9-.8-.5-1.4-.9-2.2-1.4,0,0-.2,0-.2-.2h0c.2,0,.2.2.3.2s.2.2.3,0h.2c.7.4,1.3.9,2,1.3.4.3.9.5,1.4.6,0-.2,0-.3.2-.3h0Z"/>
        <path id="Pfad_402" data-name="Pfad_40" class="st0" d="M27.4,63.4c1.4,0,2.7-.2,4.1-.2-.2.2-.4.3-.6.3h0c-.2,0-.3.2-.6.2h-.2c-.2-.2-.6-.2-.8,0h-.9c-.2-.2-.5,0-.8,0,0-.2,0-.3-.2-.3h0Z"/>
        <path id="Pfad_412" data-name="Pfad_41" class="st0" d="M42.1,62.8c-.2.2-.3.2-.5.3,0,0-.2,0-.2.2h0c0-.2.2-.2.3-.3,0,0-.2,0-.2-.2h0c.5-.5.8-1.1,1.4-1.3-.1.3-.4.5-.6.6h0c-.3.3-.3.5-.3.6,0-.1,0-.2.2-.2h0l-.2.2h0Z"/>
        <path id="Pfad_422" data-name="Pfad_42" class="st0" d="M66.6,64.2c-.2.3-.5.3-.8.5-.4.1-.9.3-1.3.5-.2,0-.3.2-.5-.2h-.3v-.2c.5,0,.8-.2,1.3-.2s.8-.1,1.1-.3c.2,0,.4,0,.5-.2h0Z"/>
        <path id="Pfad_432" data-name="Pfad_43" class="st0" d="M33.6,62.3c-.2.2-.3.2-.5.3,0,0,.2,0,.2.2h0c-.3.2-.7.4-1.1.3-.2-.3.2-.2.3-.3h-.3c.3-.5.8-.5,1.4-.5h0Z"/>
        <path id="Pfad_442" data-name="Pfad_44" class="st0" d="M28.2,63.1h2.7c-.9.2-1.8.2-2.7,0Z"/>
        <path id="Pfad_452" data-name="Pfad_45" class="st0" d="M34.7,61.9c.3-.2.5-.3.8-.3.2-.2.4-.3.6-.3,0,0,.2,0,.2-.2h.2c0,0,0,.2-.1.2h0c-.3.1-.6.3-.8.5-.2,0-.5.1-.8.2.2.2,0,.2-.2.2,0,0,.2,0,.2-.2h0Z"/>
        <path id="Pfad_462" data-name="Pfad_46" class="st0" d="M29,62.8c-.6,0-1.2,0-1.7-.3.6,0,1.2,0,1.7.3Z"/>
        <path id="Pfad_472" data-name="Pfad_47" class="st0" d="M44.4,60.8c-.4.3-.8.5-1.3.6.4-.3.8-.6,1.3-.6Z"/>
        <path id="Pfad_482" data-name="Pfad_48" class="st0" d="M26.3,66.6c.3.2.6.2.9.3-.4.2-.8,0-.9-.3Z"/>
        <path id="Pfad_492" data-name="Pfad_49" class="st0" d="M14.2,60.1c0-.2-.2-.2-.2-.3l.2-.2c.2,0,.2.2.3.2l-.3.3Z"/>
        <path id="Pfad_502" data-name="Pfad_50" class="st0" d="M33.7,62.5c.3-.2.5-.2.8-.3,0,.2-.6.3-.8.3Z"/>
        <path id="Pfad_512" data-name="Pfad_51" class="st0" d="M17.9,56.7c.3.2.5.3.8.5v.2c-.3-.2-.6-.4-.8-.6h0Z"/>
        <path id="Pfad_522" data-name="Pfad_52" class="st0" d="M34.7,61.9c-.2.2-.5.2-.6.3h0c.1-.2.4-.3.6-.3Z"/>
        <path id="Pfad_532" data-name="Pfad_53" class="st0" d="M63.4,65h-.8c.3,0,.6-.2.8,0Z"/>
        <path id="Pfad_542" data-name="Pfad_54" class="st0" d="M26.5,62.3c-.2-.2-.5-.2-.6-.3v-.2c.3.2.5.2.6.5Z"/>
        <path id="Pfad_552" data-name="Pfad_55" class="st0" d="M43.8,57.5h0c0,0,.2-.2.3-.2v.2c0,0-.2,0-.3,0h0Z"/>
        <path id="Pfad_562" data-name="Pfad_56" class="st0" d="M22.9,65.2c-.2-.2-.3-.2-.5-.3h0c.2.2.3.2.5.3Z"/>
        <path id="Pfad_572" data-name="Pfad_57" class="st0" d="M61.5,65.5h-.5v-.2c.2,0,.3.2.5.2Z"/>
        <path id="Pfad_582" data-name="Pfad_58" class="st0" d="M31.2,63h-.5v-.2c.2,0,.4,0,.5.2Z"/>
        <path id="Pfad_592" data-name="Pfad_59" class="st0" d="M21,64.1l.3.3h0c-.2-.2-.3-.2-.3-.3Z"/>
      </g>
    </g>
    <g id="Gruppe_32" data-name="Gruppe_3">
      <path id="Pfad_602" data-name="Pfad_60" class="st0" d="M52.1,35.1c.2,0,.5,0,.5.2,0,0-.2.1-.3.2.2-.2-.2-.2-.2-.3h0ZM53.5,34.8l-.2-.2c-.2,0,0,.2.2.2h0Z"/>
    </g>
    <g id="Gruppe_42" data-name="Gruppe_4">
      <path id="Pfad_632" data-name="Pfad_63" class="st0" d="M32.1,35.9v.2h0v-.2ZM32.5,36.5c.2,0,.2.2,0,0ZM33.3,35.9h0ZM33.8,35.6c-.2,0-.2.2,0,0ZM33.8,35.4c0,.2.2.2,0,0l.2.2c.2,0,0-.2-.2-.2Z"/>
    </g>
  </g>
</svg>