<?xml version="1.0" encoding="UTF-8"?>
<svg xmlns="http://www.w3.org/2000/svg" version="1.1" viewBox="0 0 314.81 126.76">
  <defs>
    <style>
      .cls-1 {
        fill: #1a08f5;
      }
    </style>
  </defs>
  <!-- Generator: Adobe Illustrator 28.7.4, SVG Export Plug-In . SVG Version: 1.2.0 Build 166)  -->
  <g>
    <g id="Ebene_1">
      <g id="Ebene_1-2" data-name="Ebene_1">
        <g>
          <path class="cls-1" d="M29.67,60.92c-.04-.52.4-.32.61-.65h-1.33c0-.16.28-.2.36-.2,0-.04-.08-.12-.12-.12-.85-.44-.2-.32-.6-.77l-.28-7.83c0-.24.08-.77.08-.77h.16v-.56c-.04.2-.16.32-.28.36v-1.41c-.04-4.64.81-9.4.61-14.13l.08.08c.2-.32.08-.73.2-1.05.08-.2.65-.56.81-.73,0-.04.04-.12.04-.12h.08c.2,0,.44.28.65.32,0-.08.08-.36.16-.44l.56.56c.16-.08.16-.28.16-.4,1.45-.04,2.83,1.05,3.71,2.06,2.14,2.5,4.56,5.41,5.65,8.6.28-.56.85-1.49,1.25-2.06l3.27-4.44c.52-1.05,1.09-2.02,1.86-2.87.24-.24,1.29-1.29,1.57-1.53.28-.36.69-.36.81-.69,0,.04.04.08.08.08,0,0,.2-.16.24-.16h.12c.04.08.2.4.2.48.12.56-.48.56-.52.77l.36.12.52-.52.08.12s.2-.12.24-.12l.12.12s-.08.32-.08.36c.04,0,.16.08.2.04l.28-.28c.24.12.4.36.48.61,0-.08.28-.44.32-.44h.04s.12.08.12.12c1.94,2.34,1.65,5.45,2.38,8.19l.04,8.31c0,.2-.04,1.09-.04,1.33v.04c0,.4.28,1.33.32,1.78.16,1.61,0,5.04.04,6.74v.12c0,.28,0,.89-.32.89-.16,0-.28-.24-.52-.24-.36,0-.44.61-.81.61-.04,0-.2-.2-.24-.24-.04.08-.4.24-.48.24-.04,0-.44-.16-.48-.2l-.52-.24s-.2-.4-.24-.4c0,0-.04-.04-.08-.04-.24,0-.36.32-.73.32-.77,0-.77-.65-1.09-1.25-.12-.2-.56-.24-.56-.52l-.04-.04s.08-.12.08-.16h.12s.2.08.24.08c0-1.21.24-3.96.2-6.86.04-.08.12-.48.12-.52,0-.16-.16-1.21-.16-1.33v-.69c0-.89.24-1.82.2-2.66,0-.77-.2-2.91-1.05-3.35v-1.09c-1.17,1.61-2.38,3.43-3.35,5.21l-1.17,2.26c-.2.36-.48.97-.85,1.21-.04,0-.12-.04-.12-.08v-.12s.08-.16.12-.2c-.12,0-.56-.16-.65-.16h-.08s-.2.2-.24.2h-.24l-.73.2c-.04-.08-.28-.28-.36-.28-.04-.04-.28.16-.32.16,0,0-.08.04-.12.04-.08,0-.24,0-.28-.12,0,.08-.16.36-.2.4h-.24c-.28,0-.77,0-.97-.16-1.37-1.21-1.82-1.94-2.58-3.51-.61-1.21-2.06-4.04-2.1-4.04h-.12c0,1.01-.08,5.69-.08,6.7v3.11c0,2.18.48,5.25-.48,6.98l.12.2c0,.08.04.36.04.44h-.89l-.2.44h-.12s-.16-.2-.2-.2c-.04.16-2.14.69-2.18.69,0-.28.12-.44.12-.69h-.78ZM28.33,58.46s.08.16.12.2v.08s-.12-.28-.12-.28ZM28.54,49.18c.12,0,.12-.24,0-.24s-.12.24,0,.24ZM28.54,49.54c.08-.04.08-.2,0-.24s-.08.24,0,.24ZM28.54,49.78c.08,0,.08-.08,0-.08s-.08.12,0,.08ZM28.66,47.32c.12,0,.12-.16,0-.16s-.12.16,0,.16ZM28.58,52c0,.16.08,1.01.12-.65-.16.12-.12.2-.12.4v.24h0ZM28.66,48.21c.08-.12.08-.56,0-.69-.08-.08-.08.77,0,.69ZM28.66,48.73c.08-.04.08-.2,0-.24-.08,0-.08.28,0,.24ZM28.74,45.83s.04-.12,0-.12c-.08,0-.08.12,0,.12ZM28.74,46.67s.04-.2,0-.24c-.08,0-.08.28,0,.24ZM28.82,43.32s.04-.36,0-.4c-.08-.08-.04.48,0,.4ZM30.68,60.92h.2v-.12c-.08,0-.2.04-.2.12ZM32.29,33.64c.12-.04.12-.2,0-.16-.12,0-.12.16,0,.16ZM36.53,46.8c.08,0,.08-.12,0-.12-.04,0-.04.12,0,.12ZM36.69,47.16c.12,0,.12-.24,0-.24s-.12.24,0,.24ZM36.81,47.4h.04c0,.08,0,.12.04.12.12,0,.12-.24,0-.24,0-.04-.04-.04-.08-.04-.12,0-.12.16,0,.16ZM36.85,47.4s.04-.08.04-.12c-.04.04-.04.08-.04.12ZM37.01,47.76c.08,0,.08-.24,0-.24-.12,0-.12.24,0,.24ZM37.09,48.01c.12,0,.12-.24,0-.24-.08,0-.08.24,0,.24ZM37.09,45.06s.04.2.08.2v-.32h-.12s.04.08.04.12ZM37.21,48.09c.08,0,.08-.08,0-.08s-.08.08,0,.08ZM37.33,48.33c.12,0,.12-.24,0-.24s-.12.24,0,.24ZM37.46,48.41s.04-.08,0-.08c-.08-.04-.08.08,0,.08ZM37.58,48.61l.08.12.04-.04-.04-.08s-.08-.08-.08-.12c0,.04-.04.08-.04.08l.04.04ZM37.74,47.64v.12l.24-.48h-.12s-.08.28-.12.36ZM37.74,48.94c.08,0,.08-.08,0-.08v.08ZM37.86,49.18h.04c0,.08,0,.12.08.12h.04c0,.08,0,.12.08.12.12,0,.12-.24,0-.24-.04,0-.04.04-.04.04,0-.08-.04-.16-.08-.16s-.04.04-.04.04c0-.08-.04-.16-.08-.16-.12,0-.12.24,0,.24ZM37.9,49.18s0-.08.04-.08c0,.04-.04.08-.04.08ZM38.1,47.52c.12,0,.12-.24,0-.24s-.12.24,0,.24ZM38.02,49.3s0-.08.04-.08c0,.04-.04.08-.04.08ZM38.22,49.62c.12,0,.12-.2,0-.2s-.12.2,0,.2ZM39.19,49.18v-.08c0-.69-.48-1.13-.97-1.57v.2c0,.4.61,1.17.97,1.45ZM39.31,49.42h.12l-.12-.12v.12ZM39.72,49.7v-.12s-.12-.08-.12-.12h-.08s.2.24.2.24ZM39.8,49.86c.12,0,.12-.16,0-.16-.08,0-.08.16,0,.16ZM41.09,44.05s.24.12.32.08c0,0,.2-.16.24-.16,1.37-2.02,2.91-3.96,4.16-6.01l.52-1.09c.16-.32.32-.44.28-.81v-.2c-.04.16-.16.28-.32.36l.12.08c-.52.36-1.13,1.9-1.49,2.38,0,0-3.83,5.37-3.83,5.37ZM42.62,44.05c.08,0,.16-.08.12-.08-.04-.08-.2.04-.12.08ZM42.86,43.69c.24-.36.61-.28.81-.65-.44.04-.65.28-.81.65ZM43.35,43.04c.08,0,.08-.2,0-.2-.12,0-.12.2,0,.2ZM43.43,42.36c.12-.04.28-.08.32-.16-.12.04-.24.08-.32.16ZM45.16,40.58c-.2.61-1.65,1.74-1.65,2.14h.16s.73-.69.97-.97l.85-1.05c.16-.24.73-.97.6-1.21l.57-.61v-.12l-.12-.12c.08-.08.24-.16.36-.16l.73-1.21c-.04-.2.04-.77.44-.69l.6-.93h-.24c-.12.04-.36.16-.36.2l-.97,1.41h.28c-.2.52-1.29,1.21-1.29,1.65,0,.04.08.12.12.12-.08.16-.2.4-.4.44l.08.12c-.24.24-.56.56-.73.97v.02ZM49.28,32.39s-.04-.12,0-.12c.08.04.08.12,0,.12ZM49.93,32.67h.12c-.04-.12-.16-.12-.24-.08h-.08s.16.08.2.08ZM50.09,45.22c.08.04.16-.04.12-.12-.04-.04-.2.08-.12.12ZM50.37,40.9c.12,0,.12-.2,0-.2-.08,0-.08.2,0,.2ZM50.41,45.5c-.04.08-.08.24-.08.28v.12c.12-.04.12-.2.12-.28,0,0-.04-.04-.04-.12ZM50.41,43.73c.12,0,.12-.24,0-.24-.08,0-.08.24,0,.24ZM50.41,45.1c.12,0,.12-.2,0-.2-.08,0-.08.2,0,.2ZM50.45,43.08c-.08.04-.04.2.08.2.08,0,.08-.16,0-.2.08-.04.04-.2-.04-.2-.12,0-.12.16-.04.2ZM50.49,42.76c.12,0,.12-.24,0-.24s-.12.24,0,.24ZM50.61,41.67l.04-.12c0-.08,0-.16-.16-.2v.12l.12.2ZM50.61,41.11s.04-.08,0-.12c-.04,0-.04.12,0,.12ZM52.35,33.88s.04-.12,0-.12-.04.12,0,.12Z"/>
          <path class="cls-1" d="M58.21,58.06c.36-2.26.97-4.48,1.7-6.62.04-.04.12-.2.12-.24.04-.08.04-.16.08-.24.24-.93.48-1.78.73-2.74.28-1.25.97-2.38,1.33-3.63.32-1.21.48-2.46.77-3.63.28-.89.85-2.18,1.13-2.95-.08-.32.16-.48.2-.73.16-.89.4-1.7.48-2.46l1.29-1.33c.44-.08.73-.28,1.25-.36-.24-.36.89-.48,1.09-.48.65,0,1.41.57,1.82,1.05.04.04.2.28.24.32,0,0,.04.08.08.08l1.61,3.39s.97,2.34.97,2.38c.12.24.77,2.18.85,2.42,1.61,5,4.08,11.38,5.45,16.39,0,1.57-1.78,1.53-3.15,1.53h-.65c-1.74,0-1.65-2.83-2.5-4.04h-.12c-1.45.44-2.95-.04-4.44.28-.65-.12-4,.32-4.64.6-.12.61-.28.73-.52,1.21-.61,1.29.48,1.53-.97,2.1-.6.28-.32.4-1.09.4-1.45.04-3.11-.28-3.15-2.1,0-.08.04-.52.04-.61h0ZM65.63,51.92h.4c1.53-.04,5.61-.24,5.61-.4v-.04c-.12-.32-.65-1.78-.73-2.06-.04,0-.12-.2-.12-.24v-.08c-.08-.32-.32-1.25-.32-1.33-.4-1.21-1.78-6.74-2.26-7.87,0,.04-.08.28-.08.36-.08.24-1.21,6.7-1.29,6.94-.08.32-.52,1.86-.65,2.22.16.36-.56,1.86-.56,2.5Z"/>
          <path class="cls-1" d="M92.15,61.49h-6.38v-.16c.16-.04.85-.04,1.21-.2h-.36c-.4,0-.93-.08-1.05-.12v-.28c-.28,0-.61,0-.77.08-.28-.04-.85-.24-.85-.65-.04-.08.16-.12.16-.12,0-.16-.08-.2-.12-.2-.16,0-.04.2-.28.2-.04-.12.04-.28.12-.32,0-.32-.52-.4-.69-.48,0-.2.12-.44.12-.65,0-.24-.24-.4-.24-.65,0-1.82.52-3.03.12-5.04v-9.44c-.08.04-.12.12-.16.2v-1.13l.16-.36v-3.67c0-.2-.48-.12-.48-.28v-1.05c-.08,0-.12-.12-.12-.24,0-.08.04-.2.04-.2l-.32-.93c-.04-.12.12-.08.12-.16.12.08.16.28.2.36.44-.08.08-.61.44-.81.08.04.12.12.12.2v.04s.2-.08.24-.12c-.12-.2-.12-.56-.12-.69.04.04.2.12.24.12.36,0,.32-.48.56-.48.04-.04.08.04.12.08.12,0,.32,0,.32-.16,0-.4-.36-.6-.36-.97.77,0,1.33.52,1.41.52l.36-.12s.08.04.48.73c0-.12.12-.28.2-.28.24,0,.52.69.52.97,0,.32-.16.65-.12.97.04.24.28,1.17.28,1.41.12.04.12.12.12.2,0,.2-.2.32-.2.61.12.12.08.36.08.56.12-.12.12-.4.32-.4.44,0,.48.04.85,3.47v.12l.28,3.23s-.04,1.25-.12,1.49c0,1.25.32,2.62.32,3.83,0,.85-.32,1.65-.32,2.54,0,.48.44.81.44,1.57s.12.93-.16,2.02c1.53,0,2.87-.12,4.28-.12.65,0,1.74,0,2.5.24.08,0,.52.2.56.2.81,0,2.7-.2,2.7.73,0,.56-.28,1.21-.44,1.74-.24.04-.48.24-.48.48,0,.2.36.4.36.61-.69.65-1.7,1.29-2.5,1.29-1.21,0-2.46-.2-3.63-.24l-.12-.08h.04ZM82.83,58.14s0,.12-.04.12-.08-.04-.08-.08c0-.08.04-.16.08-.16.04.04.04.08.04.12ZM82.83,59.23c0,.08,0,.16-.04.2s-.08-.08-.08-.2.04-.2.08-.2c.04.04.04.12.04.2ZM83.03,33.92c.16,0,.73.04.73.36.08.04-.28.12-.4.12.04,0-.32-.12-.32-.44v-.04h-.01ZM84.08,34.04s0,.08-.04.08-.08-.04-.08-.08c0-.08.04-.12.08-.12s.04.04.04.12ZM85.29,33.72c-.08-.12-.2-.2-.32-.2,0,.12.12.2.32.2ZM88.36,60.92c.12.04.24.08.28.08.2,0,.24.04.4-.08h-.69.01Z"/>
          <path class="cls-1" d="M113.75,61.69c0-.36,0-.77.24-1.05.2-2.62.16-4.64.16-7.31h-.08s-.24.12-.28.12h-.12s-.28-.24-.28-.28c0-.4-.08-2.06-.12-2.42,0-.12-.08-.65-.12-.77h-.44c-.56,0-6.01.52-6.01.65v5c0,.08-.28,2.18-.4,3.07-.04.08-.12.48-.12.48-.28.52-.4.2-.73.4-.44.4-1.01,1.01-1.25,1.49-.04,0-.08.08-.12.12-.08,0-.77.16-.85.2-.04.04-.44.28-.52.28,0,0-.12.04-.2.04-.2,0-.4-.16-.65-.16h-.08l-.28.56h-.16c-.32,0-.48-.16-.48-.52,0-2.26.32-4.52.32-6.82,0-1.57-.16-6.9-.32-7.91,0-.04-.08-.2-.12-.2.08-1.25.52-2.87.08-4.08-.04-.28-.52-.32-.61-.65-.08-1.33-.08-2.91-.08-4.36,0-.85.12-1.65.4-2.5,0-.04.08-.2.12-.24v-.16c-.04-.08-.12-.4-.12-.44.2,0,.24-.12.24-.2,0,0-.04-.08-.04-.12,0,0-.12-.16-.08-.2.04-.24.2-.2.36-.2,1.05,0,1.78.08,2.54.73,0,.04.24.28.32.32.04,0,.2-.04.2-.12v.12c.77,2.3,1.41,4.64,1.65,7.06,0-.16.08-.52.2-.73.24.08.24.65.32.85l-.08,3.67.12.4h.24c1.98,0,3.87-.52,5.81-.52.73,0,1.45.12,2.18.12v-4.4l-.12-.65c-.4.24-.32-.44-.48-.48-.04,0-.12.08-.12.08,0,0-.04.04-.08.04l-.04-.04c-.12-.28-.12-.32-.12-.52v-.2c.04-.36.12-2.22.12-2.58.04-.04.77-1.33.77-1.37s-.04-.12-.04-.12c0,0-.2-.28-.2-.32,0-.08.32-.52.44-.52v-.73c-.12,0-.36-.08-.44-.2.04,0,.16-.04.2-.08.04-.04.28-.32.32-.32,1.86,0,4.68-.85,5.29,3.15v2.78c-.04.61-.24,1.69-.32,2.22v.08l.08.12s.04.04.04.04c-.32,0-.2.85-.2.89,0,.77.08,1.53.08,2.3,0,1.09-.32,2.14-.32,3.23,0,.2.56.65.56.65,0,0,.12.28.12.32s-.16.2-.2.2v.08c.04.89.08,1.53-.24,2.3l-.28,3.35s-.12.16-.12.2v.85c0,.08-.08.77-.08.85,0,.4.48.12.48.61v.12c0,.16-.08,1.21-.08,1.41-.12.32-1.09,1.57-1.09,1.61v.08s.12.08.12.12v.08c-.36.48-.65.65-1.37.65v.08c.08.08.32.12.36.12s.16-.2.16-.2c0,0,.04-.04.08-.04.12,0,.44.24.56.24v.08c0,.44-2.18.56-2.78.56-.12,0-.69.04-.69-.16v-.08s.08-.08.12-.12c-.16-.2-.44-.28-.6-.48-.16.24-.2.77-.24,1.01h-.08c-.16,0-.24-.04-.32-.16v-.44h0ZM119.96,41.99v.16c-.2-.12-.24-.28-.24-.48.2,0,.24.12.24.32Z"/>
          <path class="cls-1" d="M122.91,58.06c.36-2.26.97-4.48,1.7-6.62.04-.04.12-.2.12-.24.04-.08.04-.16.08-.24.24-.93.48-1.78.73-2.74.28-1.25.97-2.38,1.33-3.63.32-1.21.48-2.46.77-3.63.28-.89.85-2.18,1.13-2.95-.08-.32.16-.48.2-.73.16-.89.4-1.7.48-2.46l1.29-1.33c.44-.08.73-.28,1.25-.36-.24-.36.89-.48,1.09-.48.65,0,1.41.57,1.82,1.05.04.04.2.28.24.32,0,0,.04.08.08.08l1.62,3.39s.97,2.34.97,2.38c.12.24.77,2.18.85,2.42,1.61,5,4.08,11.38,5.45,16.39,0,1.57-1.78,1.53-3.15,1.53h-.65c-1.74,0-1.66-2.83-2.5-4.04h-.12c-1.45.44-2.95-.04-4.44.28-.65-.12-4,.32-4.64.6-.12.61-.28.73-.53,1.21-.61,1.29.48,1.53-.97,2.1-.6.28-.32.4-1.09.4-1.45.04-3.11-.28-3.15-2.1,0-.08.04-.52.04-.61h0ZM130.34,51.92h.4c1.53-.04,5.61-.24,5.61-.4v-.04c-.12-.32-.65-1.78-.73-2.06-.04,0-.12-.2-.12-.24v-.08c-.08-.32-.32-1.25-.32-1.33-.4-1.21-1.78-6.74-2.26-7.87,0,.04-.08.28-.08.36-.08.24-1.21,6.7-1.29,6.94-.08.32-.53,1.86-.65,2.22.16.36-.56,1.86-.56,2.5h0Z"/>
          <path class="cls-1" d="M145.44,53.13c-.32-2.42-.61-4.76-.61-7.14v-1.57l.32-1.69c.08-.52.44-4.68.52-5.21,0-.12.12-.89.2-1.09l.48-2.02.04-.04-.04-.04-.12-.12c0-.24.69-.61.93-.61.04,0,.61.2.69.2.32-.08.44-.4.77-.4.28,0,1.17.12,1.25.4.04.12.36,1.13.44,1.21,0,.04.04.16.08.2,0,.12.08.44.08.52v10.65l.61,5.41c0,.16.32,1.41.44,1.86.12.52.77,2.22,1.41,2.42h.77c2.1,0,3.27-.97,4.56-2.54.16-.2.52-.28.6-.52.48-1.21.44-3.11.57-4.4.04-.73.08-1.17.04-1.94-.04-.04-.44-.56-.44-.69l.2-2.18c-.12-.04-.28-.28-.32-.44.04-.52.04-3.03,0-3.55,0-.52-.04-1.33-.16-1.82-.24-1.25,0-2.5,0-3.79l-.2.12c0-.52.48-.36.61-.85l.81.08-.04.04c.73.04.48-.44.73-.44v.12h.16l.04-.36s.2.04.24,0c.04,0,.4-.16.44-.2,0,0,.16.12.2.12s.16-.04.2-.08c.65.57.89,1.21,1.25,1.94,1.61,3.11,1.13,5.53,1.17,9,.04.08.08.73.08.77l.2,5.53v-.69c.12.48.12.73.12,1.21v.36l-.08.2c0,.08.04.28.04.32l.04.6-.08.12-.12-.12c-.28.61-.12.57-.32,1.21-.2.85-.48,1.7-.69,2.54l-1.09,2.22c-.4.65-1.17,1.29-1.94,1.29-.2,0-.36-.08-.52-.08h-.12c-1.09,1.05-2.46,1.74-3.96,1.74-.69,0-1.29-.2-1.9-.2-.52,0-1.05.2-1.57.2-1.29,0-5.25-2.62-5.21-3.79-.65-1.13-1.13-2.5-1.78-3.67,0-.12-.04-.2-.04-.32h.02ZM161.26,33.52v-.08c0-.2.04-.36-.2-.36-.04.2.04.36.2.44ZM164.57,51.92c.12,0,.12-.2,0-.2-.08,0-.08.2,0,.2Z"/>
          <path class="cls-1" d="M168.16,51.76c0,.69-.28,1.29-.36,1.94h-.2v-2.06c0-.12.24-.12.28-.12.16,0,.28.12.28.24ZM169.21,54.83c.28.57.4,1.21.65,1.78.32.85,1.98,2.62,2.91,2.91.44.16,1.13.2,1.61.2h.44c-1.61-.24-2.83-1.29-3.96-2.46-.81-.89-1.01-1.78-1.49-2.83l-.16-.16s-.2.04-.32.08l-.16.08h-.08c-.08-.56-.4-1.05-.4-1.65,0-.65.65-.85.6-1.53h.04c.28,0,.36.16.61.16v-.52c0-.08.04-.56.08-.65,0,0,.08-.04.12-.04.2,0,.28.36.44.48v-1.41c.24,0,.36.4.52.56v-.36h.12s.4.4.57.56c.32.36.48.85.65,1.21,0,.04.08.08.12.08.16.16.32.28.48.4.2.24,0,.97.36.97,0,.12-.12.24-.12.4.48,1.17.69,3.27,2.34,3.31.69,0,2.74-1.21,3.11-1.86.16-.28.61-1.65.61-1.98,0-.61-.28-.65-.48-1.13-.24-.56-.36-1.29-.77-1.78-1.21-1.65-3.35-1.65-4.88-2.83-1.05-.81-1.74-1.86-2.54-2.95-.16-.2-.4,0-.65-.24-.44-1.33-.85-2.54-.85-3.92,0-.56.12-1.94.85-1.94,0,.69-.56,1.33-.56,2.02v.08l.08.24c.12-.69.28-1.09.48-1.65,0,0,.12-.16.12-.2,0,0-.08-.08-.12-.08.04-.04.12-.12.2-.08.24-.28.57-1.94.73-1.98h.28c.24-.04.36-.28.48-.4.12-.08.73-.52.85-.65,0-.24.2-.24.36-.28.08-.04.2-.08.28-.12,1.49-.69,3.47-1.57,5.17-1.57,2.22,0,4.64.28,5.93,2.38.08.08.32,1.01.4,1.09.48.73.36,2.22.36,2.99,0,.89.08,1.37-.28,2.22-.24.4-.85.16-1.21.28-.04,0-.16.16-.2.2,0,0-.12.08-.2.12-.77.32-.97.2-1.86.2h-.48c-.12,0-.12-.12-.12-.16,0-.16.12-.16.12-.28v-.12c-.04-.44-.16-1.57-.2-1.57l-.12-.2c-.12.04-.24.16-.36.28v.73c0,.52.12.97.12,1.41-.2,0-.32-.16-.28-.36,0-.24-.08-1.41-.12-1.7-.04-.44-.2-.48-.28-.93-.24-1.33-.56-3.03-2.3-3.03-.89,0-2.1,2.14-2.1,2.99,0,.56.04,1.41.08,1.82.12.73.81,1.29,1.25,1.78v.32s-.12.04-.12.08c0,0,.08.12.12.16,0,.04.04.08.08.08l4.32,2.3c2.54,1.33,3.11,2.87,3.96,5.33,0,.04.08.12.08.12v.48c0,.81-.32,1.57-.65,2.3,0,.04-.04.08-.04.12-.48,1.49-1.37,3.11-2.78,3.96-.85.52-1.7.93-2.62,1.29-.08.04-.32.16-.36.2-.69.52-1.13.69-2.1.69-2.46,0-4.56-.97-6.09-2.95-.16-.2-.12-.44-.16-.69-.32-.77-.89-1.57-.89-2.46.16,0,.32.08.4.24l-.02.02ZM168.36,51.4v.04s-.08.08-.12.08v-.08s.08-.08.12-.12c0,0,0,.08,0,.08ZM169.37,50.02c-.04.2-.16.36-.4.36,0-.16.24-.4.4-.4v.04ZM169.78,37.84c-.08-.04.08-.16.08-.12,0,.08-.04.12-.08.12ZM170.62,49.46c-.12,0-.12-.16,0-.16.08,0,.08.16,0,.16ZM170.71,50.15c.08,0,.08-.2,0-.2s-.08.2,0,.2ZM175.39,59.87s.2-.04.2-.08h-.65s.36.08.44.08h0ZM175.67,59.99c.12,0,.12-.2,0-.2-.08,0-.08.2,0,.2ZM179.99,59.51v-.08c0-.24.24-.36.4-.48l-.4.56ZM185.03,39.17c-.08,0-.08-.08,0-.08.04,0,.04.08,0,.08Z"/>
          <path class="cls-1" d="M29.6,91.93c-.03-.4.31-.25.46-.49h-1.02c0-.12.22-.15.28-.15,0-.03-.06-.09-.09-.09-.65-.34-.15-.25-.46-.59l-.22-5.99c0-.19.06-.59.06-.59h.12v-.43c-.03.16-.12.25-.22.28v-1.08c-.03-3.55.62-7.2.46-10.81l.06.06c.15-.25.06-.56.15-.8.06-.15.49-.43.62-.56,0-.03.03-.09.03-.09h.06c.15,0,.34.22.49.25,0-.06.06-.28.12-.34l.43.43c.12-.06.12-.22.12-.31,1.11-.03,2.16.8,2.84,1.58,1.64,1.92,3.49,4.14,4.32,6.58.22-.43.65-1.14.96-1.58l2.5-3.4c.4-.8.83-1.54,1.42-2.19.19-.19.99-.99,1.2-1.17.22-.28.52-.28.62-.52,0,.03.03.06.06.06,0,0,.15-.12.19-.12h.09c.03.06.15.31.15.37.09.43-.37.43-.4.59l.28.09.4-.4.06.09s.15-.09.19-.09l.09.09s-.06.25-.06.28c.03,0,.12.06.15.03l.22-.22c.19.09.31.28.37.46,0-.06.22-.34.25-.34h.03s.09.06.09.09c1.48,1.79,1.27,4.17,1.82,6.27l.03,6.36c0,.15-.03.83-.03,1.02v.03c0,.31.22,1.02.25,1.36.12,1.24,0,3.86.03,5.16v.09c0,.22,0,.68-.25.68-.12,0-.22-.19-.4-.19-.28,0-.34.46-.62.46-.03,0-.15-.16-.19-.19-.03.06-.31.19-.37.19-.03,0-.34-.12-.37-.16l-.4-.18s-.15-.31-.19-.31c0,0-.03-.03-.06-.03-.19,0-.28.25-.56.25-.59,0-.59-.49-.83-.96-.09-.15-.43-.18-.43-.4l-.03-.03s.06-.09.06-.12h.09s.15.06.19.06c0-.93.19-3.03.15-5.25.03-.06.09-.37.09-.4,0-.12-.12-.93-.12-1.02v-.52c0-.68.19-1.39.15-2.04,0-.59-.15-2.22-.8-2.56v-.83c-.9,1.24-1.82,2.62-2.56,3.98l-.9,1.73c-.15.28-.37.74-.65.93-.03,0-.09-.03-.09-.06v-.09s.06-.12.09-.15c-.09,0-.43-.12-.49-.12h-.06s-.15.16-.19.16h-.19l-.56.15c-.03-.06-.22-.22-.28-.22-.03-.03-.22.12-.25.12,0,0-.06.03-.09.03-.06,0-.19,0-.22-.09,0,.06-.12.28-.15.31h-.19c-.22,0-.59,0-.74-.12-1.05-.93-1.39-1.48-1.98-2.69-.46-.93-1.58-3.09-1.61-3.09h-.09c0,.77-.06,4.36-.06,5.13v2.38c0,1.67.37,4.02-.37,5.34l.09.16c0,.06.03.28.03.34h-.68l-.15.34h-.09s-.12-.15-.15-.15c-.03.12-1.64.53-1.67.53,0-.22.09-.34.09-.53h-.59l.07-.04ZM28.58,90.05s.06.12.09.15v.06l-.09-.22h0ZM28.74,82.94c.09,0,.09-.18,0-.18s-.09.18,0,.18ZM28.74,83.22c.06-.03.06-.15,0-.19-.06-.03-.06.19,0,.19ZM28.74,83.41c.06,0,.06-.06,0-.06s-.06.09,0,.06ZM28.83,81.52c.09,0,.09-.12,0-.12s-.09.12,0,.12ZM28.77,85.11c0,.12.06.77.09-.49-.12.09-.09.15-.09.31v.19h0ZM28.83,82.2c.06-.09.06-.43,0-.52-.06-.06-.06.59,0,.52ZM28.83,82.6c.06-.03.06-.15,0-.18-.06,0-.06.22,0,.18ZM28.89,80.38s.03-.09,0-.09c-.06,0-.06.09,0,.09ZM28.89,81.03s.03-.16,0-.19c-.06,0-.06.22,0,.19ZM28.95,78.47s.03-.28,0-.31c-.06-.06-.03.37,0,.31ZM30.38,91.93h.15v-.09c-.06,0-.15.03-.15.09ZM31.61,71.05c.09-.03.09-.15,0-.12-.09,0-.09.12,0,.12ZM34.85,81.12c.06,0,.06-.09,0-.09-.03,0-.03.09,0,.09ZM34.98,81.4c.09,0,.09-.19,0-.19s-.09.19,0,.19ZM35.07,81.59h.03c0,.06,0,.09.03.09.09,0,.09-.19,0-.19,0-.03-.03-.03-.06-.03-.09,0-.09.12,0,.12h0ZM35.1,81.59s.03-.06.03-.09c-.03.03-.03.06-.03.09ZM35.22,81.86c.06,0,.06-.18,0-.18-.09,0-.09.18,0,.18ZM35.29,82.05c.09,0,.09-.19,0-.19-.06,0-.06.19,0,.19ZM35.29,79.79s.03.15.06.15v-.25h-.09s.03.06.03.09h0ZM35.38,82.11c.06,0,.06-.06,0-.06s-.06.06,0,.06ZM35.47,82.3c.09,0,.09-.19,0-.19s-.09.19,0,.19ZM35.56,82.36s.03-.06,0-.06c-.06-.03-.06.06,0,.06ZM35.66,82.51l.06.09.03-.03-.03-.06s-.06-.06-.06-.09c0,.03-.03.06-.03.06l.03.03ZM35.78,81.77v.09l.19-.37h-.09s-.06.22-.09.28h0ZM35.78,82.76c.06,0,.06-.06,0-.06v.06ZM35.87,82.94h.03c0,.06,0,.09.06.09h.03c0,.06,0,.09.06.09.09,0,.09-.19,0-.19-.03,0-.03.03-.03.03,0-.06-.03-.12-.06-.12s-.03.03-.03.03c0-.06-.03-.12-.06-.12-.09,0-.09.18,0,.18h0ZM35.9,82.94s0-.06.03-.06c0,.03-.03.06-.03.06ZM36.06,81.68c.09,0,.09-.19,0-.19s-.09.19,0,.19ZM36,83.04s0-.06.03-.06c0,.03-.03.06-.03.06ZM36.15,83.28c.09,0,.09-.15,0-.15s-.09.15,0,.15ZM36.89,82.94v-.06c0-.53-.37-.86-.74-1.2v.15c0,.31.46.9.74,1.11ZM36.98,83.13h.09l-.09-.09v.09ZM37.29,83.34v-.09s-.09-.06-.09-.09h-.06s.15.18.15.18ZM37.36,83.47c.09,0,.09-.12,0-.12-.06,0-.06.12,0,.12ZM38.34,79.02s.19.09.25.06c0,0,.15-.12.19-.12,1.05-1.54,2.22-3.03,3.18-4.6l.4-.83c.12-.25.25-.34.22-.62v-.15c-.03.12-.12.22-.25.28l.09.06c-.4.28-.86,1.45-1.14,1.82l-2.93,4.11h-.01ZM39.52,79.02c.06,0,.12-.06.09-.06-.03-.06-.15.03-.09.06ZM39.7,78.74c.19-.28.46-.22.62-.49-.34.03-.49.22-.62.49ZM40.07,78.25c.06,0,.06-.15,0-.15-.09,0-.09.15,0,.15ZM40.14,77.72c.09-.03.22-.06.25-.12-.09.03-.19.06-.25.12ZM41.46,76.37c-.15.46-1.27,1.33-1.27,1.64h.12s.56-.52.74-.74l.65-.8c.12-.19.56-.74.46-.93l.43-.46v-.09l-.09-.09c.06-.06.19-.12.28-.12l.56-.93c-.03-.15.03-.59.34-.53l.46-.71h-.19c-.09.03-.28.12-.28.15l-.74,1.08h.22c-.15.4-.99.93-.99,1.27,0,.03.06.09.09.09-.06.12-.15.31-.31.34l.06.09c-.19.19-.43.43-.56.74h.02ZM44.61,70.1s-.03-.09,0-.09c.06.03.06.09,0,.09ZM45.11,70.31h.09c-.03-.09-.12-.09-.19-.06h-.06s.12.06.15.06h0ZM45.23,79.92c.06.03.12-.03.09-.09-.03-.03-.15.06-.09.09ZM45.45,76.61c.09,0,.09-.15,0-.15-.06,0-.06.15,0,.15ZM45.48,80.13c-.03.06-.06.19-.06.22v.09c.09-.03.09-.15.09-.22,0,0-.03-.03-.03-.09ZM45.48,78.77c.09,0,.09-.19,0-.19-.06,0-.06.19,0,.19ZM45.48,79.82c.09,0,.09-.15,0-.15-.06,0-.06.15,0,.15ZM45.51,78.28c-.06.03-.03.15.06.15.06,0,.06-.12,0-.15.06-.03.03-.15-.03-.15-.09,0-.09.12-.03.15ZM45.54,78.03c.09,0,.09-.19,0-.19s-.09.19,0,.19ZM45.63,77.2l.03-.09c0-.06,0-.12-.12-.15v.09l.09.15ZM45.63,76.77s.03-.06,0-.09c-.03,0-.03.09,0,.09ZM46.96,71.24s.03-.09,0-.09-.03.09,0,.09Z"/>
          <path class="cls-1" d="M50.51,89.74c.28-1.73.74-3.43,1.3-5.07.03-.03.09-.15.09-.18.03-.06.03-.12.06-.19.19-.71.37-1.36.56-2.1.22-.96.74-1.82,1.02-2.78.25-.93.37-1.88.59-2.78.22-.68.65-1.67.86-2.25-.06-.25.12-.37.15-.56.12-.68.31-1.3.37-1.88l.99-1.02c.34-.06.56-.22.96-.28-.19-.28.68-.37.83-.37.49,0,1.08.43,1.39.8.03.03.15.22.19.25,0,0,.03.06.06.06l1.24,2.59s.74,1.79.74,1.82c.09.19.59,1.67.65,1.85,1.24,3.83,3.12,8.71,4.17,12.54,0,1.21-1.36,1.17-2.41,1.17h-.49c-1.33,0-1.27-2.16-1.92-3.09h-.09c-1.11.34-2.25-.03-3.4.22-.49-.09-3.06.25-3.55.46-.09.46-.22.56-.4.93-.46.99.37,1.17-.74,1.61-.46.22-.25.31-.83.31-1.11.03-2.38-.22-2.41-1.61,0-.06.03-.4.03-.46h-.01ZM56.2,85.04h.31c1.17-.03,4.29-.19,4.29-.31v-.03c-.09-.25-.49-1.36-.56-1.58-.03,0-.09-.15-.09-.19v-.06c-.06-.25-.25-.96-.25-1.02-.31-.93-1.36-5.16-1.73-6.02,0,.03-.06.22-.06.28-.06.19-.93,5.13-.99,5.31-.06.25-.4,1.42-.49,1.7.12.28-.43,1.42-.43,1.92Z"/>
          <path class="cls-1" d="M67.56,69.66c-.06-.09-.25-.09-.25-.19,0-.12.71-.37.8-.43.09,0,.43-.03.53-.03.71,0,3.55.06,3.55,1.27,0,.53-.93,1.08-1.05,1.79-.12.06-.77.31-.96.34h-.31c-.22,0-2.87-.52-2.87-.74v-.8c.22-.09.52-1.02.56-1.2h0ZM67.72,84.7c-.03-.56-.19-1.08-.25-1.61v-1.14c0-.56-.06-2.29-.06-2.47-.06-.68.06-1.27.06-1.91,0-.59.03-.83.19-1.51.37-.46.25-1.17.25-1.79.71-.59,4.01.22,3.98,1.3.31,1.58.56,2.93.56,4.48v.09c0,.62-.06,5.62-.09,6.24,0,.37.06.43-.06.77v3.12c-.68.31-1.17.87-1.85,1.14h-.31c-.71.06-1.24.49-1.92.56-.46.03-.4-.68-.46-.96-.06-.93,0-5.37-.03-6.3h-.01Z"/>
          <path class="cls-1" d="M73.77,84.92c0,.53-.22.99-.28,1.48h-.15v-1.58c0-.09.19-.09.22-.09.12,0,.22.09.22.18h-.01ZM74.57,87.27c.22.43.31.93.49,1.36.25.65,1.51,2.01,2.22,2.22.34.12.86.15,1.24.15h.34c-1.24-.18-2.16-.99-3.03-1.88-.62-.68-.77-1.36-1.14-2.16l-.12-.12s-.15.03-.25.06l-.12.06h-.06c-.06-.43-.31-.8-.31-1.27s.49-.65.46-1.17h.03c.22,0,.28.12.46.12v-.4c0-.06.03-.43.06-.49,0,0,.06-.03.09-.03.15,0,.22.28.34.37v-1.08c.19,0,.28.31.4.43v-.28h.09l.43.43c.25.28.37.65.49.93,0,.03.06.06.09.06.12.12.25.22.37.31.15.18,0,.74.28.74,0,.09-.09.18-.09.31.37.9.52,2.5,1.79,2.53.52,0,2.1-.93,2.38-1.42.12-.22.46-1.27.46-1.51,0-.46-.22-.49-.37-.87-.19-.43-.28-.99-.59-1.36-.93-1.27-2.56-1.27-3.74-2.16-.8-.62-1.33-1.42-1.95-2.25-.12-.15-.31,0-.49-.18-.34-1.02-.65-1.95-.65-3,0-.43.09-1.48.65-1.48,0,.53-.43,1.02-.43,1.54v.06l.06.18c.09-.52.22-.83.37-1.27,0,0,.09-.12.09-.15,0,0-.06-.06-.09-.06.03-.03.09-.09.15-.06.19-.22.43-1.48.56-1.51h.22c.19-.03.28-.22.37-.31.09-.06.56-.4.65-.49,0-.19.15-.19.28-.22.06-.03.15-.06.22-.09,1.14-.53,2.66-1.2,3.95-1.2,1.7,0,3.55.22,4.54,1.82.06.06.25.77.31.83.37.56.28,1.7.28,2.29,0,.68.06,1.05-.22,1.7-.19.31-.65.12-.93.22-.03,0-.12.12-.15.15,0,0-.09.06-.15.09-.59.25-.74.15-1.42.15h-.37c-.09,0-.09-.09-.09-.12,0-.12.09-.12.09-.22v-.09c-.03-.34-.12-1.21-.15-1.21l-.09-.15c-.09.03-.19.12-.28.22v.56c0,.4.09.74.09,1.08-.15,0-.25-.12-.22-.28,0-.19-.06-1.08-.09-1.3-.03-.34-.15-.37-.22-.71-.19-1.02-.43-2.32-1.76-2.32-.68,0-1.61,1.64-1.61,2.29,0,.43.03,1.08.06,1.39.09.56.62.99.96,1.36v.25s-.09.03-.09.06c0,0,.06.09.09.12,0,.03.03.06.06.06l3.3,1.76c1.95,1.02,2.38,2.19,3.03,4.08,0,.03.06.09.06.09v.37c0,.62-.25,1.2-.49,1.76,0,.03-.03.06-.03.09-.37,1.14-1.05,2.38-2.13,3.03-.65.4-1.3.71-2.01.99-.06.03-.25.12-.28.15-.52.4-.86.52-1.61.52-1.88,0-3.49-.74-4.66-2.25-.12-.15-.09-.34-.12-.53-.25-.59-.68-1.2-.68-1.88.12,0,.25.06.31.19h.02ZM73.93,84.64v.03s-.06.06-.09.06v-.06l.09-.09v.06ZM74.7,83.59c-.03.16-.12.28-.31.28,0-.12.19-.31.31-.31v.03ZM75.01,74.27c-.06-.03.06-.12.06-.09,0,.06-.03.09-.06.09ZM75.66,83.16c-.09,0-.09-.12,0-.12.06,0,.06.12,0,.12ZM75.72,83.68c.06,0,.06-.15,0-.15s-.06.15,0,.15ZM79.3,91.13s.15-.03.15-.06h-.49s.28.06.34.06ZM79.52,91.22c.09,0,.09-.15,0-.15-.06,0-.06.15,0,.15ZM82.82,90.85v-.06c0-.19.19-.28.31-.37l-.31.43ZM86.68,75.28c-.06,0-.06-.06,0-.06.03,0,.03.06,0,.06Z"/>
          <path class="cls-1" d="M93.78,90.67h-1.05c-.4.28-.43.28-.99.28h-.12s.09-.03.09-.06-.03-.06-.03-.06c-.28,0-.46.31-.77.31-.43,0-.93-.46-1.2-.74,0-.03,0-.19.06-.22-1.79-.8-2.69-3.77-2.93-5.81-.06-.46,0-.93-.15-1.36,0-1.92.15-3.52.65-5.31.03-.09.06-.28.06-.31.68-3.52,2.72-6.79,6.83-6.79,4.97,0,7.41,5.25,7.41,9.64,0,1.08-.03,2.32-.34,3.3-.22.68-.86.99-.86,1.36.03-.03-.12-.03-.15-.09.03-.03-.52,1.27-.71,1.79-.12.19-.25.99-.31.99,0-.03.03-.03.03-.06,0-.06-.06-.09-.09-.09-.06.15-.28.28-.28.46,0,.12.15.06.22.19-.03,0-.12.19-.15.25.12.19-.31-.22-.28-.25-.34.09-.25.49-.25.74,0,.06-.03.06-.06.06h-.09c-.06,0-.28.25-.34.31-1.33,1.2-4.82,2.25-6.61,2.25,0-.09,0-.22.06-.22h.15s-.06.03-.06.06.03.06.06.06.06-.03.06-.06-.03-.06-.06-.06c.71,0,1.67-.19,2.22-.56h-.02ZM90.2,89.89l-.43-.4s-.03.03-.03.06c0,.19.31.37.46.34ZM90.42,90.08s0-.09-.15-.09c0,.12.09.09.15.09ZM93.04,88.38c3.61-1.76,3.34-3.24,3.71-5.81.12-.93.15-1.88.15-2.84,0-2.32-.19-3.27-1.67-4.97-.25-.37-.9-.9-1.02-.9h-.83c-.37,0-.83.93-1.11,1.36-1.33,2.19-1.79,4.54-1.79,7.13,0,2.07.49,6.02,2.56,6.02h0ZM90.51,90.17s.03.06.06.06.03-.03.03-.06c0-.06,0-.09-.03-.09s-.06.03-.06.09ZM90.63,90.97c0,.06.03.09.06.09s.03-.03.03-.09c0-.03,0-.09-.03-.09s-.06.06-.06.09ZM96.5,89.65c.19,0,.46-.19.46-.4-.15,0-.46.25-.46.4ZM96.97,89.43s.03.06.06.06.03-.03.03-.06c0-.06,0-.09-.03-.09s-.06.03-.06.09ZM97.27,89.12s0,.06.03.06.03-.03.03-.06c0-.06,0-.09-.03-.09s-.03.03-.03.09ZM97.65,88.78l-.06.06.03.03s.06-.03.06-.06c0,0,0-.03-.03-.03ZM100.3,85.26c0,.06,0,.09-.03.09s-.06-.03-.06-.09c0-.03.03-.09.06-.09s.03.06.03.09ZM100.27,84.64s.03.06.06.06.06-.03.06-.06-.03-.06-.06-.06-.06.03-.06.06ZM100.46,85.04s-.03.03-.06.03h-.03s.03-.06.06-.06l.03.03ZM101.32,83.93c0-.15.03-.28.15-.4,0,.09.03.4-.15.4Z"/>
          <path class="cls-1" d="M107.34,80.38c-.03.31-.19,1.79-.22,2.07v.12c0,1.3.09,2.59.09,3.86s-.06,2.56-.09,3.86c0,.06-.06.59-.06.65-.03.09-.03.56,0,.65-.06.03-.37.4-.46.4h-.83s-.12.06-.15.06c-.06,0-.4-.15-.46-.15-.31,0-.25.25-.56.25-.34,0-.49-.12-.93-.09l-.06-.06c-.28-1.48-.43-2.78-.43-4.26,0-4.35.09-8.65.19-13,0-.22.06-2.01.06-2.25v-.06c0-.09.12-1.08.12-1.24l.03-.15c.19,0,.22.15.4.15h.06s.03-.06.06-.06h.06s.19.09.22.06c.03,0,.15-.15.19-.15h.31c.12-.03-.03-.31.15-.31h.06s.12.19.15.19.22-.09.28-.12c0,0,.06-.06.09-.06h.03c.49,0,.87.52,1.17.96.03.03.03.06.06.09.12.09.68.77.77.9.46.59.65,1.42,1.05,2.07.09.15.93,1.39.99,1.51s.34.74.46.93c.03.03.06.19.06.22.8,1.92,1.82,3.77,2.84,5.53.12.18.4.93.56,1.24v-1.14c0-.99-.06-2.01-.06-2.96v-.87c.03-.46.25-4.08.28-4.51.09-.9.12-1.85.31-2.75.06,0,.25-.03.31-.06,0-.03.09-.19.09-.19h.03c.09,0,.15.19.19.25.03,0,.06.06.06.06.19,0,.43-.4.43-.59,0,0,.03.06.06.06,0,.03.15.19.19.22h.06c.28,0,.49-.22.49-.49.06,0,.31.12.37.09.56.4,1.11,1.67,1.3,2.41v2.56c0,1.51-.12,3-.12,4.42,0,2.78.06,5.47.06,8.21v.93l-.15.28c.12.31.15.49.15.8,0,.19-.03.46-.28.46h-.12s-.25-.09-.28-.09h-.06c-.09.03-.34.09-.34.09l-.12.56c-.43-.12.15.49-.34.49h-.06c-.06-.03-.31-.31-.34-.34h-.03c-.15,0-.28.15-.34.34h-1.05s-.46-.28-.59-.4c-1.48-1.33-2.04-3.18-3-4.94-1.08-2.07-2.01-4.29-3.21-6.36-.03-.06-.06-.25-.15-.31v-.04ZM103.7,71.27c0,.06.09.06.09,0,0-.03-.09-.03-.09,0ZM115.03,72.07c.06,0,.06-.03,0-.09-.03,0-.03.12,0,.09ZM115.59,71.18l.06-.06.03-.03.03.03s.12.12.12.15c-.12-.03-.25.03-.34.06h.09s-.09-.06-.09-.12c0,0,.09,0,.09-.03h.01Z"/>
          <path class="cls-1" d="M177.33,91.47c-.06,0-.15.19-.15.25,0-.19-.06-.43-.22-.53-.06.12-.15.12-.28.12-.46,0-.83-1.3-.83-1.67,0-.25.09-.56.34-.71v-.34c-.03-1.76-.19-3.37-.16-5.22-.06-.03-.09-.25-.09-.28v-.09c0-.56.15-1.27.15-1.88,0-.09-.09-.09-.09-.15-.03-.18.06-.28.06-.46,0-.46-.25-.9-.25-1.36-.03-1.3.4-2.56.56-3.83.06-.46.25-.9.25-1.36v-.22c-.15-.03-.22-.09-.25-.22.34-.09.37-.49.37-.8v-.03c-.06-.03-.22-.09-.25-.09v-.28c0-.31,0-.77.19-1.02.03-.12.59-.34.68-.37l-.22.43h.06c.19-.03.09-.19.22-.34.03-.03.28-.12.31-.12,0-.03.12-.12.15-.16,0,.06.06.06.12.06,1.33,0,2.69-.25,4.02-.25,2.01-.03,5.31,1.11,6.15,2.93.83,1.2,1.36,2.69,1.36,4.17,0,.49.03.87-.16,1.36l-.37.77c-.22.31-.62.52-.87.86-.46.62-.43.8-1.05,1.33.06,0,.06.06.06.15,0,.31-.52.68-.83.68-.09,0-.16-.03-.22-.09v.19h-.15v-.09c-.68,0-.77.52-1.24.96s-1.14.62-1.79.62c-.19,0-.31-.09-.49-.06-.4,0-.74.12-1.14.19h.15c-.19.03-.49.03-.59.03-.03,0-.09.09-.12.09l.12.06-.03.09c-.06,0-.43.03-.49.03,0-.31.22-.4.49-.34l-.49-.16s-.15.4-.25.46c-.12.12-.22.12-.22.31,0,.03.03.06.03.09l.12-.06s-.03.15-.06.18-.09-.03-.12-.03c.03.62,0,1.17.15,1.73.06.28.16.12.16.49,0,.25-.09.37-.09.65.03.49.03,1.08.09,1.58,0,.03.09.22.09.22.03.09.09.46.09.49,0,.12-.09.87-.15,1.02-.19.09-.28.15-.43.15-.22,0-.59-.12-.71-.25-.15.12-.31.62-.59.62-.06,0-.52-.43-.56-.56l-.56.03.02.03ZM176.59,72.97v.19c-.09,0-.22,0-.22-.09s.12-.09.22-.09h0ZM176.81,70.68c0,.06-.03.12-.09.15v-.15h.09ZM177.21,71.61s-.06.06-.06.09h.06l.06-.09-.03-.03-.03.03ZM177.15,72.13l.06-.09-.06-.06v.16h0ZM177.52,71.27s.06.03.06,0c.03-.06-.09-.06-.06,0ZM177.64,70.9c-.06,0-.09-.16,0-.16.06,0,.09.16,0,.16ZM179.06,87.3v-.43c0-.49-.12-.93-.09-1.36-.09.12-.19.25-.15.4h.06c0,.22-.06.22-.06.37h.12c0,.22-.19.8.12,1.02ZM178.81,85.35h.06v-.15h-.06v.15ZM181.25,81.49h.15c-.28-.37-.86-.62-1.3-.77.03-.03.09-.06.09-.06l.09-.15c-.03-.06-.19-.15-.25-.19h.22c.65,0,1.42.87,1.85.87h.06l.83-.19s.06-.06.06-.09c.06-.06.28-.46.31-.53.09-.22.65-.96.77-1.08.28-.37.59-.46.93-.8.09-.12.09-.56.12-.62,0-.15.12-.65.12-.71.03-.03.25-.46.25-.52,0,0,.03-.25.03-.34-.03-.96-.96-1.7-1.85-1.95-.83-.22-1.76-.62-2.69-.62-.4,0-.62.03-1.17.12l.15,1.36.03.03c.09.56.09,1.14.09,1.73,0,.86-.06,1.51-.22,2.35-.06.59,0,1.08-.15,1.64-.03.03-.03.06-.03.06.56,0,.99.28,1.48.46h.03ZM179.86,82.45l.28-.03-.06-.09h-.09l-.12.12h-.01ZM180.02,78.16c.06-.03.06-.18,0-.22-.03-.03-.03.25,0,.22ZM180.23,82.54c.09,0,.09-.12,0-.12s-.09.12,0,.12ZM180.48,81.09c-.09,0-.09-.15,0-.15s.09.15,0,.15ZM180.57,84.7c.09,0,.09-.15,0-.15-.06,0-.06.15,0,.15ZM180.57,81.09c-.03-.06.06-.06.06,0-.03.06-.06.06-.06,0ZM181.72,84.24c.03.06.12.06.16,0,.03-.03-.19-.03-.16,0ZM188.36,80.78h-.06c.06-.03.25-.31.43-.31,0,.15-.25.31-.37.31Z"/>
          <path class="cls-1" d="M190.83,74.85c.06,0,.06.09,0,.09-.03,0-.03-.09,0-.09ZM192.03,91.07c.19.18.37.74.71.65.03,0,.09-.12.09-.15h.96c.12-.25.31-.09.46-.25h1.05s.37-.06.4-.06h.09c.4,0,.8.06,1.24.06s.9-.06,1.39-.06h.15c.28,0,1.42.03,1.7.03.15,0,1.11-.06,1.36-.06.12,0,.96-.31.99-.31.22-.22.34-.71.77-.65v-.06c0-.12-.22-.06-.28-.06,0-.22.15-.22-.12-.37.06,0,.22-.12.22-.12.03-.03-.06-.25-.06-.28.12,0,.19.06.25-.06l-.09-.09c.15-.06.19-.09.19-.22,0-.19-.03-.03-.19-.19-.65-.65-.8-.77-1.79-.77-.46,0-.9.06-1.33.06-1.67,0-2.5-.03-4.17-.12-.06.03-.34-.03-.37-.09,0,0-.03-.12-.03-.18,0-1.11.19-2.25.19-3.4,0-.96-.19-.9-.19-1.82,0-.12.03-.4.03-.4l.22-.25s1.48-.03,2.07-.06h.09c.62-.06,2.1-.12,2.16-.12.09-.03.93-.28,1.02-.31.06-.03.37-.06.4-.09.03,0,.09-.15.09-.15.06-.09.28-.28.34-.31.16-.16.22,0,.22-.19,0-.06-.06-.22-.15-.15.06-.25.34-.31.34-.59,0-.9-.31-.53-.65-1.02h-.96c-.93,0-2.1-.19-2.96.12h-2.16s-.12-.06-.15-.09v-.06c.06,0,.4-.06.46-.09.03,0,.09-.03.09-.06-.15-.15-.62.03-.65-.15l-.15-.74-.06-.09s-.09-2.1-.09-2.56c0-.16.06-.9.09-1.05.12,0,.8-.06.96-.06h4.73c.03-.12,1.05-.06.86-.4.77-.15,1.11-.22,1.11-1.05h.06c.15,0,.19,0,.19-.25,0-.4-.9-1.51-1.3-1.51-.06,0-.62-.25-.74-.19l-3.09-.06h-1.92c-.46,0-.93.09-1.39.09-.49,0-.9-.19-1.3-.19-.09,0-.43.09-.43.22v.06s.06.06.09.06c-.09.12-.12.15-.25.15-.28,0-.59-.15-.86-.15h-.09s.15.12.15.15c.03,0-.06.15-.06.15,0,.03-.03.09-.03.09,0,.09,0,.15.09.19-.09.03-.09.12-.06.22-.06.06-.37.4-.4.46-.06.06-.16.18-.19.18,0,0-.22-.09-.25-.09,0,0-.06.06-.06.09s-.06.22-.06.25h-.09l-.09,2.69c-.03.31-.03,1.14.4,1.14.28,0,.15-.15.34-.25.09.06.03.12.06.25,0,.06.06.56.06.62.03.25.06,1.54.06,1.82l.03,2.16-.09.09s-.06.99-.06,1.39c0,.06.06.83.06.96,0,.03.03.53.03.68,0,.83-.09,1.54-.25,2.35h-.09s-.06.25-.06.37c-.03.28.06.28-.12.49v-.22c-.12.28-.12.46-.12.74v.28c.25-.06.06-.52.25-.71v.93h-.09v.09s.09.31.09.34l-.09.06v.25c0,.37.25.71.25,1.05,0,.03-.06.06-.09.06v.46l.65.49h-.03ZM190.92,71.18v.31h.09v-.31h-.09ZM191.01,89l-.09.22v.09h.09v-.31ZM191.07,88.19s-.03.37,0,.34c.03-.06.03-.31,0-.34ZM191.48,76.46c-.06,0-.06.09,0,.09.06-.03.06-.09,0-.09ZM191.63,72.04c.06,0,.06.18,0,.18s-.06-.18,0-.18ZM191.69,90.11c0,.06-.06.06-.06,0-.03-.03.09-.03.06,0ZM191.97,90.17v.09h-.28c.03-.06.19-.09.28-.09ZM192.19,70.93c.09,0,.09.15,0,.15-.06,0-.06-.15,0-.15ZM192.34,71.02h.25v.06l-.25-.06ZM192.83,70.47c-.09,0-.09.15,0,.15.06,0,.06-.15,0-.15ZM192.9,70.28c0,.09.09.09.19.09h.09c-.06-.06-.19-.12-.28-.15v.06ZM195.65,88.26v-.06h1.61c0,.06-.03.12-.09.15h-.31c-.46,0-.68,0-1.2-.09h-.01ZM197.22,70.87s-.12.03-.15,0,.19-.03.15,0ZM197.37,88.13c.09,0,.09.12,0,.12-.06,0-.06-.12,0-.12ZM197.93,88.19s-.31.03-.4,0c-.06-.03.46-.03.4,0ZM201.54,81c.06,0,.06.15,0,.15s-.06-.15,0-.15ZM202.38,73.25c-.03.06-.09.06-.09,0,0-.03.09-.03.09,0ZM202.66,72.69c.09,0,.09.19,0,.19-.06,0-.06-.19,0-.19Z"/>
          <path class="cls-1" d="M204.32,69.66c-.06-.09-.25-.09-.25-.19,0-.12.71-.37.8-.43.09,0,.43-.03.53-.03.71,0,3.55.06,3.55,1.27,0,.53-.93,1.08-1.05,1.79-.12.06-.77.31-.96.34h-.31c-.22,0-2.87-.52-2.87-.74v-.8c.22-.09.53-1.02.56-1.2h0ZM204.48,84.7c-.03-.56-.18-1.08-.25-1.61v-1.14c0-.56-.06-2.29-.06-2.47-.06-.68.06-1.27.06-1.91,0-.59.03-.83.19-1.51.37-.46.25-1.17.25-1.79.71-.59,4.01.22,3.98,1.3.31,1.58.56,2.93.56,4.48v.09c0,.62-.06,5.62-.09,6.24,0,.37.06.43-.06.77v3.12c-.68.31-1.17.87-1.85,1.14h-.31c-.71.06-1.24.49-1.92.56-.46.03-.4-.68-.46-.96-.06-.93,0-5.37-.03-6.3h0Z"/>
          <path class="cls-1" d="M215.23,80.38c-.03.31-.19,1.79-.22,2.07v.12c0,1.3.09,2.59.09,3.86s-.06,2.56-.09,3.86c0,.06-.06.59-.06.65-.03.09-.03.56,0,.65-.06.03-.37.4-.46.4h-.83s-.12.06-.15.06c-.06,0-.4-.15-.46-.15-.31,0-.25.25-.56.25-.34,0-.49-.12-.93-.09l-.06-.06c-.28-1.48-.43-2.78-.43-4.26,0-4.35.09-8.65.19-13,0-.22.06-2.01.06-2.25v-.06c0-.09.12-1.08.12-1.24l.03-.15c.18,0,.22.15.4.15h.06s.03-.06.06-.06h.06s.19.09.22.06c.03,0,.15-.15.19-.15h.31c.12-.03-.03-.31.15-.31h.06s.12.19.15.19.22-.09.28-.12c0,0,.06-.06.09-.06h.03c.49,0,.87.52,1.17.96.03.03.03.06.06.09.12.09.68.77.77.9.46.59.65,1.42,1.05,2.07.09.15.93,1.39.99,1.51.06.12.34.74.46.93.03.03.06.19.06.22.8,1.92,1.82,3.77,2.84,5.53.12.18.4.93.56,1.24v-1.14c0-.99-.06-2.01-.06-2.96v-.87c.03-.46.25-4.08.28-4.51.09-.9.12-1.85.31-2.75.06,0,.25-.03.31-.06,0-.03.09-.19.09-.19h.03c.09,0,.15.19.19.25.03,0,.06.06.06.06.19,0,.43-.4.43-.59,0,0,.03.06.06.06,0,.03.15.19.19.22h.06c.28,0,.49-.22.49-.49.06,0,.31.12.37.09.56.4,1.11,1.67,1.3,2.41v2.56c0,1.51-.12,3-.12,4.42,0,2.78.06,5.47.06,8.21v.93l-.16.28c.12.31.16.49.16.8,0,.19-.03.46-.28.46h-.12s-.25-.09-.28-.09h-.06c-.09.03-.34.09-.34.09l-.12.56c-.43-.12.15.49-.34.49h-.06c-.06-.03-.31-.31-.34-.34h-.03c-.16,0-.28.15-.34.34h-1.05s-.46-.28-.59-.4c-1.48-1.33-2.04-3.18-3-4.94-1.08-2.07-2.01-4.29-3.21-6.36-.03-.06-.06-.25-.15-.31v-.04ZM211.58,71.27c0,.06.09.06.09,0,0-.03-.09-.03-.09,0ZM222.92,72.07c.06,0,.06-.03,0-.09-.03,0-.03.12,0,.09ZM223.47,71.18l.06-.06.03-.03.03.03s.12.12.12.15c-.12-.03-.25.03-.34.06h.09s-.09-.06-.09-.12c0,0,.09,0,.09-.03h.01Z"/>
          <path class="cls-1" d="M231.32,84.55c0-.53.03-1.08.15-1.64.09-2.66.34-5.37.49-7.84v-.31c-.28-.03-1.45-.12-1.73-.19l-1.92-.31h-.03c-.15,0-.31.09-.49.09-.59,0-.96-.31-.96-.93,0-.22.53-.28.43-.49-.03-.09-.31-.25-.31-.4,0-.03.03-.06.06-.09.06,0,.28-.06.34-.09v-.65c.06-.03.34-.25.25-.4.22,0,1.33-.09,1.54-.09l5.78.15c.59.03,1.14.15,1.73.19,1.79.06,3.49-.03,5.19.49.12.15.34.15.34.31,0,.19-.19.09-.19.31,0,.19.19.15.28.28-.09.15-.37.15-.49.25l.56.19v.06c-.06.03-.87.15-.99.28-.03,0,.03.19,0,.22,0,.03-.22.12-.34.15,0,.03-.03,0-.03,0,0,.06-.12.31.03.34-.22.28-.87.46-1.21.49-.28.06-1.02.15-1.08.15-.37.03-2.1.03-2.47,0l-.19.09c-.19,2.69-.4,5.31-.4,8v2.04c.34,2.1-.19,4.32.4,6.36-.09.25-1.92.4-2.13.4-.19,0-.28-.06-.49-.06-.25,0-.43.06-.65.06-.34,0-1.42-.71-1.42-.99v-4.91c-.06-.62-.06-.93-.06-1.51h.01ZM231.23,91.13c-.06,0-.06-.15,0-.15.09,0,.09.15,0,.15Z"/>
          <path class="cls-1" d="M243.09,85.97c-.25-1.85-.46-3.64-.46-5.47v-1.2l.25-1.3c.06-.4.34-3.58.4-3.98,0-.09.09-.68.15-.83l.37-1.54.03-.03-.03-.03-.09-.09c0-.18.52-.46.71-.46.03,0,.46.15.53.15.25-.06.34-.31.59-.31.22,0,.9.09.96.31.03.09.28.87.34.93,0,.03.03.12.06.15,0,.09.06.34.06.4v8.15l.46,4.14c0,.12.25,1.08.34,1.42.09.4.59,1.7,1.08,1.85h.59c1.61,0,2.5-.74,3.49-1.95.12-.15.4-.22.46-.4.37-.93.34-2.38.43-3.37.03-.56.06-.9.03-1.48-.03-.03-.34-.43-.34-.53l.15-1.67c-.09-.03-.22-.22-.25-.34.03-.4.03-2.32,0-2.72,0-.4-.03-1.02-.12-1.39-.18-.96,0-1.92,0-2.9l-.15.09c0-.4.37-.28.46-.65l.62.06-.03.03c.56.03.37-.34.56-.34v.09h.12l.03-.28s.15.03.19,0c.03,0,.31-.12.34-.15,0,0,.12.09.16.09s.12-.03.15-.06c.49.43.68.93.96,1.48,1.24,2.38.87,4.23.9,6.89.03.06.06.56.06.59l.16,4.23v-.53c.09.37.09.56.09.93v.28l-.06.15c0,.06.03.22.03.25l.03.46-.06.09-.09-.09c-.22.46-.09.43-.25.93-.15.65-.37,1.3-.52,1.95l-.83,1.7c-.31.49-.9.99-1.48.99-.15,0-.28-.06-.4-.06h-.09c-.83.8-1.88,1.33-3.03,1.33-.53,0-.99-.15-1.45-.15-.4,0-.8.15-1.2.15-.99,0-4.01-2.01-3.98-2.9-.49-.86-.86-1.91-1.36-2.81,0-.09-.03-.16-.03-.25h-.04ZM255.19,70.96v-.06c0-.16.03-.28-.15-.28-.03.15.03.28.15.34ZM257.73,85.04c.09,0,.09-.15,0-.15-.06,0-.06.15,0,.15Z"/>
          <path class="cls-1" d="M259.58,77.35c0-1.14.03-2.32-.09-3.43-.06-.15-.06-.22-.06-.37,0-.37.19-.9.31-1.3.09-.37,1.14-1.36,1.51-1.36.22,0,.46.03.65.15.56-.03,3.24-.03,3.77,0,1.3,0,2.93.25,3.98,1.05.06.09.71.68.8.71,0,.06.37.25.4.31,1.05.86,1.61,2.56,1.61,3.86,0,.25-.09.46-.09.68,0,.31.22.49.22.8,0,2.62-2.81,4.94-4.76,6.58l.09.09c.65.52,1.14.77,1.64,1.36.86.96,1.61,1.82,2.53,2.69.22.18,1.3.8,1.3,1.02,0,.12-.09.25-.09.4,0,.19.18.25.18.4,0,.19-1.17.43-1.39.53-.25.12-.37.37-.65.37h-.09s-.31-.06-.34-.06-.28.03-.31.06h-.06c-.56,0-.99-.31-1.58-.22-.19-.59-1.27-1.3-1.54-1.82-.43-.83-3.24-3.12-3.68-3.71.03.31,0,3-.03,3.27v.15c-.03.83.43,1.58-.4,1.88-.06,0-.34.06-.4.06-.52.15-1.17.74-1.67.74-.37,0-.71-.09-1.05-.19-.03,0-.43-.03-.49-.03-.4-.09-.34-.9-.37-1.11v-1.51c0-3.68.15-8.4.15-12.08v.03ZM263.81,78.34c.03.31-.22,2.66-.22,2.96,0,.12.09,1.7.12,1.82h.22c.12-.03.96-.06.99-.06,1.61-.31,3.52-3.21,3.52-3.77,0-.4-.22-.8-.25-1.21,0-.09-.03-.22-.03-.31-.09-1.11-.22-2.16-1.11-2.96-.12-.09-.93-.74-1.14-.9-.43-.34-1.48-.46-2.04-.46h-.4c-.06.03-.19.09-.22.16.03,1.61.53,3.15.56,4.72h0Z"/>
          <path class="cls-1" d="M273.79,74.85c.06,0,.06.09,0,.09-.03,0-.03-.09,0-.09ZM274.99,91.07c.19.18.37.74.71.65.03,0,.09-.12.09-.15h.96c.12-.25.31-.09.46-.25h1.05s.37-.06.4-.06h.09c.4,0,.8.06,1.24.06s.9-.06,1.39-.06h.15c.28,0,1.42.03,1.7.03.15,0,1.11-.06,1.36-.06.12,0,.96-.31.99-.31.22-.22.34-.71.77-.65v-.06c0-.12-.22-.06-.28-.06,0-.22.15-.22-.12-.37.06,0,.22-.12.22-.12.03-.03-.06-.25-.06-.28.12,0,.19.06.25-.06l-.09-.09c.15-.06.19-.09.19-.22,0-.19-.03-.03-.19-.19-.65-.65-.8-.77-1.79-.77-.46,0-.9.06-1.33.06-1.67,0-2.5-.03-4.17-.12-.06.03-.34-.03-.37-.09,0,0-.03-.12-.03-.18,0-1.11.19-2.25.19-3.4,0-.96-.19-.9-.19-1.82,0-.12.03-.4.03-.4l.22-.25s1.48-.03,2.07-.06h.09c.62-.06,2.1-.12,2.16-.12.09-.03.93-.28,1.02-.31.06-.03.37-.06.4-.09.03,0,.09-.15.09-.15.06-.09.28-.28.34-.31.16-.16.22,0,.22-.19,0-.06-.06-.22-.15-.15.06-.25.34-.31.34-.59,0-.9-.31-.53-.65-1.02h-.96c-.93,0-2.1-.19-2.96.12h-2.16s-.12-.06-.15-.09v-.06c.06,0,.4-.06.46-.09.03,0,.09-.03.09-.06-.15-.15-.62.03-.65-.15l-.15-.74-.06-.09s-.09-2.1-.09-2.56c0-.16.06-.9.09-1.05.12,0,.8-.06.96-.06h4.73c.03-.12,1.05-.06.86-.4.77-.15,1.11-.22,1.11-1.05h.06c.15,0,.19,0,.19-.25,0-.4-.9-1.51-1.3-1.51-.06,0-.62-.25-.74-.19l-3.09-.06h-1.92c-.46,0-.93.09-1.39.09-.49,0-.9-.19-1.3-.19-.09,0-.43.09-.43.22v.06s.06.06.09.06c-.09.12-.12.15-.25.15-.28,0-.59-.15-.86-.15h-.09s.15.12.15.15c.03,0-.06.15-.06.15,0,.03-.03.09-.03.09,0,.09,0,.15.09.19-.09.03-.09.12-.06.22-.06.06-.37.4-.4.46-.06.06-.16.18-.19.18,0,0-.22-.09-.25-.09,0,0-.06.06-.06.09s-.06.22-.06.25h-.09l-.09,2.69c-.03.31-.03,1.14.4,1.14.28,0,.15-.15.34-.25.09.06.03.12.06.25,0,.06.06.56.06.62.03.25.06,1.54.06,1.82l.03,2.16-.09.09s-.06.99-.06,1.39c0,.06.06.83.06.96,0,.03.03.53.03.68,0,.83-.09,1.54-.25,2.35h-.09s-.06.25-.06.37c-.03.28.06.28-.12.49v-.22c-.12.28-.12.46-.12.74v.28c.25-.06.06-.52.25-.71v.93h-.09v.09s.09.31.09.34l-.09.06v.25c0,.37.25.71.25,1.05,0,.03-.06.06-.09.06v.46l.65.49h-.03ZM273.88,71.18v.31h.09v-.31h-.09ZM273.97,89l-.09.22v.09h.09v-.31ZM274.03,88.19s-.03.37,0,.34c.03-.06.03-.31,0-.34ZM274.44,76.46c-.06,0-.06.09,0,.09.06-.03.06-.09,0-.09ZM274.59,72.04c.06,0,.06.18,0,.18s-.06-.18,0-.18ZM274.65,90.11c0,.06-.06.06-.06,0-.03-.03.09-.03.06,0ZM274.93,90.17v.09h-.28c.03-.06.19-.09.28-.09ZM275.15,70.93c.09,0,.09.15,0,.15-.06,0-.06-.15,0-.15ZM275.3,71.02h.25v.06l-.25-.06ZM275.79,70.47c-.09,0-.09.15,0,.15.06,0,.06-.15,0-.15ZM275.86,70.28c0,.09.09.09.19.09h.09c-.06-.06-.19-.12-.28-.15v.06ZM278.61,88.26v-.06h1.61c0,.06-.03.12-.09.15h-.31c-.46,0-.68,0-1.2-.09h0ZM280.18,70.87s-.12.03-.15,0,.19-.03.15,0ZM280.33,88.13c.09,0,.09.12,0,.12-.06,0-.06-.12,0-.12ZM280.89,88.19s-.31.03-.4,0c-.06-.03.46-.03.4,0ZM284.5,81c.06,0,.06.15,0,.15s-.06-.15,0-.15ZM285.34,73.25c-.03.06-.09.06-.09,0,0-.03.09-.03.09,0ZM285.62,72.69c.09,0,.09.19,0,.19-.06,0-.06-.19,0-.19Z"/>
        </g>
        <g id="NjDdfZ">
          <g>
            <path class="cls-1" d="M144.29,89.04h0c.05-.02.1-.04.15-.07.34-.18.68-.35,1.02-.52.04-.02.12-.03.14-.01.09.1.11.02.16-.04.06-.07.13-.14.21-.18.23-.1.46-.21.72-.21h.53v.03s-.07.04-.12.08c.22,0,.41-.03.6,0,.22.04.31,0,.34-.22h.07s.05-.01.08-.02c-.02-.14,0-.16.09-.15.36.03.72.05,1.06.21.06.03.11.04.17.07.02.01.02.04.03.07-.02.01-.05.03-.07.03-.08-.02-.16-.04-.25-.06h-.15v.04c.06.01.12.02.18.05.2.08.42.12.58.24.29.21.61.35.95.46.47.15.88.42,1.29.68.18.12.36.24.54.36.25.16.51.32.76.49.1.07.2.15.3.22.24.16.48.32.71.49.09.07.16.17.25.26.07.07.14.14.21.2,0,0,.03-.02.04-.03,0-.09,0-.18-.02-.28.15.09.32.19.48.29,0,0,0-.02.02-.03-.11-.13-.22-.25-.33-.39.11-.09.2.14.34.09-.13-.1-.26-.2-.39-.31,0-.01.02-.02.03-.03.13.07.26.14.38.22.23.17.53.19.74.4.04.04.13.06.19-.02.02-.02.07-.01.11-.01.05,0,.09.01.14.01.06,0,.13-.02.19,0,.15.03.3.08.45.1.1.01.24.03.3-.02.11-.11.23-.08.34-.12h-.57v-.03c.09-.03.17-.06.26-.09-.43.06-.85,0-1.26-.12-.41-.13-.8-.29-1.07-.66.08,0,.14.03.22.05.43.11.84.33,1.3.31.17,0,.32,0,.42-.09.02-.07.03-.1.04-.14.03.02.07.04.1.06.02.02.03.06.05.07.13.04.26.07.36.1.06-.03.1-.06.14-.08-.13-.02-.26-.04-.39-.06v-.05s.09-.02.13-.01c.14.04.27-.06.43.04.11.07.3.03.46.04,0,0,.02,0,.04.02-.02.03-.03.06-.04.07.09.04.17.09.26.12.08.02.18.03.25,0,.15-.06.3-.15.45-.22.05-.02.1-.02.16-.03,0,.01,0,.03,0,.04-.26.13-.51.26-.77.39,0,.01,0,.03.02.04l.98-.46s.03.04.05.06c-.04,0-.08.01-.13.02.02.02.03.04.05.06.32-.18.63-.37.95-.55,0-.01,0-.02,0-.03h-.09l-.02-.04c.19-.11.38-.23.57-.34,0,.01,0,.02.02.04,0,.02-.02.04-.03.08.1-.06.19-.1.26-.16.27-.2.62-.28.84-.57.12-.15.33-.22.5-.31.05-.03.11-.03.16-.04v.03c-.07.06-.14.11-.22.17l.02.03c.06-.03.11-.06.17-.08.05-.02.11-.03.17-.04,0,.01,0,.02,0,.04-.11.07-.22.15-.33.22,0,.01.02.03.03.04.06-.04.12-.09.18-.13s.15-.1.2-.09c.14.04.27,0,.4-.04.12-.04.24-.09.36-.13,0,.01,0,.03.02.04-.03.03-.06.05-.1.09.24-.04.44-.17.67-.15-.06.03-.12.03-.18.04-.07.01-.13.04-.22.07,1.08-.12,2.1.07,3.12.39-.05-.07-.06-.1-.11-.17.27.02.5.04.77.06-.12-.06-.2-.11-.27-.15,0-.01,0-.03.02-.04l.36.07c-.18-.12-.41-.07-.57-.25.11,0,.2.03.3.05.12.03.25.06.37.06.07,0,.14-.1.21-.1.16,0,.14-.09.16-.2-.05,0-.09,0-.14-.01.03.07.06.11.08.15,0,.01-.03.03-.04.04-.07-.05-.17-.08-.19-.14-.03-.11-.12-.12-.19-.17-.1-.07-.21,0-.3-.02-.29-.07-.58-.18-.87-.28v-.06c.22-.04.45-.15.65-.11.26.04.5.19.77.3.14-.14.2-.33.17-.55-.02-.2-.07-.39-.25-.5-.13-.08-.27-.16-.41-.22-.16-.07-.32-.13-.48-.2-.15-.07-.29-.18-.44-.21-.19-.04-.32-.15-.46-.26-.1-.08-.2-.17-.31-.22-.24-.11-.5-.21-.75-.3-.33-.12-.68-.12-1.02-.12.1.02.19.04.33.06h-.46c-.49.03-.98.08-1.46.27-.54.21-1.1.35-1.61.64-.13.07-.25.16-.38.23-.35.19-.7.36-1.04.56-.57.32-1.14.67-1.78.85-1.17.34-2.25.13-3.24-.55-.67-.46-1.31-.97-1.97-1.45-.24-.18-.51-.33-.77-.49-.14-.08-.3-.15-.4-.26-.22-.23-.49-.36-.76-.49-.34-.16-.71-.26-1.07-.39-.08-.03-.17-.05-.26-.07v.03c.1.03.19.06.31.1-.38-.06-.75-.1-1.11-.17-.44-.09-.89-.12-1.34-.12-.2,0-.4-.04-.59,0-.36.07-.72.16-1.07.27-.95.32-1.85.74-2.68,1.3-.23.16-.45.34-.67.51-.04.03-.1.03-.15.04-.06,0-.12,0-.17.02-.14.06-.28.12-.4.21-.18.12-.34.28-.53.4-.23.15-.48.27-.72.41-.11.06-.21.13-.32.18-.29.11-.58.2-.87.29-.26.08-.51.18-.77.24-.35.09-.7.14-1.04.25-.22.07-.43.11-.65.09-.44-.03-.89-.06-1.33-.11-.19-.02-.38-.1-.57-.16,0,0,0-.02-.02-.04.04,0,.08-.02.12-.02-.06-.04-.12-.06-.18-.08-.35-.14-.72-.24-1.04-.42-.6-.34-1.17-.73-1.75-1.11-.35-.23-.69-.48-1.04-.71-.1-.07-.2-.11-.31-.17,0,0,0,.01,0,.02.09.07.19.14.28.21,0,.01-.02.03-.03.04-.09-.05-.19-.08-.28-.14-.36-.25-.71-.51-1.06-.76-.18-.13-.37-.26-.56-.38-.09-.05-.18-.09-.28-.14-.06-.03-.14-.04-.18-.08-.08-.08-.15-.16-.27-.13-.02,0-.05-.02-.09-.03.04,0,.05-.01.11-.02-.16-.07-.28-.14-.41-.18-.13-.04-.26-.04-.4-.05v-.04s.09-.03.13-.05c-.13-.1-.49-.14-.61-.06h.21c-.18.09-.36.18-.56.29.14.07.13.12.07.23-.07.13-.16.22-.26.32-.02.02-.04.07-.03.09.07.12-.03.18-.09.25-.03.04-.06.07-.1.11.12-.03.2-.02.24.04.06.09-.06.05-.09.08.08,0,.15-.04.21-.07.17-.08.19-.08.29.09-.08.03-.07.14-.19.16-.08,0-.14.1-.22.16.11.03.23,0,.27.18.03.14,0,.22-.05.33-.09.15-.19.27-.37.28.03.22.19.09.31.14-.09.13-.18.25-.28.4.06-.03.08-.05.11-.05.06,0,.11.02.17.04-.04.03-.08.07-.12.08-.18.05-.25.2-.39.35h.26c.06,0,.13-.04.19-.06,0,.02.02.04.03.05-.05.04-.11.07-.17.12.06.04.09.06.13.09-.04.04-.07.07-.13.12.23-.07.42-.13.61-.2.23-.09.45-.09.68,0,.13.06.26.11.38.19.1.07.17.16.31.21.23.08.43.25.64.38.04.03.11.05.12.09.03.11.07.19.2.13,0,0,.03.02.05.03.18.15.35.3.53.45,0-.02.02-.04.03-.06.04,0,.09-.01.11,0,.25.16.5.31.74.48.04.02.06.06.11.1-.05,0-.08,0-.1.01,0,.01,0,.03-.02.04.6.34,1.2.68,1.81,1.03,0-.01,0-.02.02-.03-.04-.05-.08-.1-.12-.15,0,0,.02-.02.03-.03.08.06.16.13.26.2-.03.1.05.13.14.15.04,0,.09-.02.13,0,.12.06.32.12.34.21.04.15.11.1.19.12.02,0,.05,0,.04,0,.05.06.09.11.12.15.03-.13.1-.07.16-.05.07.03.14.07.22.1.37.12.75.24,1.12.35.17.05.34.1.52,0-.04-.03-.07-.06-.13-.1.13,0,.23-.02.35-.03-.02-.03-.03-.06-.06-.1.14,0,.19-.08.19-.22.32.07.65.01.96.12-.15.07-.32,0-.45.11.07.03.13.08.19.09.07.01.15,0,.22,0,.08,0,.16.02.24.01.09,0,.23,0,.26-.04.06-.13.17-.12.27-.15.07-.03.15-.06.21-.1.05-.03.08-.09.12-.15,0,0-.02-.02-.04-.04.03-.03.06-.05.08-.07-.16.01-.31.02-.46.03-.11,0-.24-.02-.33.01-.28.11-.55.04-.83.03-.11,0-.21-.02-.27-.12-.02-.03-.04-.06-.05-.08.04-.02.07-.05.11-.05.22.01.44.03.66.05h.05c.06.15.17.05.25.04.13-.02.25-.08.38-.1.23-.04.47-.05.7-.09.27-.04.53-.09.79-.14s.54-.07.76-.24c.19-.15.42-.18.64-.25.24-.07.49-.11.72-.2.36-.15.72-.33,1.07-.49.2-.09.4-.18.58-.28.16-.09.31-.21.48-.31s.35-.19.52-.28c0,.02.02.03.03.05-.05.05-.09.1-.15.14-.12.08-.24.16-.36.23-.07.04-.13.09-.04.16-.15.14-.29.28-.46.44h.19c-.11.08-.22.15-.32.23l.03.04c.19-.12.38-.25.57-.37h0c.06-.03.13-.05.19-.08,0,.05,0,.06-.02.08,0,.02,0,.04-.03.09.36-.16.52-.49.8-.68l-.02-.11ZM140.6,90.64s0-.02,0-.03c-.17.06-.35.12-.52.17-.12.03-.25.05-.37.07-.03,0-.07.01-.1.02-.18.08-.35.16-.53.23-.12.04-.25.05-.38.08-.03,0-.07.02-.13.04.16.15.35-.06.49.09,0,.04-.02.09-.03.14.29-.02.54-.1.75-.27-.03,0-.07,0-.14-.02.14-.16.36-.08.48-.23l.05.03c.16-.11.3-.22.44-.32ZM152.62,90v.02c.05.08.09.17.16.23.13.11.27.19.41.29.05.04.1.08.11.14.06.29.34.38.48.55.04-.03.05-.06.08-.07.07-.04.09-.15.02-.19-.21-.12-.31-.37-.54-.48-.2-.09-.37-.26-.55-.39-.05-.04-.11-.06-.16-.1h-.01ZM162.15,89.5c-.38.28-.86.39-1.1.79.35-.09.62-.36.9-.61,0,.01.02.03.03.04l-.17.12c.11-.1.36-.06.33-.34h.01ZM133.52,91.79c-.06-.07-.11-.12-.16-.17-.05-.06-.1-.11-.14-.17-.12-.2-.32-.24-.52-.09.27.15.54.29.82.44h0ZM144.75,88.89c-.07.06-.13.1-.22.17h.14s0,.07-.02.13c.35-.18.67-.35,1-.52h0c-.3.11-.61.22-.92.33v-.1h.02ZM160.08,90.85c.25-.03.56-.26.53-.38-.24.07-.45.21-.53.38ZM125.99,86.76c-.13-.09-.24-.02-.34.03-.03.01-.03.1-.04.15.01,0,.03.02.04.02.11-.06.21-.13.34-.2ZM157.08,91.91l-.84-.16c.26.14.54.19.84.16ZM125.74,86.29c-.14-.06-.24.02-.31.22.1-.07.2-.14.31-.22ZM157.62,91.2c.17,0,.33-.04.47-.13.02-.01,0-.06.02-.1-.12.2-.32.16-.49.23ZM135.3,92.28v-.04c-.17-.05-.35-.09-.54-.14v.04c.18.05.36.09.55.14h-.01ZM136.82,92.31l.02-.06-.29-.04v.06c.1.01.19.03.29.04h-.02ZM149.88,88.89s0-.02,0-.03c-.13-.06-.26-.11-.38-.17,0,.01,0,.02-.02.04l.39.16h0Z"/>
            <path class="cls-1" d="M143.34,89.63c-.19.12-.38.25-.57.37l-.03-.04c.11-.08.21-.15.32-.23h-.19c.17-.16.31-.29.46-.43-.09-.06-.02-.11.04-.16.12-.08.24-.15.36-.23.05-.04.1-.09.15-.14,0-.02-.02-.03-.03-.05-.17.09-.35.18-.52.28-.16.1-.31.22-.48.31-.19.1-.39.19-.58.28-.36.17-.71.35-1.07.49-.23.09-.48.12-.72.2-.22.07-.45.09-.64.25-.22.17-.5.19-.76.24-.26.05-.53.1-.79.14-.23.04-.47.05-.7.09-.13.02-.25.08-.38.1-.08.01-.19.12-.25-.04h-.05c-.22-.02-.44-.04-.66-.05-.03,0-.07.03-.11.05.02.03.04.06.05.08.06.1.16.12.27.12.28,0,.55.07.83-.03.1-.04.22,0,.33-.01.15,0,.3-.02.46-.03-.03.02-.05.04-.08.07.02.02.04.05.04.04-.05.06-.07.12-.12.15-.06.04-.14.07-.21.1-.1.04-.2.03-.27.15-.02.04-.17.03-.26.04-.08,0-.16-.01-.24-.01-.07,0-.15.02-.22,0-.06-.01-.12-.05-.19-.09.13-.12.3-.04.45-.11-.31-.11-.64-.06-.96-.12,0,.14-.05.22-.19.22.02.04.04.07.06.1-.12,0-.22.02-.35.03.06.04.09.07.13.1-.18.09-.36.04-.52,0-.38-.11-.75-.23-1.12-.35-.08-.02-.15-.07-.22-.1-.05-.02-.13-.08-.16.05-.04-.04-.07-.09-.12-.15h-.04c-.08-.01-.15.03-.19-.12-.02-.09-.22-.15-.34-.21-.03-.02-.09,0-.13,0-.1-.02-.18-.05-.14-.15-.09-.07-.18-.13-.26-.2,0,0-.02.02-.03.03.04.05.08.1.12.15,0,.01,0,.02-.02.03-.6-.34-1.2-.68-1.81-1.03,0-.01,0-.03.02-.04.02,0,.05,0,.1-.01-.05-.04-.07-.08-.11-.1-.25-.16-.49-.32-.74-.48-.03-.02-.08,0-.11,0,0,.02-.02.04-.03.06-.18-.15-.35-.3-.53-.45,0-.01-.04-.03-.05-.03-.14.06-.17-.03-.2-.13,0-.04-.08-.06-.12-.09-.21-.13-.41-.3-.64-.38-.13-.05-.2-.14-.31-.21-.12-.08-.25-.13-.38-.19-.22-.1-.45-.1-.68,0-.19.08-.38.13-.61.2.06-.05.09-.08.13-.12-.04-.03-.07-.05-.13-.09.06-.04.12-.08.17-.12,0-.02-.02-.04-.03-.05-.06.02-.12.05-.19.06-.07.01-.14,0-.26,0,.14-.15.22-.3.39-.35.04-.01.08-.05.12-.08-.06-.01-.11-.03-.17-.04-.02,0-.05.02-.11.05.11-.15.19-.27.28-.4-.12-.05-.28.08-.31-.14.17,0,.28-.12.37-.28.06-.11.08-.19.05-.33-.04-.19-.15-.16-.27-.18.08-.06.14-.15.22-.16.12-.01.11-.12.19-.16-.1-.17-.12-.17-.29-.09-.06.03-.13.06-.21.07.03-.03.06-.05.09-.08-.04-.05-.12-.07-.24-.04-.18.04.07-.07.1-.11.06-.07.16-.13.09-.25,0-.02.01-.07.03-.09.1-.1.18-.2.26-.32.06-.1.07-.15-.07-.23.21-.11.38-.2.56-.29h-.21c.13-.08.48-.04.61.06-.05.02-.09.03-.13.05v.04c.13.02.27.02.4.05.13.04.25.11.41.18-.05.01-.07.02-.11.02.04.02.07.04.09.03.13-.03.2.05.27.13.04.04.12.05.18.08.09.04.19.08.28.14.19.12.38.25.56.38.36.25.71.51,1.06.76.08.06.18.1.28.14,0-.01.02-.03.03-.04-.09-.07-.19-.14-.28-.21,0,0,0-.01,0-.02.1.06.21.11.31.17.35.24.69.48,1.04.71.58.38,1.15.77,1.75,1.11.32.18.69.29,1.04.42.06.02.12.04.18.08-.04,0-.08.01-.12.02,0,.02,0,.04.02.04.19.06.38.14.57.16.44.05.89.08,1.33.11.22.02.43-.03.65-.09.34-.11.7-.16,1.04-.25.26-.07.51-.16.77-.24.29-.1.59-.19.87-.29.11-.04.22-.12.32-.18.24-.13.49-.26.72-.41.19-.12.35-.28.53-.4.12-.08.27-.15.4-.21.05-.02.11,0,.17-.02.05,0,.11-.01.15-.04.23-.17.44-.35.67-.51.83-.56,1.73-.98,2.68-1.3.35-.12.71-.21,1.07-.27.19-.04.39,0,.59,0,.45,0,.9.03,1.34.12.36.07.72.11,1.11.17-.12-.04-.21-.07-.31-.1v-.03c.09.02.17.04.26.07.36.12.72.23,1.07.39.27.13.54.26.76.49.11.11.27.17.4.26.26.16.52.31.77.49.66.48,1.29.99,1.97,1.45.99.67,2.07.88,3.24.55.64-.19,1.2-.53,1.78-.85.34-.19.69-.37,1.04-.56.13-.07.25-.16.38-.23.51-.29,1.07-.43,1.61-.64.47-.18.96-.23,1.46-.27h.46c-.14-.03-.23-.04-.33-.06.35,0,.69,0,1.02.12.25.09.5.19.75.3.11.05.21.14.31.22.14.11.28.22.46.26.16.04.29.15.44.21.16.07.32.13.48.2.14.07.28.14.41.22.18.11.23.31.25.5.03.22-.03.41-.17.55-.26-.11-.51-.26-.77-.3-.21-.03-.44.07-.65.11v.06c.29.09.57.2.87.28.09.02.2-.05.3.02.07.05.16.06.19.17.02.06.12.1.19.14,0-.01.03-.03.04-.04-.02-.04-.04-.08-.08-.15.05,0,.09,0,.14.01,0,.11,0,.21-.16.2-.07,0-.14.1-.21.1-.12,0-.25-.03-.37-.06-.1-.02-.2-.05-.3-.05.15.18.39.13.57.25l-.36-.07s0,.03-.02.04c.08.04.16.09.27.15-.27-.02-.5-.04-.77-.06.05.07.07.1.11.17-1.03-.33-2.04-.52-3.12-.39.1-.03.16-.06.22-.07s.12-.01.18-.04c-.23-.02-.43.11-.67.15.04-.04.07-.06.1-.09,0-.01,0-.03-.02-.04-.12.04-.24.09-.36.13-.13.05-.25.09-.4.04-.05-.02-.13.05-.2.09-.06.04-.12.08-.18.13,0-.01-.02-.03-.03-.04.11-.07.22-.15.33-.22,0-.01,0-.02,0-.04-.06.01-.12.02-.17.04-.06.02-.12.06-.17.08l-.02-.03c.07-.06.14-.11.22-.17v-.03c-.05.01-.12.01-.16.04-.17.1-.38.17-.5.31-.23.28-.57.37-.84.57-.08.06-.16.1-.26.16.02-.04.03-.06.03-.08,0-.01,0-.02-.02-.04-.19.11-.38.23-.57.34l.02.04h.09s0,.02,0,.03c-.32.18-.63.37-.95.55-.02-.02-.03-.04-.05-.06.04,0,.08-.01.13-.02-.02-.02-.03-.04-.05-.06l-.98.46s0-.03-.02-.04c.26-.13.51-.26.77-.39,0-.01,0-.03,0-.04-.05,0-.11,0-.16.03-.15.07-.29.16-.45.22-.07.03-.17.02-.25,0-.09-.02-.16-.07-.26-.12,0-.01.02-.04.04-.07-.02,0-.03-.02-.04-.02-.16-.01-.34.03-.46-.04-.15-.1-.29,0-.43-.04-.04-.01-.09,0-.13.01v.05c.13.02.27.04.39.06-.04.02-.08.05-.14.08-.11-.03-.24-.06-.36-.1-.02,0-.03-.05-.05-.07-.03-.03-.07-.04-.1-.06,0,.03-.02.07-.04.14-.1.08-.25.08-.42.09-.47.02-.87-.2-1.3-.31-.07-.02-.14-.04-.22-.05.27.37.65.53,1.07.66.41.13.83.18,1.26.12-.09.03-.17.06-.26.09v.04h.57c-.11.03-.24.01-.34.12-.05.05-.2.04-.3.02-.15-.02-.3-.07-.45-.1-.06-.01-.13,0-.19,0-.05,0-.09-.01-.14-.01-.04,0-.1,0-.11.01-.06.08-.15.06-.19.02-.21-.21-.51-.23-.74-.4-.12-.09-.25-.15-.38-.22,0,.01-.02.02-.03.03.13.1.26.2.39.31-.14.06-.22-.18-.34-.09.11.13.22.26.33.39,0,0,0,.02-.02.03-.17-.1-.33-.2-.48-.29,0,.1,0,.19.02.28,0,0-.03.02-.04.03-.07-.07-.14-.13-.21-.2-.08-.09-.15-.19-.25-.26-.23-.17-.47-.33-.71-.49-.1-.07-.19-.15-.3-.22-.25-.16-.51-.32-.76-.49-.18-.12-.36-.24-.54-.36-.41-.26-.82-.53-1.29-.68-.33-.11-.66-.25-.95-.46-.16-.12-.39-.16-.58-.24-.06-.02-.12-.03-.18-.05v-.04h.15c.08.01.16.04.25.06.02,0,.05-.02.07-.03,0-.02-.02-.06-.03-.07-.05-.03-.11-.05-.17-.07-.34-.16-.7-.18-1.06-.21-.1,0-.11.02-.09.15-.02,0-.05.02-.08.02h-.07c-.03.22-.12.25-.34.22-.19-.03-.38,0-.6,0,.05-.04.09-.06.12-.08v-.03h-.53c-.26,0-.49.1-.72.21-.08.04-.14.11-.21.18-.05.05-.08.14-.16.04-.02-.02-.1,0-.14.01-.34.17-.68.35-1.02.52-.05.03-.1.05-.15.07.03-.04.07-.08.1-.12,0,0,0-.02-.02-.02-.05.02-.11.04-.17.06.07-.1.12-.18.18-.27h0c.11-.14.23-.28.35-.43-.44.11-.62.48-.9.77.05.03.09.05.12.07-.05.06-.1.12-.15.17,0,.01.02.02.03.03.05-.02.1-.05.15-.07.11-.06.21-.12.32-.18-.28.19-.45.52-.8.68.02-.05.02-.07.03-.09,0-.02.02-.04.02-.08-.06.03-.13.06-.19.08l.09-.12s-.02-.02-.03-.03c-.09.06-.17.12-.26.18,0,.01,0,.02.02.04.06-.02.12-.04.18-.07l.02.08ZM139.62,88.41l-.06.14c.06-.02.11-.03.15-.05.14-.08.29-.16.43-.23.18-.09.36-.17.53-.27.03-.01.04-.06.06-.1-.04,0-.08-.02-.11-.02s-.06.04-.1.06c-.14.08-.28.16-.42.23-.16.08-.32.16-.48.25-.09-.06-.3,0-.42.13,0,.01,0,.03.02.04.14-.06.27-.12.41-.17h0ZM144.21,86.22c.36-.08.93-.38,1.03-.55-.17.07-.32.13-.47.19-.1-.19-.17.02-.26.02,0-.12-.07-.06-.13-.03-.35.2-.7.4-1.05.6-.15.08-.31.14-.46.22-.23.12-.45.25-.67.38-.07.04-.13.1-.2.14,0,0,0,.02.02.03.06-.01.12-.03.18-.04-.16.29-.36.54-.65.69,0,.01.02.02.03.04.06-.02.11-.04.19-.07-.32.29-.49.37-.59.29.06-.1.24-.06.26-.21-.36.1-.64.3-.87.59.02.01.05.02.08.04-.05.07-.11.13-.15.2-.02.03-.05.1-.04.11.08.09.02.16,0,.24-.02.06-.04.12-.06.2.28-.03.49-.16.7-.29.28-.18.57-.35.87-.52.09-.05.21-.06.3-.11.14-.09.28-.2.41-.31.09-.08.17-.17.26-.26,0-.02-.03-.03-.04-.05l-.56.36c.17-.35.5-.5.82-.71-.03.08-.04.14-.06.19h.03s.09-.06.15-.12c-.02.06-.02.09-.04.14.11-.04.18-.08.19-.2,0-.07.06-.14.11-.19.08-.08.18-.15.28-.23,0-.02-.02-.03-.03-.05-.07.04-.14.09-.21.13-.02-.04-.03-.08-.05-.13-.17.13-.35.23-.47.37-.14.16-.29.25-.53.29.14-.09.25-.16.36-.24,0-.02-.02-.03-.03-.05l-.19.07s0-.02-.02-.03c.2-.14.4-.29.59-.43,0-.02-.03-.04-.04-.06-.11.06-.22.11-.36.19.02-.06.03-.09.05-.1.17-.13.33-.28.53-.38.27-.14.56-.25.79-.46.03-.02.07-.03.1-.04,0,0,0,.02.02.03-.03.05-.06.09-.1.14v-.03ZM133.2,90.58c-.06,0-.12.03-.16.01-.3-.12-.62-.24-.9-.39-.44-.24-.86-.5-1.28-.75-.02-.01-.06-.03-.07-.02-.09.07-.15,0-.22-.04s-.15-.09-.22-.13c0,.01-.02.02-.02.03.05.05.09.11.15.15.47.29.92.6,1.41.86.9.47,1.81.93,2.79,1.23.07.02.15.02.22.04,0-.02,0-.03,0-.05-.15-.18-.4-.16-.59-.28.09,0,.16.02.24.03,0-.01,0-.03,0-.04-.07-.05-.14-.12-.23-.16-.31-.13-.63-.26-.95-.39-.03-.01-.05-.04-.07-.07-.06-.06-.11-.12-.16-.18,0,.01-.02.02-.04.03.02.04.05.08.08.13h0ZM135,89.36v.06c.08.02.15.05.23.06.16.02.33-.02.48.03.2.07.38.06.58.02.17-.03.35-.09.52.04.02.02.06.02.09.01.13-.03.26-.06.37-.08l-.04-.03c.13-.08.25-.15.39-.24-.9.04-1.76.08-2.62.13ZM159.94,89.94c-.15.05-.27.08-.37.13-.23.12-.47.15-.72.19-.28.04-.55.09-.82.14v.06c.08,0,.19-.03.22,0,.1.12.23.08.33.05.28-.07.56-.16.84-.26.18-.06.38-.1.52-.31ZM138.85,88.73s0-.04-.02-.06c-.3.05-.62.05-.86.29.06,0,.12-.01.21-.03-.1.09-.27.05-.21.24.23-.07.49-.05.71-.23-.06-.03-.09-.04-.13-.06.11-.06.21-.11.3-.16h0ZM135.5,89.16c.24.14,1.49.16,1.65-.02l-1.65.02ZM136.02,89.02c-.26-.16-.96-.29-1.11-.2.37.17.75.16,1.11.2ZM145.81,87.69c-.26.09-.55.14-.75.37.28-.07.52-.21.75-.37ZM134.26,91.44c.18.21.42.28.61.19-.22-.07-.42-.13-.61-.19ZM126.61,87.29c.07-.05.11-.08.16-.12-.05-.05-.1-.1-.16-.13-.02-.01-.08.05-.12.07.04.05.07.1.12.18ZM138.97,88.77c.15.05.49-.11.5-.22-.17.08-.34.15-.5.22ZM128.94,85.14s-.02.03-.03.05c.16.11.32.22.48.33,0-.02.03-.04.04-.06-.16-.11-.32-.21-.49-.32h0ZM157.93,90.45c-.15-.14-.3,0-.45-.03v.04h.45ZM134.4,88.66l.03-.06c-.14-.05-.27-.11-.41-.16l-.02.05c.13.06.27.11.4.17h0ZM145.42,85.61c.09.1.16.03.23,0,0,0,0-.05,0-.08-.06.01-.12.02-.17.04-.02,0-.03.03-.06.05h0ZM132.05,90.55s.02-.04.03-.06c-.11-.06-.22-.12-.32-.17,0,.01-.02.03-.02.04.1.06.21.13.31.19h0ZM156.74,90.71c-.11-.03-.21-.1-.33-.05v.05h.33ZM137.38,89.07s0-.05,0-.08c-.1.02-.2.04-.3.05v.06c.11-.01.21-.03.31-.04h0ZM130.9,89.79s-.03.04-.04.05c.08.05.15.11.23.16,0-.01.02-.03.03-.04,0,0-.22-.17-.22-.17Z"/>
            <path class="cls-1" d="M140.6,90.64c-.14.1-.28.2-.44.32,0,0-.05-.04-.05-.03-.12.14-.34.06-.48.23.06,0,.1.01.14.02-.21.18-.46.25-.75.27,0-.06.02-.1.03-.14-.14-.14-.33.06-.49-.09.06-.02.1-.03.13-.04.13-.03.26-.03.38-.08.18-.06.36-.15.53-.23.03-.01.06-.02.1-.02.12-.02.25-.03.37-.07.18-.05.35-.11.52-.17,0,.01,0,.02,0,.03Z"/>
            <path class="cls-1" d="M152.62,90c.05.03.11.06.16.1.18.13.35.3.55.39.24.11.33.35.54.48.07.04.05.15-.02.19-.02.01-.04.04-.08.07-.15-.17-.42-.26-.48-.55,0-.05-.07-.1-.11-.14-.13-.1-.28-.19-.41-.29-.07-.06-.11-.15-.16-.23v-.02h.01Z"/>
            <path class="cls-1" d="M162.15,89.5c.03.28-.23.24-.33.34l.17-.12s-.02-.03-.03-.04c-.28.25-.55.52-.9.61.24-.4.72-.51,1.1-.79h-.01Z"/>
            <path class="cls-1" d="M133.52,91.79c-.28-.15-.55-.29-.82-.44.2-.14.4-.1.52.09.04.06.09.12.14.17.05.05.09.1.16.17h0Z"/>
            <path class="cls-1" d="M144.75,88.89v.1c.31-.11.61-.22.92-.33h0c-.33.17-.65.34-1,.52,0-.06,0-.1.02-.13h-.14c.08-.06.14-.11.22-.16h-.02Z"/>
            <path class="cls-1" d="M160.08,90.85c.08-.16.28-.31.53-.38.04.12-.28.35-.53.38Z"/>
            <path class="cls-1" d="M125.99,86.76c-.12.07-.23.14-.34.2-.01,0-.03-.02-.04-.02.01-.05,0-.13.04-.15.1-.05.22-.12.34-.03Z"/>
            <path class="cls-1" d="M157.08,91.91c-.29.03-.57-.02-.84-.16l.84.16Z"/>
            <path class="cls-1" d="M125.74,86.29c-.11.08-.21.15-.31.22.07-.2.17-.28.31-.22Z"/>
            <path class="cls-1" d="M157.62,91.2c.16-.07.37-.03.49-.23,0,.03,0,.08-.02.1-.14.1-.3.14-.47.13Z"/>
            <path class="cls-1" d="M135.3,92.28c-.18-.05-.36-.09-.55-.14v-.04c.18.05.36.09.55.14v.04Z"/>
            <path class="cls-1" d="M136.82,92.31c-.1-.01-.19-.03-.29-.04v-.06l.29.04-.02.06h.02Z"/>
            <path class="cls-1" d="M143.34,89.63c-.06.02-.12.04-.18.07,0-.01,0-.02-.02-.04.09-.06.17-.12.26-.18,0,.01.02.02.03.03l-.09.12h0Z"/>
            <path class="cls-1" d="M149.88,88.89l-.39-.16s0-.02.02-.04c.13.06.26.11.38.17,0,.01,0,.02,0,.03h0Z"/>
            <path class="cls-1" d="M144.21,86.22c.04-.05.07-.1.1-.14,0,0,0-.02-.02-.03-.03.01-.07.02-.1.04-.23.21-.52.32-.79.46-.19.1-.35.25-.53.38-.02.01-.02.05-.05.1.14-.07.25-.13.36-.19,0,.02.03.04.04.06-.2.14-.4.29-.59.43,0,.01,0,.02.02.03l.19-.07s.02.03.03.05c-.11.07-.22.14-.36.24.23-.04.39-.13.53-.29.13-.14.3-.24.47-.37.02.05.04.09.05.13.07-.04.14-.09.21-.13,0,.02.02.03.03.05-.09.08-.19.15-.28.23-.05.05-.11.12-.11.19,0,.12-.08.16-.19.2,0-.05.02-.08.04-.14-.06.05-.1.09-.15.13h-.03c.02-.06.03-.12.06-.2-.32.21-.65.36-.82.71l.56-.36s.03.03.04.05c-.09.09-.17.18-.26.26-.13.11-.26.22-.41.31-.09.06-.21.06-.3.11-.29.17-.58.34-.87.52-.21.13-.42.26-.7.29.02-.08.04-.14.06-.2.03-.08.09-.15,0-.24,0-.02.02-.08.04-.11.04-.07.09-.13.15-.2-.03-.02-.06-.03-.08-.04.23-.29.51-.5.87-.59-.03.14-.21.1-.26.21.1.08.27,0,.59-.29-.08.03-.14.05-.19.07,0-.01-.02-.02-.03-.04.3-.15.49-.4.65-.69-.06.01-.12.03-.18.04,0,0,0-.02-.02-.03.07-.05.13-.1.2-.14.22-.13.44-.26.67-.38.15-.08.31-.14.46-.22.35-.2.7-.4,1.05-.6.06-.03.11-.09.13.03.09,0,.16-.21.26-.02.15-.06.3-.12.47-.19-.09.17-.66.48-1.03.55v.03Z"/>
            <path class="cls-1" d="M133.2,90.58c-.04-.06-.06-.1-.08-.13,0-.01.02-.02.04-.03.05.06.11.12.16.18.02.02.05.06.07.07.32.13.64.25.95.39.08.04.15.1.23.16,0,.01,0,.03,0,.04-.07,0-.15-.02-.24-.03.19.13.44.11.59.28,0,.02,0,.03,0,.05-.07-.01-.15-.01-.22-.04-.98-.3-1.89-.76-2.79-1.23-.49-.25-.94-.57-1.41-.86-.06-.04-.1-.1-.15-.15,0-.01.02-.02.02-.03.07.04.14.09.22.13.07.04.13.11.22.04,0,0,.05,0,.07.02.43.25.85.52,1.28.75.29.16.6.27.9.39.04.02.09,0,.16-.01h0Z"/>
            <path class="cls-1" d="M135,89.36c.86-.04,1.72-.08,2.62-.13-.14.09-.26.16-.39.24.03.02.05.04.04.03-.11.03-.24.06-.37.08-.03,0-.07,0-.09-.01-.16-.13-.35-.07-.52-.04-.2.03-.38.05-.58-.02-.15-.05-.32-.02-.48-.03-.08,0-.15-.04-.23-.06v-.06Z"/>
            <path class="cls-1" d="M144.29,89.04c-.11.06-.21.12-.32.18-.05.03-.1.05-.15.07,0-.01-.02-.02-.03-.03.05-.06.1-.11.15-.17-.04-.02-.07-.04-.12-.07.27-.29.46-.66.9-.77-.12.15-.24.29-.35.43h0c-.06.09-.12.18-.18.27.06-.02.12-.04.17-.06,0,0,0,.02.02.02-.03.04-.07.08-.1.12h0Z"/>
            <path class="cls-1" d="M159.94,89.94c-.14.21-.34.25-.52.31-.28.1-.56.19-.84.26-.1.03-.22.06-.33-.05-.03-.04-.15,0-.22,0v-.06c.27-.05.55-.1.82-.14.25-.03.5-.06.72-.19.1-.05.22-.08.37-.13Z"/>
            <path class="cls-1" d="M138.85,88.73c-.1.05-.19.1-.3.16.04.02.07.03.13.06-.22.18-.47.16-.71.23-.07-.19.11-.15.21-.24-.1.01-.16.02-.21.03.24-.24.56-.24.86-.29,0,.02,0,.04.02.06h0Z"/>
            <path class="cls-1" d="M135.5,89.16l1.65-.02c-.16.19-1.42.16-1.65.02Z"/>
            <path class="cls-1" d="M139.62,88.42c.16-.08.32-.16.48-.25.14-.07.28-.15.42-.23.03-.02.06-.05.1-.06.04,0,.08,0,.11.02-.02.03-.03.08-.06.1-.17.09-.35.18-.53.27-.14.08-.29.16-.43.23-.04.02-.08.03-.15.05.02-.06.04-.1.06-.14h0Z"/>
            <path class="cls-1" d="M136.02,89.02c-.37-.05-.74-.04-1.11-.2.15-.09.85.05,1.11.2Z"/>
            <path class="cls-1" d="M145.81,87.69c-.23.16-.47.3-.75.37.2-.22.49-.27.75-.37Z"/>
            <path class="cls-1" d="M134.26,91.44c.19.06.38.12.61.19-.19.1-.43.02-.61-.19Z"/>
            <path class="cls-1" d="M126.61,87.29c-.05-.07-.08-.12-.12-.18.04-.03.09-.08.12-.07.06.03.11.08.16.13-.04.03-.09.07-.16.12Z"/>
            <path class="cls-1" d="M138.97,88.77c.16-.07.32-.15.5-.22,0,.11-.35.27-.5.22Z"/>
            <path class="cls-1" d="M128.94,85.14c.16.11.32.21.49.32,0,.02-.03.04-.04.06-.16-.11-.32-.22-.48-.33,0-.02.02-.03.03-.05h0Z"/>
            <path class="cls-1" d="M139.62,88.41c-.14.06-.27.12-.41.17,0-.01,0-.03-.02-.04.13-.13.33-.19.42-.13h.01Z"/>
            <path class="cls-1" d="M157.93,90.45h-.45v-.03c.15.02.3-.11.45.03Z"/>
            <path class="cls-1" d="M134.4,88.66c-.13-.06-.27-.11-.4-.17l.02-.05c.14.05.27.11.41.16l-.03.06h0Z"/>
            <path class="cls-1" d="M145.42,85.61s.04-.05.06-.05c.06-.02.12-.03.17-.04v.08c-.07.03-.14.11-.23,0h0Z"/>
            <path class="cls-1" d="M132.05,90.55c-.1-.06-.21-.13-.31-.19,0-.01.02-.03.02-.04.11.06.22.12.32.17,0,.02-.02.04-.03.06h0Z"/>
            <path class="cls-1" d="M156.74,90.71h-.33v-.05c.11-.06.22.02.33.05Z"/>
            <path class="cls-1" d="M137.38,89.07c-.1.01-.2.03-.3.04v-.06c.09-.02.19-.04.29-.05,0,.03,0,.05,0,.08h0Z"/>
            <path class="cls-1" d="M130.9,89.79l.22.17s-.02.03-.03.04c-.08-.05-.15-.11-.23-.16,0-.02.03-.04.04-.05Z"/>
          </g>
        </g>
        <g>
          <path class="cls-1" d="M155.39,81.2l-2.56.39v-.06c.05-.03.33-.07.47-.15l-.15.02c-.16.02-.38.03-.43.02l-.02-.1c-.11.02-.24.04-.3.08-.12,0-.35-.04-.38-.18-.02-.03.06-.05.06-.05,0-.06-.04-.07-.06-.07-.06,0,0,.08-.1.09-.02-.04,0-.11.03-.13-.02-.12-.23-.12-.3-.13,0-.07.02-.17,0-.24,0-.09-.12-.13-.13-.22-.1-.67.04-1.14-.23-1.86l-.53-3.46s-.04.05-.05.08l-.06-.41.04-.14-.21-1.35c0-.07-.2-.01-.21-.07l-.06-.38s-.06-.04-.06-.08v-.08l-.18-.32s.04-.04.04-.07c.05.02.08.09.1.12.17-.06,0-.23.13-.32.03.01.06.04.06.07v.02s.08-.04.09-.06c-.06-.07-.08-.2-.09-.24.02.01.09.03.1.03.15-.02.1-.2.2-.21,0-.02.03.01.05.02.05,0,.13-.02.12-.08-.02-.15-.18-.2-.2-.33.31-.05.56.11.6.1l.14-.07s.03.01.24.24c0-.04.03-.11.06-.12.1-.01.25.22.26.32.02.12-.03.25,0,.36.03.09.18.41.19.5.05,0,.06.04.06.07,0,.07-.06.13-.05.23.06.04.05.13.06.2.04-.05.03-.16.11-.17.18-.03.2-.02.53,1.22v.04l.3,1.17s.05.46.04.55c.07.46.28.94.34,1.38.05.31-.04.63,0,.95.03.18.22.27.27.55.04.27.1.33.05.75.61-.09,1.14-.22,1.71-.31.26-.04.7-.11,1.02-.07.03,0,.22.04.24.04.32-.05,1.07-.24,1.13.1.03.21-.05.46-.08.66-.1.03-.18.12-.17.21,0,.07.17.13.18.2-.24.28-.61.58-.93.63-.49.07-1,.08-1.47.13l-.05-.02h.02ZM151.46,80.55v.05s-.03,0-.04-.02c0-.03,0-.06.02-.06.02.01.02.03.02.04h0ZM151.53,80.95v.08s-.04-.02-.04-.07,0-.08.02-.08c.02.01.02.04.03.07h-.01ZM150.19,71.67c.06,0,.29-.03.31.09.03,0-.11.06-.16.07.02,0-.14-.02-.15-.14h0v-.02ZM150.61,71.65s0,.03,0,.03c-.02,0-.03-.01-.04-.02,0-.03,0-.05.03-.05.02,0,.02.01.02.04h0ZM151.08,71.45s-.09-.06-.14-.05c0,.04.06.07.14.05ZM153.84,81.23c.05,0,.1.01.12.01.08-.01.1,0,.16-.05l-.27.04h0Z"/>
          <path class="cls-1" d="M158.27,79.47c.02-.85.14-1.7.31-2.53,0-.02.04-.08.03-.1,0-.03,0-.06.02-.09.05-.35.1-.68.14-1.05.04-.48.26-.93.33-1.41.06-.46.06-.93.1-1.38.06-.34.22-.85.29-1.15-.05-.11.04-.19.04-.28.02-.34.07-.65.06-.93l.44-.57c.17-.06.28-.15.48-.21-.12-.12.33-.23.41-.24.26-.04.6.12.79.27.02.01.1.09.11.1,0,0,.02.03.04.02l.84,1.14s.52.8.52.81c.06.08.43.75.48.83.93,1.73,2.27,3.92,3.1,5.67.09.58-.63.67-1.18.75l-.18.03h-.03s-.03,0-.05.01c-.7.11-.82-.93-1.23-1.32h-.05c-.56.25-1.18.17-1.76.38-.27,0-1.58.36-1.83.51,0,.23-.07.28-.14.48-.17.51.28.53-.27.83-.23.14-.11.17-.41.22-.58.1-1.26.09-1.38-.58,0-.03,0-.19-.02-.22h0ZM160.9,76.77l.16-.02c.61-.11,2.23-.43,2.23-.49h0c-.07-.13-.36-.63-.41-.72-.02,0-.06-.07-.06-.08v-.03c-.06-.11-.2-.44-.21-.47-.23-.42-1.09-2.36-1.35-2.74,0,.02-.02.11,0,.14-.02.09-.11,2.53-.13,2.62,0,.12-.11.71-.13.85.09.12-.12.71-.09.95h0Z"/>
        </g>
        <g>
          <path class="cls-1" d="M128.89,77.1h0v-.13c0-.37.31-1.92.3-1.98l-.04-.05.39-2.97v-.04s.09-.02.11-.03c.09-.15-.08-.35.27-.29.05-.31,0-.54.43-.55h.19s-.43-.19-.49-.24c.15.02.23-.04.34-.02v.04c.34.06.63.07.96.13.41.07.82.21,1.23.3.54.13,1.55.24,2.07.52,1.24.68,1.64,1.16,2.1,2.39.24.61.16,1.68.11,2.31l-.03.16c-.04.24-.1.53-.19.76-.07.11-.34.5-.45.66-.16.22-.59,1.31-.76,1.36v-.04c-.16.06-.2.23-.3.32-.04.02-.29.19-.35.24-.19.12-.89.55-1,.6-1.32.77-2.2.73-3.82.43-.02,0-.04.02-.05.02-.05,0-.19.01-.22,0-.02,0-.13-.05-.14-.07-.04.05-.08.1-.15.09-.32-.05-1.09-.44-1.04-.75l.41-2.78v-.16c.02-.1.09-.15.11-.23h0ZM128.57,80.78c0,.06-.09.04-.13.04l.03-.16c0,.13.08.04.1.12ZM130.78,79.45c.1.02.19-.01.31,0,.07.01.13.06.19.08.12.02.24-.09.29-.13,1.16-.52,1.74-.51,2.54-1.56.05-.08.22-.3.22-.33l.04-.26.04-.27s-.15-.04-.16-.07v-.04c.04-.23.11-.44.15-.65.09-.56.09-1.63-.16-2.21-.09-.1-.52-.61-.62-.73-.14-.17-.56-.46-.81-.5l-1.26-.2c-.04.26.04.62.04.9.07.5-.23,2.38-.23,2.68-.02.25-.15,1.46-.19,1.7,0,.01-.04.33-.05.43,0,.07-.08.37-.09.44-.14.23-.23.46-.27.72h.02ZM135.49,79.35s.04-.07,0-.07-.04.07,0,.07Z"/>
          <path class="cls-1" d="M137.99,73.86s.03.05,0,.04c-.02,0,0-.05,0-.04ZM137.43,81.47c.09.1.14.38.33.36.02,0,.06-.05.06-.06l.52.08c.08-.1.17-.02.27-.07l.57.09h.27c.22.04.43.11.66.14s.49.05.75.09h.08c.15.04.76.15.91.17.08.01.6.07.74.09.07.01.54-.06.56-.06.13-.08.24-.3.46-.23v-.03c0-.06-.11-.05-.14-.05.02-.1.1-.09-.04-.18.03,0,.13-.04.13-.04.02-.01,0-.12,0-.13.07.01.1.04.14,0l-.04-.05c.09-.02.11-.03.12-.08,0-.09,0-.02-.09-.1-.3-.36-.37-.43-.91-.51-.25-.04-.49-.05-.72-.09-.9-.14-1.34-.23-2.24-.42-.04,0-.18-.04-.19-.07v-.09c.08-.51.27-1.03.35-1.56.07-.44-.03-.43.04-.86,0-.06.05-.18.05-.18l.13-.1s.8.11,1.12.15h.05c.34.03,1.14.13,1.17.14.05,0,.52-.05.57-.05h.22s.06-.06.06-.06c.04-.04.17-.1.21-.11.1-.06.12.02.13-.07,0-.03-.02-.11-.07-.08.05-.11.21-.11.23-.24.07-.41-.13-.27-.27-.53l-.52-.08c-.5-.08-1.12-.27-1.61-.2l-1.16-.19s-.06-.04-.08-.06h0v-.03h.26s.05,0,.05-.02c-.07-.08-.33-.04-.34-.13l-.03-.36-.03-.05s.11-.98.14-1.19c0-.07.1-.41.13-.48.07.01.44.04.52.05h.02c.6.1,1.2.2,1.81.29l.72.12c.03-.05.57.06.5-.11.43,0,.61,0,.68-.39h.03c.08.02.1.02.12-.09.03-.19-.37-.78-.59-.81-.03,0-.31-.17-.39-.15l-1.66-.3-1.03-.17c-.25-.04-.51-.04-.75-.08-.27-.04-.47-.16-.69-.2-.05,0-.24,0-.25.06v.03s.02.03.04.04c-.06.05-.08.06-.14.05-.15-.02-.3-.12-.45-.15h-.05s.07.06.07.08c.02,0-.04.07-.04.07,0,.01-.02.04-.02.04,0,.04,0,.07.04.09-.05,0-.06.05-.05.09-.04.02-.23.15-.25.18-.04.02-.1.07-.11.07,0,0-.11-.06-.13-.06,0,0-.04.02-.04.04,0,.01-.05.09-.05.11h-.05l-.25,1.23c-.04.14-.1.53.13.56.15.02.09-.06.2-.09.04.04,0,.06,0,.12,0,.03,0,.26,0,.29,0,.12-.08.72-.1.85l-.15,1-.06.03s-.11.45-.14.64c0,.03-.03.39-.04.45,0,.01-.02.25-.03.32-.06.39-.16.71-.31,1.07h-.05s-.05.1-.06.16c-.04.13,0,.13-.1.22l.02-.1c-.09.12-.1.2-.12.33l-.02.13c.14,0,.07-.24.19-.31l-.07.43h-.05v.04s.03.15.03.16l-.06.02-.02.11c-.03.17.08.35.06.51,0,.01-.04.02-.06.02l-.03.21.31.29h-.02ZM138.31,72.16l-.02.14h.05l.02-.14h-.05ZM137.03,80.43l-.07.09v.04h.04l.02-.14h.01ZM137.13,80.06s-.04.17-.03.16c.02-.03.04-.14.03-.16ZM138.22,74.66s-.04.04,0,.04.04-.04,0-.04ZM138.63,72.63s.02.09,0,.09-.02-.09,0-.09ZM137.32,81s-.04.02-.03,0c0-.02.05,0,.03,0ZM137.46,81.05v.04l-.16-.02s.11-.03.16-.02ZM139.01,72.16s.04.08,0,.07c-.03,0-.02-.08,0-.07ZM139.09,72.22l.13.02v.03s-.13-.05-.13-.05ZM139.4,72s-.06.06,0,.07c.03,0,.04-.07,0-.07ZM139.45,71.92s.04.05.09.06h.05s-.09-.07-.14-.09v.03ZM139.58,80.48v-.03l.87.14s-.03.05-.06.06l-.17-.03c-.25-.04-.37-.06-.64-.15h0ZM141.73,72.57s-.07,0-.08-.01c0-.02.1,0,.08.01ZM140.52,80.58c.05,0,.04.06,0,.06-.03,0-.02-.06,0-.06ZM140.82,80.65s-.17-.01-.22-.03c-.03-.02.25.03.22.03ZM143.3,77.64s.02.08,0,.07-.02-.08,0-.07ZM144.33,74.12s-.05.02-.05,0c0-.01.05,0,.05,0ZM144.52,73.88s.04.09,0,.09c-.03,0-.02-.09,0-.09Z"/>
        </g>
      </g>
    </g>
  </g>
</svg>