<?xml version="1.0" encoding="UTF-8"?>
<svg id="Ebene_1" xmlns="http://www.w3.org/2000/svg" version="1.1" viewBox="0 0 96.5 75.5">
  <!-- Generator: Adobe Illustrator 29.0.1, SVG Export Plug-In . SVG Version: 2.1.0 Build 192)  -->
  <defs>
    <style>
      .st0 {
        fill: #1a08f5;
      }
    </style>
  </defs>
  <g>
    <path class="st0" d="M33.5,20.1c.2.3.3.5.4.8,1.3.7,2.2,1.9,3.9,2.6,1.3.7,2.6,2.4,4.2,3.6,1.2,1.2,2.3,2.6,3.5,3.8,1.2,1.3,2.5,2.4,4.1,2.9.5.2,1.2.9,1.4,1.9,1.3,0,2.5.8,3.5,1.9,1.1,1,2,2.3,2.8,3.3.6.7.5,1.7.4,2.3,1.1.7,2.2,1.5,3.2,2.3,1.1.8,2.1,1.8,2.9,2.8,1.1,1.3,2.3,2.5,3.3,3.9,1.1,1.4,2.1,2.9,2.9,4.6.3.5,1,1.1,1.5,1.4v.8c1.3,1.8,3.1,3,3.9,4.8,1,2.5-.4,3.7-1.7,4.9-1.2-.8-2.8-1.4-4.2-2.3-1.4-.9-2.7-2-3.4-4-.3-1.2-1.8-2.2-2.8-3.2-1-.7-1.1-2.3-2.6-2.5,0-1-.3-2.3-1-3.6-.7-1.3-1.6-2.6-2.7-3.4,0-.3.2-.2,0-.5-3.3-2-5.9-5.3-9.1-8.1-1.8-1.3-3.2-3.4-5.5-4.8-.3,0-.8-1.2-1.4-1.6-.3,0-.5-.1-.8-.2-1.3-1.3-3.1-2.5-3.8-3.8-.9-1.4-2.1-2.1-3-3.2-.6-.8-1.7-1.6-2.7-2.5-1-.8-2-1.7-2.3-2.7,0-.2-.7-.6-1.1-.9l-.3-.7c-.4-.3-1,0-1.4-.2-1.2-1-2.5-2-3.6-3-.6-.5-1.1-1-1.4-1.6-.4-.5-.6-1.1-.5-1.7.3,0,1,.3,1.1-.4,0-.4,0-.6.2-1,0-.4-.1-.8-.1-1.3,0-.5,0-1,.2-1.4.1,0,.5,0,.8,0,.3,0,.6,0,.6.1-.2.8.3,3.2,1.8,5.2.1.2,1.1.1,2,.3,0,0,0-.2-.2-.5,1.2.2,2.2,1.5,3.4,2"/>
    <path class="st0" d="M21.5,11.6c.3,0,.2,0,.4.4-.1-.1-.3-.3-.4-.5h0Z"/>
    <path class="st0" d="M40.9,30c-.2.1,0,.4-.3.2,0-.2.5-.4-.2-.6l.5.4Z"/>
    <path class="st0" d="M40.6,31.3v.5c0,0,0-.3,0-.5Z"/>
    <polygon class="st0" points="18.5 12.7 18.5 12.7 18.5 12.7 18.5 12.7"/>
    <path class="st0" d="M27,17l-.6-.4v.4c.2,0,.3,0,.6,0Z"/>
    <path class="st0" d="M26.5,17c0,0,0,.2.1.4v-.4Z"/>
    <path class="st0" d="M25.1,16.7c0,.7.4.1.9.7.4-.4-.6-.5-.9-.7Z"/>
    <polygon class="st0" points="27.5 18.8 27.4 19.2 27.8 18.8 27.5 18.8"/>
    <path class="st0" d="M33.4,20.3c-.9,0,0,.7,0,.9v-.9Z"/>
    <path class="st0" d="M27.4,20.2v-.5c.1,0-.1.1-.1.1-.1-.1-.4-.2-.4-.5-.5.4.3.6.6.9Z"/>
    <line class="st0" x1="30.5" y1="20.9" x2="30.8" y2="21.6"/>
    <line class="st0" x1="33.7" y1="24.9" x2="34.1" y2="24.3"/>
    <path class="st0" d="M36.4,26.7c-.3-.3-.6-.6-.9-.9.2.4.5.7.9.9Z"/>
    <path class="st0" d="M26.4,19.8c.3.2.5.3.8.5-.3-.4-.6-.7-.9-1.1,0,.2,0,.4.1.6Z"/>
    <path class="st0" d="M29.5,16.8v-.2c-.1.7.4,1.5.3,2.1-.1.3-.5-.2-.8-.3v-.5c-.4-.5-.9.4-1.6-.4.9-.1-.4-1.5-.7-2.3-1.3.5-.4.8-1.5,1.2-.6-.5-1.7-.9-2.3-1.7,1.8,1.3-.4-1.3,1.2-.6-.2-.3-.6-.4-.9-.6"/>
    <path class="st0" d="M33.5,20.1c0,.4-.8,0-1-.3.1.1,0,.4.3.3-.2.3-.5-.2-.7-.2-1-.9.6.1.3-.4-.5-.2-1.4-1-1.3-.3-.9-.6,0-.7-.3-1.3.4.8,1.2.3,1.3,1.1.3,0,.3-.2.2-.5-.8-.4-1.8-1.8-2.2-1.3"/>
    <path class="st0" d="M34.9,21.9"/>
    <path class="st0" d="M23.6,12.8c0-.3-.1-.7-.2-1.1,0-.2-.1-.4-.2-.5,0-.1,0-.2,0-.3-.2.2-.6.3-.6,0,.3-.4.4-.5,0-.9-.8-.1-1,.3-.9,1,0,.6.2,1.3,0,1.8,0,0,.1.1.2.2,0,0,0,.2.2.3.2.2.3.5.4.7.2.5.3,1,.4,1.6.2,1.1.4,2.2,1.5,3.4.6,0,.5-.2,1.4.2,1.1-.4-.7-1.5-.8-2.4.3,0,.7,0,.8.4v-.7c1.6.7.2,1.3,1.5,1.9h-.3c0,0,.7.2.7.2v-.2c.3.2.7,0,1.2.6h-.7c.5,0,.2.6.8.8-.4,0-.7.2-.9,0,.5.7,1.1,1.3,1.6,1.8,2.3,1.3,4,3.1,5.6,5.1,0-.1,0-.3,0-.4.4.2.5.5.5.9.3.4.5.8.8,1.2.8.6,1.5,1,2.4,1.9-.2.3-.3.3-.4.2.4.2.6.3.5-.2.6.4.7.9,1.1,1.3l-1.3-.4c.2.5.7,0,1.1.7,1,.6,0-.8.4-1l.3.4v-.8c.7.8.7,1.6.8,2.2l-.4-.7c-.7.4.8.9.8,1.4h-.1c.8.7,0-.5.7,0l.5,1.4.2-.5c.8.3,1.4,1.9,2.2,2.9.4.6,1.4,1,2.1,1.6,0-.2-.2-.5,0-.6.4.4,1.3,1.3.6,1.3l.9.3c.2.2.3.4.3.6v-.3s.8.6.8.6c0,0,0,.5-.4.2.3,1.2,2,1.4,3,2.8l-.5-.2c1,.4.4,1.1,1.4,1.7v-.4c.8.4,1.4,1.8,1,1.9.8-.6,0,.5,1,.3l-.4.9c.5.2.9.5,1.1,0,.2.9.6,1.4,1.3,1.3,0,0,0,0,0,0h0s0,0,0,0c.2,0,.5.8.6.2,1.2,1.4,0,1.3,1.1,2.5l.5-.4c.7,1.1,2,1.7,2.9,2.3l-.4.4c.5.4.4-.4,1.1.3,0,.2,0,.4-.2.5.7.8,1.3,2,2.1,3.3,0,0-.3,0-.4,0,.4.5,1.2,1.2,1.8,1.7.3,2,1.2,4.4,2.7,6.2,2.1.8,4.1.9,5.5.2.6-.9.5-3.1-.3-5.6-1.6-.7-3.3-2.8-4.4-4-1.4-2.1-4.1-3.9-6.1-6h.2c-.6-1.1-1.5-2.1-2.4-3-1-.9-1.9-1.9-2.8-2.8v.3c.1.3.5.8,0,.8-.3-.5-.7-1.2-.6-1.4h-.6c0-.5.9-.9,0-1.4-1.2.2-1-2.1-1.9-1.3.3-.8-.8-1-1.1-1.4l-.2.6c-.5-.9-.5-2.2-1-2.5-1-.8-2.2-2-3.4-2.8.2-.7,1,1,.9,0-2.7-1-4.1-4.8-6.9-6.4,0,.1.2.3,0,.3-.1-.8-1.1-1-1.6-1.9-.2.4.8,1.4,1.1,1.7-1,.6,0-.4-1.2-1,0,.1,0,.3,0,.4-1.1-.7,0-.8-.8-1.4l.2.6c-.7-.7-.3,0-1.3-.6.5-.3.4-1,.2-1.3-.3.1-.9-.7-1.2-.2-.2-1.8-1.5-.8-1.7-2.5-.7,0,0,.8-.3,1.1-1.2-.5,0-.7-.2-1.2"/>
  </g>
  <g>
    <path class="st0" d="M67.8,22.3c-.3.2-.6.2-.8.3-.9,1.2-2.1,2.1-3,3.7-.8,1.3-2.7,2.5-3.9,4.1-2.5,2.4-6,4.3-6.9,7.6-.2.5-.8,1.2-1.7,1.4.2,1.1-.6,2.6-1.6,3.8-1,1.2-2.3,2.4-3.4,3.3-.7.7-1.8.7-2.4.6-1.4,2.4-3.2,4.7-5.3,6.6-2.5,2.4-4.9,4.7-7.9,6.8-.4.3-.9,1.1-1,1.7l-.7.2c-1.4,1.6-1.9,3.5-3.2,4.7-1.8,1.7-3.5.9-5.1.3.3-1.5.2-3.2.6-4.9.2-.9.5-1.7,1-2.5.5-.8,1.2-1.5,2.2-2.2,1.1-.6,2-2.4,2.9-3.6.7-1.2,2.3-1.5,2.4-3,2.1-.1,5.6-1.9,7.3-4.2.3,0,.2.2.6,0,2.1-3.5,5.4-6.2,7.9-9.9.5-.9,1.5-2,2.3-2.9.9-1,1.8-2,2.6-3.2,0-.3,1.2-.8,1.7-1.5,0-.3.2-.6.3-.8,1.4-1.4,2.8-3.2,4.2-3.8,1.5-.9,2.4-2.1,3.6-2.9,1.9-1.2,3.8-4.2,5.9-4.8.3,0,.7-.7,1.1-1l.8-.2c.3-.3,0-1,.4-1.4,2.4-2.2,4.9-5.2,7.3-5.1,0,.3-.6,1.2.1,1.3.4,0,.7,0,1.2.1,1-.3,2.5-1.3,3.4-1.1.2.2,0,1.8-.3,1.9-2.1,1.5-4.2,1-6.5,2.5-.3,0-.3,1.1-.6,2,0,0,.3,0,.6-.2-.4,1.1-1.9,2.1-2.6,3.3"/>
    <path class="st0" d="M78.7,10.1c-.1.5,0,.2-.6.7l.7-.7h-.1Z"/>
    <path class="st0" d="M57,29.1c-.1-.2-.4,0-.2-.4.2,0,.4.5.6-.2l-.5.5Z"/>
    <path class="st0" d="M55.7,28.8h-.6c0,0,.3,0,.6,0Z"/>
    <polygon class="st0" points="77.3 7.1 77.3 7.1 77.3 7.1 77.3 7.1"/>
    <path class="st0" d="M71.8,16l.5-.5h-.4c0,.1,0,.3,0,.5Z"/>
    <path class="st0" d="M71.9,15.5c0-.1-.2-.1-.4,0h.4Z"/>
    <path class="st0" d="M72.4,14.1c-.7,0-.2.4-.8.8.4.4.6-.6.8-.8Z"/>
    <polygon class="st0" points="70 16.2 69.5 16.2 69.9 16.6 70 16.2"/>
    <path class="st0" d="M67.7,22.1c.2-.9-.7,0-.9-.2l.9.2Z"/>
    <path class="st0" d="M68.5,16l.5.2v-.3c0-.1.2-.4.5-.4-.3-.5-.7.3-1,.5Z"/>
    <line class="st0" x1="67.4" y1="19.1" x2="66.6" y2="19.4"/>
    <line class="st0" x1="62.9" y1="22" x2="63.4" y2="22.5"/>
    <path class="st0" d="M60.8,24.7l1-.8c-.5.2-.7.5-1,.8Z"/>
    <path class="st0" d="M69.1,15.1c-.2.3-.4.5-.6.8.4-.3.8-.5,1.3-.8-.2,0-.4,0-.6,0Z"/>
    <path class="st0" d="M69.7,18.6c-.2-.1.2-.5.4-.7l.5.2c.6-.5-.2-1.1.6-1.7,0,.9,1.5-.2,2.4-.4-.3-1.4-.7-.5-.9-1.7.6-.6,1.2-1.7,2.1-2.1-1.6,1.7,1.3-.3.4,1.3.4-.2.5-.5.7-.8"/>
    <path class="st0" d="M71.7,18.5"/>
    <path class="st0" d="M71.1,19.1"/>
    <path class="st0" d="M67.4,21.7c-.1-.8,1,0,.4.6-.4-.1,0-.8.4-1-.1.1-.4,0-.4.3-.3-.2.2-.5.3-.7,1.1-.9-.2.6.4.3.2-.5,1.2-1.3.4-1.3.7-.8.7.1,1.3-.1-.9.3-.5,1.1-1.3,1.3"/>
    <path class="st0" d="M65.8,23.5"/>
    <path class="st0" d="M76.6,13c.7-.1,1.4.1,2.3-.6-.1-.3,0-.9.4-1.2.4.2.6.2,1.3-.5.4-2.2-2.5.5-3.5,0-2.1,1.9-4.2,0-6.9,2.2,0,.6.1.6-.4,1.4.2,1.2,1.6-.5,2.5-.6-.1.3-.2.7-.5.8l.7.2c-.9,1.4-1.3,0-2.1,1.2v-.3c.1,0-.3.7-.3.7h.2c-.3.3,0,.8-.8,1.2v-.7c0,.5-.6,0-.8.7,0-.4-.1-.7,0-.9-.8.4-1.5,1-2.1,1.5-1.6,2.2-3.6,3.9-5.9,5.3.1,0,.3,0,.4,0-.2.4-.6.5-1,.5-.4.3-.8.5-1.3.8-.7.8-1.2,1.5-2.1,2.4-.3-.2-.3-.3-.2-.5-.3.4-.4.7.2.6-.5.6-1,.7-1.4,1.1l.5-1.4c-.6.2,0,.7-.7,1.1-.7,1,.8,0,1,.5l-.4.3h.8c-.9.7-1.7.7-2.3.8l.7-.4c-.3-.7-1,.9-1.5.8h0c-.8.7.5,0,0,.6l-1.4.6.5.2c-.3.8-2,1.4-3,2.4-.6.5-1,1.5-1.6,2.4.2,0,.6-.3.6,0-.4.4-1.2,1.5-1.3.8,0,.3-.2.6-.2.9-.2.2-.4.4-.6.4h.3s-.5.9-.5.9c0,0-.5,0-.2-.3-1.1.5-1.2,2.2-2.6,3.3l.2-.5c-.4,1-1.1.5-1.6,1.5h.5c-.4.8-1.9,1.5-1.9,1.1.6.8-.5.1-.3,1.1l-1-.3c-.2.5-.5,1,0,1.1-.9.3-1.4.6-1.4,1.4,0,0,0,0,0,0h0s0,0,0,0c0,.2-.8.6-.3.7-1.4,1.2-1.3,0-2.6,1.2l.4.5c-1.1.8-1.8,2.1-2.3,3.1l-.5-.3c-.4.6.5.3-.3,1.1-.2,0-.4,0-.5-.1-.8.8-2,1.5-3.2,2.6,0,0,0-.3,0-.4-.5.5-1.1,1.5-1.5,2.2-2,.7-4.3,2.3-5.7,4.5-.1,2.4.6,4.3,1.8,5.3,1.1.2,2.9-.7,5-2,0-1.6,1.7-3.7,2.6-4.8,1.7-1.6,3.3-4.5,5.4-6.6v.2c2.1-1.3,4-3.7,5.9-5.6h-.3c-.4.2-.8.5-.8,0,.5-.3,1.2-.7,1.5-.7v-.6c.5,0,.9.8,1.5-.1-.3-1.1,2.2-1.2,1.3-2.1.8.2,1.1-1,1.4-1.3h-.7c1-.7,2.3-.9,2.5-1.4.8-1.1,2-2.7,2.5-3.8.7.2-.9,1,.2.8,0-.3.2-.6.4-1,.2-.3.4-.6.7-.9.5-.6,1.1-1.1,1.7-1.6,1.3-1.1,2.7-2.1,3.5-3.5-.1,0-.3.2-.3,0,.8,0,1-1.1,2-1.6-.4-.2-1.4.8-1.8,1.1-.6-1,.4,0,1.1-1.2-.1,0-.3,0-.4,0,.7-1.1.8,0,1.4-.8l-.6.2c.7-.7.1-.3.7-1.3.3.5,1,.5,1.3.3-.1-.3.8-.9.3-1.2,1.8-.1,1-1.5,2.6-1.6,0-.7-.8,0-1.1-.3.7-1.2.7.1,1.2,0"/>
  </g>
</svg>