<?xml version="1.0" encoding="UTF-8"?>
<svg id="Layer_1" xmlns="http://www.w3.org/2000/svg" version="1.1" viewBox="0 0 75.1 136">
  <!-- Generator: Adobe Illustrator 29.0.1, SVG Export Plug-In . SVG Version: 2.1.0 Build 192)  -->
  <defs>
    <style>
      .st0 {
        stroke: #000;
      }

      .st0, .st1, .st2 {
        fill: none;
        stroke-linecap: round;
        stroke-linejoin: round;
        stroke-width: 2px;
      }

      .st1 {
        stroke: #fff;
      }

      .st2 {
        stroke: #1d1d1b;
      }
    </style>
  </defs>
  <g id="icon-arrow">
    <polyline id="Stroke-3" class="st0" points="19.9 1 26.6 8 19.9 15"/>
    <line class="st0" x1="1" y1="8" x2="25.8" y2="8"/>
  </g>
  <g id="icon-download">
    <line id="Stroke-1" class="st2" x1="19" y1="64" x2="1" y2="64"/>
    <g id="Group">
      <polyline id="Stroke-3-2" class="st2" points="16.5 51 9.5 57.7 2.5 51"/>
      <line id="Stroke-1-2" class="st2" x1="9.4" y1="41" x2="9.6" y2="56.8"/>
    </g>
  </g>
  <g id="icon-extern">
    <polyline id="Stroke-1-3" class="st2" points="17.7 95.2 17.7 104.1 1 104.1 1 87.5 9.9 87.5"/>
    <polyline id="Stroke-3-3" class="st2" points="14.3 84.1 21 84.1 21 90.8"/>
    <line id="Stroke-5" class="st2" x1="8.8" y1="96.3" x2="21" y2="84.1"/>
  </g>
  <g id="icon-download-2">
    <line id="Stroke-1-4" class="st2" x1="69" y1="64" x2="51" y2="64"/>
    <g id="Group-2">
      <polyline id="Stroke-3-4" class="st2" points="66.5 55 59.5 61.7 52.5 55"/>
      <line id="Stroke-1-5" class="st2" x1="59.4" y1="45" x2="59.6" y2="60.8"/>
    </g>
  </g>
  <g id="icon-extern-2">
    <polyline id="Stroke-1-6" class="st2" points="67.7 95.2 67.7 104.1 51 104.1 51 87.5 59.9 87.5"/>
    <polyline id="Stroke-3-5" class="st2" points="67.5 81 74.1 81 74.1 87.7"/>
    <line id="Stroke-5-2" class="st2" x1="58.8" y1="96.3" x2="74.1" y2="81"/>
  </g>
  <g id="icon-arrow-2">
    <polyline id="Stroke-3-6" class="st1" points="19.9 21 26.6 28 19.9 35"/>
    <line class="st1" x1="1" y1="28" x2="25.8" y2="28"/>
  </g>
  <g id="icon-arrow-3">
    <polyline id="Stroke-3-7" class="st2" points="7.7 121 1 128 7.7 135"/>
    <line class="st2" x1="26.6" y1="128" x2="1.8" y2="128"/>
  </g>
</svg>